<?xml version="1.0" encoding="UTF-8"?>
<svg width="68px" height="68px" viewBox="0 0 68 68" version="1.1" xmlns="http://www.w3.org/2000/svg" xmlns:xlink="http://www.w3.org/1999/xlink">
    <title>barley</title>
    <g id="Design-v3" stroke="none" stroke-width="1" fill="none" fill-rule="evenodd">
        <g id="Saffola-Masala-Oats_Landing-Page_Mobile_v3.1" transform="translate(-58.000000, -2052.000000)">
            <g id="features" transform="translate(0.000000, 1514.000000)">
                <g id="pointers" transform="translate(0.000000, 381.000000)">
                    <g id="1" transform="translate(15.000000, 158.000000)">
                        <g id="barley" transform="translate(44.000000, 0.000000)">
                            <circle id="Oval" stroke="#FFF1BE" cx="33.3627859" cy="33" r="33"></circle>
                            <circle id="Oval" fill="#FFF1BE" opacity="0.800000012" cx="33.3627859" cy="33" r="27.5"></circle>
                            <path d="M57.9336736,17.9248053 C57.6701454,17.7734014 57.400628,17.6375204 57.1260253,17.5173872 L59.8627859,12.7990083 L58.2970984,11.8991339 L55.3545553,16.9722882 C54.1755718,16.7530563 52.9526292,16.7976001 51.759633,17.1157057 C51.4809621,17.1900578 51.2083935,17.2781331 50.9427182,17.3793689 L52.4531461,14.7752449 L50.8874587,13.8753705 L49.3735276,16.4855687 C49.1413019,15.0204607 48.5089246,13.6258803 47.523293,12.4762908 L50.4677573,7.39987439 L48.9020698,6.5 L46.1649702,11.2189413 C45.9243821,11.0427909 45.6715894,10.8780014 45.4069311,10.7259226 C44.9745731,10.4773323 44.4215256,10.6249117 44.17201,11.0552767 L42.3638134,14.172554 C41.5252016,15.6184272 41.1868639,17.217504 41.2950099,18.7697873 C41.1622288,18.682837 41.0261705,18.5991487 40.886722,18.5190598 C40.454364,18.2704695 39.9013165,18.4179365 39.6518009,18.8484139 L37.8436043,21.9656912 C37.0049925,23.4115644 36.6666548,25.0105287 36.7748008,26.5626996 C36.6416807,26.4756367 36.5056224,26.3920609 36.3665129,26.312197 C35.9340419,26.0637192 35.3812204,26.2111861 35.1315918,26.6415511 L33.3235082,29.7588285 C33.1313993,30.0899822 32.9641516,30.4321595 32.822217,30.7824356 C32.6988153,30.5006624 32.5588018,30.223951 32.4020636,29.9537637 L30.5939799,26.8364864 C30.3444644,26.4062339 29.7916428,26.2584296 29.3590588,26.5071323 C29.2199493,26.5871087 29.0838911,26.6706845 28.9507709,26.7576349 C29.0589169,25.205464 28.7204662,23.6063872 27.8818544,22.1605141 L26.0737708,19.0432367 C25.8242553,18.6128717 25.2714337,18.4651799 24.8388497,18.7138826 C24.6997402,18.793859 24.563682,18.8774348 24.4305618,18.9643852 C24.5387078,17.4122143 24.2002571,15.8131375 23.3616453,14.3672644 L21.5535617,11.249987 C21.3040462,10.8197345 20.7513376,10.6718177 20.3186406,10.920633 C20.0539823,11.0727117 19.8013026,11.2375012 19.5606015,11.4136516 L16.8235019,6.69471032 L15.2578145,7.59458471 L18.2022787,12.6710011 C17.2166471,13.8205907 16.5842698,15.215171 16.3520441,16.680279 L14.8381131,14.0704183 L13.2724256,14.9702927 L14.7828535,17.5744167 C14.5170652,17.4731808 14.2446096,17.3851056 13.9659387,17.3107535 C12.7730555,16.9925354 11.550113,16.9481041 10.3710164,17.167336 L7.42847329,12.0941816 L5.86278586,12.994056 L8.59954646,17.7124349 C8.32494376,17.8325682 8.05542629,17.9684492 7.7918981,18.1198531 C7.3595401,18.3683309 7.21127724,18.9187166 7.4610188,19.3490815 L8.10277548,20.455477 L9.66846291,19.5556027 L9.51070761,19.2833907 C10.773202,18.7779987 12.1598892,18.6923981 13.4979841,19.0491983 C15.1306836,19.4847375 16.4953347,20.5270171 17.3405008,21.9841387 L18.6644701,24.2666701 C15.7918772,25.4115353 12.4262425,24.3099765 10.8350159,21.566597 L9.26910244,22.4664713 C10.1077142,23.9123445 11.3297528,25.0035547 12.7342947,25.6864469 C12.5920212,25.7576495 12.4513296,25.8332389 12.3122202,25.9131028 C11.8798622,26.1615806 11.7315993,26.7119662 11.9813409,27.1423312 L13.7893115,30.2596086 C14.6088254,31.6725238 15.8082629,32.782069 17.2488536,33.4823962 C17.1085011,33.5528114 16.9696177,33.6273885 16.8323163,33.70624 C16.3999583,33.9547178 16.2516954,34.5051035 16.501437,34.9354684 L18.3094076,38.0527458 C19.1289215,39.465661 20.328359,40.5752062 21.7690627,41.2755334 C21.6287102,41.3459486 21.4898268,41.4205257 21.3525254,41.4993772 C20.9201674,41.747855 20.7719045,42.2982407 21.0216461,42.7286056 L22.8296167,45.845883 C24.3349594,48.4412332 27.0753361,49.893743 29.8897313,49.893743 C30.379835,49.893743 30.8720858,49.8496491 31.3604944,49.7598866 L37.2490838,60.0456759 C37.4098902,60.3265492 37.7096931,60.5 38.0344701,60.5 L42.1965656,60.5 C42.5186305,60.5 42.8163993,60.3294738 42.9782228,60.0523125 C43.1400463,59.7751512 43.1414023,59.4331989 42.981952,59.1546878 L40.4059978,54.6553158 L38.8352251,55.5464164 L40.6408227,58.7001387 L38.5597184,58.7001387 L33.1568255,49.262706 L33.9422118,48.8113065 C33.9428898,48.8109691 33.9434549,48.8106316 33.9441329,48.8101817 C33.9449239,48.8097318 33.945828,48.8091693 33.946619,48.8087194 L34.7225129,48.3627192 L37.8046175,53.7463302 L39.3753901,52.8552296 L37.4755462,49.5366053 C39.7427701,49.0746323 41.7260119,47.6673412 42.895616,45.6506102 L44.7036996,42.5333328 C44.9534412,42.1029679 44.8051783,41.5525822 44.3728203,41.3041044 C44.2350669,41.2249155 44.0952795,41.1501134 43.9539099,41.0795858 C45.3963087,40.3764464 46.6016224,39.2613896 47.4159381,37.8575855 L49.2240217,34.7403081 C49.4736503,34.3099432 49.3253874,33.7595575 48.8930294,33.5110797 C48.7556151,33.4321157 48.6166186,33.3574262 48.4760401,33.287011 C49.748931,32.6665476 50.873446,31.7078439 51.7004183,30.44622 L50.1861482,29.4627698 C48.5195471,32.0053649 45.2982201,32.9656433 42.5405535,31.864872 L43.8646358,29.5822281 C44.7098019,28.1251065 46.074453,27.0827145 47.7071526,26.6472878 C49.0453605,26.2904876 50.4318216,26.3760881 51.694429,26.8815926 L51.2464763,27.6544722 L52.8121637,28.5543466 L53.7443438,26.9471709 C53.9940854,26.516806 53.8458225,25.9664203 53.4134645,25.7179425 C53.2743551,25.6379662 53.1335506,25.5624892 52.991277,25.4911741 C54.395819,24.8081695 55.6179705,23.7170718 56.4564693,22.2713111 L58.2645529,19.1540337 C58.5142945,18.7236688 58.3661446,18.1732831 57.9336736,17.9248053 Z M43.9298398,15.0723159 L45.2536961,12.7897846 C47.6860206,14.6933563 48.4106101,18.1457245 46.8192705,20.889104 L45.4954142,23.1715229 C43.0629767,21.2680636 42.3386132,17.815808 43.9298398,15.0723159 L43.9298398,15.0723159 Z M20.3835056,25.4307701 C20.5211459,25.3516936 20.6553962,25.2692426 20.7865952,25.1834171 C20.7651242,25.4916241 20.7615081,25.7998311 20.7755207,26.1065757 C20.5156087,25.9411113 20.2457522,25.7901574 19.9668553,25.6546138 C20.1069818,25.5844236 20.2459782,25.5098465 20.3835056,25.4307701 L20.3835056,25.4307701 Z M24.9037147,33.2239073 C25.041355,33.1448308 25.1756053,33.0623798 25.3068043,32.9766668 C25.2853333,33.2848738 25.2817172,33.5930808 25.2957298,33.8998254 C25.0359308,33.734361 24.7660743,33.5835196 24.4871774,33.4478635 C24.6276429,33.3774484 24.7665263,33.3027588 24.9037147,33.2239073 Z M29.4239238,41.0170445 C29.5630332,40.9371806 29.6990915,40.8534923 29.8322117,40.766542 C29.8107407,41.0750864 29.8068985,41.3855431 29.8211372,41.6963372 C29.5597561,41.529523 29.2880915,41.3775567 29.0073865,41.2411132 C29.147852,41.1705856 29.2867354,41.095896 29.4239238,41.0170445 Z M33.7908978,46.7460948 L32.4670416,44.4636759 C30.8757019,41.7201838 31.6001785,38.2679282 34.032616,36.3643564 L35.3564722,38.6468878 C36.9475858,41.3902674 36.2232223,44.842523 33.7908978,46.7460948 L33.7908978,46.7460948 Z M40.821857,33.0288595 C40.9593844,33.107936 41.0983808,33.1825131 41.2385073,33.2527033 C40.9596104,33.3882468 40.6896409,33.5392008 40.4298419,33.7046652 C40.4439676,33.3979205 40.4402384,33.089826 40.4187674,32.7815065 C40.5498535,32.8673321 40.6842167,32.9497831 40.821857,33.0288595 Z M39.4096307,22.8654532 L40.733487,20.5829218 C43.1658115,22.4864936 43.890401,25.9388617 42.2990614,28.6822412 L40.9752051,30.9646601 C38.5427676,29.0612008 37.8182911,25.6089452 39.4096307,22.8654532 Z M34.8893086,30.6587028 L36.2136169,28.375609 C37.2847934,29.2113674 38.0525509,30.3638815 38.4110035,31.6956956 C38.8485598,33.3208688 38.6240184,35.0184818 37.7788523,36.4756034 L36.9812614,37.8506115 C36.9618245,37.8159663 36.9421616,37.7814336 36.9222727,37.7470134 L35.114189,34.6297361 C34.897445,34.2559507 34.4517524,34.0954356 34.054765,34.2227679 C33.9720452,32.9854406 34.2582874,31.746651 34.8893086,30.6587028 Z M29.5120679,28.5706568 L30.8362631,30.8537506 C31.6814292,32.3108722 31.9059706,34.0083728 31.4685274,35.6336584 C31.1099618,36.9654725 30.3422043,38.1179867 29.2711407,38.953745 L27.9469455,36.6706512 C27.1017794,35.2135296 26.877125,33.516029 27.3146812,31.8907434 C27.6730208,30.5588168 28.4408913,29.4063027 29.5120679,28.5706568 Z M24.9918588,20.7774071 L26.316054,23.0605009 C27.9073936,25.803993 27.1829171,29.2562486 24.7504796,31.1598204 L23.4266234,28.877289 C22.5814573,27.4201674 22.3568029,25.7226668 22.7943591,24.0973812 C23.1528117,22.7656796 23.9206822,21.6131655 24.9918588,20.7774071 L24.9918588,20.7774071 Z M20.4719887,12.9848323 L21.7958449,15.2673637 C23.3870715,18.0108558 22.662708,21.4631114 20.2302705,23.3666832 L18.9064143,21.0842643 C17.3150746,18.3407722 18.0395512,14.8885166 20.4719887,12.9848323 Z M15.355112,29.3596217 L14.0308037,27.0765279 C15.2932981,26.5712484 16.6799853,26.4855354 18.0180802,26.8422231 C19.6507797,27.2777623 21.0154308,28.3200418 21.8605969,29.7771634 L23.1845662,32.0596948 C20.3120863,33.204785 16.9462256,32.1031137 15.355112,29.3596217 Z M19.8753211,37.1527589 L18.5510128,34.8696651 C19.8135072,34.3642731 21.2003074,34.2786726 22.5382893,34.6354728 C24.1709888,35.071012 25.5356399,36.1132915 26.380806,37.5704131 L27.7051143,39.8535069 C26.4423939,40.3590113 25.0557067,40.4444994 23.7178378,40.0878117 C22.0851383,39.6522725 20.7204872,38.6098805 19.8753211,37.1527589 L19.8753211,37.1527589 Z M24.3955302,44.9458961 L23.0712219,42.6628023 C24.3337163,42.1575228 25.7204035,42.0718098 27.0584984,42.42861 C28.6911979,42.8641492 30.055849,43.9064287 30.9010151,45.3635503 L32.2249844,47.6460817 C29.3525045,48.7909469 25.9866438,47.6893881 24.3955302,44.9458961 L24.3955302,44.9458961 Z M41.3300416,44.7508483 C40.3194358,46.4933426 38.5275119,47.6509185 36.51907,47.8655386 L36.0589127,47.0617258 C37.1775515,45.7578078 37.8416832,44.1383713 37.9824877,42.4581933 C39.4870393,41.8694505 41.1655059,41.8796866 42.6533328,42.4694418 L41.3300416,44.7508483 Z M45.8502507,36.9578236 C44.2610581,39.6980536 40.9363313,40.8268335 38.0205705,39.6583466 L39.3447657,37.3754778 C40.1899318,35.9183562 41.5545829,34.8760767 43.1872825,34.4405375 C44.5254904,34.0836248 45.9119515,34.1692253 47.1745589,34.6748423 L45.8502507,36.9578236 Z M44.9337783,24.9849948 C45.0665594,25.0719452 45.2026177,25.1556335 45.3420661,25.2357223 C45.4797065,25.3147988 45.6185899,25.3893759 45.7588294,25.4595661 C45.4780114,25.5960095 45.2063469,25.7480883 44.9449658,25.9149025 C44.9590914,25.6041084 44.9552493,25.2936517 44.9337783,24.9849948 L44.9337783,24.9849948 Z M54.8906689,21.3714367 C53.2994422,24.1149287 49.9334685,25.2164875 47.0612147,24.0715098 L48.3851839,21.7890909 C49.23035,20.3319693 50.5950011,19.2896898 52.2277007,18.8541506 C53.5659086,18.4972379 54.9524827,18.5828384 56.2149771,19.0883429 L54.8906689,21.3714367 Z" id="Shape" fill="#DB0812" fill-rule="nonzero"></path>
                            <path d="M52.5282491,47.1844134 L51.8651397,48.2955553 C51.3740585,47.8376524 51.0190559,47.2578875 50.8380403,46.604091 C50.5755619,45.6559523 50.7102578,44.6656692 51.217355,43.8155331 L51.8798882,42.7052832 C52.3236127,43.1201496 52.6587969,43.6362519 52.8520262,44.2138985 L54.6060686,43.6643482 C54.1755948,42.3776045 53.2713233,41.2963429 52.0599821,40.6195788 C51.8482019,40.5012845 51.5964392,40.4690629 51.3605774,40.5304957 C51.1243699,40.5917055 50.923075,40.7412179 50.8009384,40.9461426 L49.6209378,42.923587 C48.8676087,44.1863597 48.667466,45.6574017 49.0573813,47.0657846 C49.4474117,48.4741675 50.3808347,49.6513133 51.6858524,50.3803677 C51.8310336,50.4615348 51.9894655,50.5 52.1458233,50.5 C52.4644154,50.5 52.7742505,50.3400072 52.9450113,50.0539155 L54.1248966,48.076471 C54.5460373,47.3707187 54.7944585,46.6034221 54.8627859,45.7959879 L53.0253218,45.6501547 C52.9792326,46.1926809 52.8120437,46.7088947 52.5282491,47.1844134 Z" id="Path" fill="#DB0812" fill-rule="nonzero"></path>
                            <path d="M11.0694584,41.0263727 L9.02514037,40.5245603 C8.81312252,40.4727507 8.58842688,40.5036391 8.40021851,40.6103174 C8.21201014,40.7169957 8.07574976,40.8912732 8.02132806,41.0940705 C7.33064665,43.6744819 8.96123611,46.3119331 11.6562439,46.9735163 L13.7004588,47.4753288 C13.7677644,47.4918092 13.8363069,47.5 13.9046433,47.5 C14.0514169,47.5 14.1969537,47.4624011 14.3253807,47.3896703 C14.513486,47.282992 14.6498494,47.1088133 14.7041681,46.9059172 C15.3950556,44.3254072 13.7643631,41.6879559 11.0694584,41.0263727 L11.0694584,41.0263727 Z M13.2145803,45.7259425 L12.0657465,45.4439012 C10.5252414,45.0657409 9.50133022,43.7282652 9.511122,42.2738479 L10.6598527,42.5558892 C12.2005639,42.9340495 13.2245782,44.2717226 13.2145803,45.7259425 Z" id="Shape" fill="#DB0812" fill-rule="nonzero"></path>
                            <polygon id="Path" fill="#DB0812" fill-rule="nonzero" transform="translate(52.891367, 11.558957) rotate(-59.999272) translate(-52.891367, -11.558957) " points="51.9969533 10.6645995 53.7857798 10.6645995 53.7857798 12.4533141 51.9969533 12.4533141"></polygon>
                            <polygon id="Path" fill="#DB0812" fill-rule="nonzero" transform="translate(12.993939, 11.752189) rotate(-30.000728) translate(-12.993939, -11.752189) " points="12.0995814 10.857776 13.888296 10.857776 13.888296 12.6466024 12.0995814 12.6466024"></polygon>
                        </g>
                    </g>
                </g>
            </g>
        </g>
    </g>
</svg>