<?xml version="1.0" encoding="UTF-8"?>
<svg width="67px" height="68px" viewBox="0 0 67 68" version="1.1" xmlns="http://www.w3.org/2000/svg" xmlns:xlink="http://www.w3.org/1999/xlink">
    <title>clock</title>
    <g id="Design-v3" stroke="none" stroke-width="1" fill="none" fill-rule="evenodd">
        <g id="Saffola-Masala-Oats_Landing-Page_Mobile_v3" transform="translate(-249.000000, -2366.000000)">
            <g id="features" transform="translate(0.000000, 1514.000000)">
                <g id="pointers" transform="translate(0.000000, 381.000000)">
                    <g id="6" transform="translate(205.000000, 471.000000)">
                        <g id="clock" transform="translate(44.000000, 0.000000)">
                            <circle id="Oval" stroke="#FFF1BE" cx="33.5" cy="33.9257812" r="33"></circle>
                            <circle id="Oval" fill="#FFF1BE" opacity="0.800000012" cx="33.5" cy="33.9257812" r="27.5"></circle>
                            <path d="M54.8939394,31.5517801 C54.4001136,26.5442418 52.1810666,21.8233715 48.6453299,18.2587035 C45.6237221,15.2125719 41.9253462,13.2550639 38.033823,12.3846633 L38.033823,9.63299729 C39.6232609,9.23434795 40.8047044,7.7838968 40.8047044,6.05988188 C40.8047044,4.02948853 39.1662814,2.37770917 37.1523058,2.37770917 L29.4178147,2.37770917 C27.4038391,2.37770917 25.7654161,4.02948853 25.7654161,6.05988188 C25.7654161,7.7837885 26.9468596,9.23423965 28.5361901,9.63299729 L28.5361901,12.3923525 C24.6565909,13.2664354 20.9704613,15.2212359 17.9574473,18.2588118 C17.298082,18.9235522 16.690065,19.6208908 16.1335039,20.345629 C16.1065406,20.3435713 16.0795773,20.3415136 16.0520769,20.3415136 L8.39697177,20.3415136 C7.80377927,20.3415136 7.32273689,20.8263691 7.32273689,21.4245056 C7.32273689,22.0226421 7.80377927,22.5074976 8.39697177,22.5074976 L14.6717925,22.5074976 C13.8841635,23.8368702 13.2490759,25.2329552 12.7656702,26.6700855 L1.07423488,26.6700855 C0.481042378,26.6700855 0,27.154941 0,27.7530775 C0,28.3512139 0.481042378,28.8360694 1.07423488,28.8360694 L12.15862,28.8360694 C11.8490255,30.2061626 11.6713471,31.6005148 11.6254773,32.9987657 L6.87510322,32.9987657 C6.28191072,32.9987657 5.80086834,33.4836212 5.80086834,34.0817577 C5.80086834,34.6798941 6.28191072,35.1647496 6.87510322,35.1647496 L11.6597454,35.1647496 C11.7504108,36.5665744 11.9739591,37.9610349 12.3304976,39.3274459 L5.37117439,39.3274459 C4.77798189,39.3274459 4.29693951,39.8123014 4.29693951,40.4104378 C4.29693951,41.0085743 4.77798189,41.4934298 5.37117439,41.4934298 L13.0160743,41.4934298 C14.0698987,44.3039023 15.7168082,46.9380637 17.9574473,49.1969683 C21.4966216,52.7649937 26.1841529,55.0026717 31.1563564,55.4979239 C31.865996,55.568535 32.5761727,55.6035156 33.2853825,55.6035156 C37.4772619,55.6035156 41.6158592,54.3804928 45.127533,52.0750195 C45.6246889,51.7486057 45.7653062,51.0776922 45.4415318,50.5764835 C45.1177574,50.0752748 44.4522689,49.9335112 43.955113,50.2599249 C36.2682105,55.3063426 25.9734954,54.2152282 19.4766303,47.6654011 C11.8536448,39.9802734 11.8536448,27.4757232 19.4766303,19.7904873 C27.0995084,12.105468 39.5029466,12.105468 47.1260395,19.7904873 C53.6143108,26.3317588 54.7025107,36.7015152 49.7134417,44.4472904 C49.3903118,44.9489323 49.5317885,45.6197375 50.0292667,45.9453932 C50.5270672,46.2711572 51.1922334,46.1285272 51.5152558,45.6268853 C54.1808622,41.4882315 55.3807826,36.489682 54.8939394,31.5517801 Z M27.9138859,6.05999018 C27.9138859,5.22392038 28.5885054,4.54380142 29.4178147,4.54380142 L37.1523058,4.54380142 C37.9816151,4.54380142 38.6562346,5.22392038 38.6562346,6.05999018 C38.6562346,6.89605998 37.9816151,7.57617894 37.1523058,7.57617894 L36.9595881,7.57617894 L29.610425,7.57617894 L29.4178147,7.57617894 C28.5885054,7.57617894 27.9138859,6.89595168 27.9138859,6.05999018 Z M30.6846599,12.0200199 L30.6846599,9.74216288 L35.8853532,9.74216288 L35.8853532,12.0161211 C34.1584132,11.8090531 32.4112776,11.8103527 30.6846599,12.0200199 Z" id="XMLID_389_" fill="#DB0812" fill-rule="nonzero"></path>
                            <path d="M47.9032258,47.6196447 C47.6690323,47.6196447 47.4410484,47.714564 47.2761371,47.879564 C47.11025,48.044564 47.016129,48.273435 47.016129,48.5067414 C47.016129,48.7400479 47.11025,48.9689189 47.2761371,49.1339189 C47.4410484,49.2998059 47.669121,49.3938382 47.9032258,49.3938382 C48.1365323,49.3938382 48.3645161,49.2998059 48.5304032,49.1339189 C48.6954032,48.9689189 48.7903226,48.7400479 48.7903226,48.5067414 C48.7903226,48.273435 48.6954919,48.044564 48.5304032,47.879564 C48.3645161,47.714564 48.1364435,47.6196447 47.9032258,47.6196447 Z" id="XMLID_391_" fill="#DB0812" fill-rule="nonzero"></path>
                            <path d="M33.266129,17.4583543 C24.2169574,17.4583543 16.8548387,24.8203672 16.8548387,33.8696447 C16.8548387,42.9189221 24.2169574,50.280935 33.266129,50.280935 C42.3153007,50.280935 49.6774194,42.9189221 49.6774194,33.8696447 C49.6774194,24.8203672 42.3153007,17.4583543 33.266129,17.4583543 Z M33.266129,48.16511 C25.3835174,48.16511 18.9706636,41.7521505 18.9706636,33.8696447 C18.9706636,25.9871389 25.3835174,19.5741793 33.266129,19.5741793 C41.1487406,19.5741793 47.5615944,25.9871389 47.5615944,33.8696447 C47.5615944,41.7521505 41.1487406,48.16511 33.266129,48.16511 Z" id="XMLID_394_" fill="#DB0812" fill-rule="nonzero"></path>
                            <path d="M39.8757692,25.7687358 L34.601566,31.2904558 C34.1605051,31.0621353 33.6643913,30.9331477 33.1399526,30.9331477 C32.6154074,30.9331477 32.1194001,31.0621353 31.6783392,31.2904558 L29.3178857,28.819177 C28.9019552,28.3838297 28.227905,28.3838297 27.811868,28.819177 C27.396044,29.2545243 27.396044,29.9604447 27.811868,30.395792 L30.1723215,32.8670708 C29.9541337,33.3288399 29.831037,33.8482466 29.831037,34.3973082 C29.831037,36.307485 31.3153317,37.8615801 33.1399526,37.8615801 C34.9645735,37.8615801 36.4488682,36.307485 36.4488682,34.3973082 C36.4488682,33.8482466 36.325665,33.3288399 36.1075837,32.8670708 L41.2269576,27.5073379 L41.2269576,27.5073379 L41.3816804,27.3453508 C41.7975044,26.9100035 41.7975044,26.2040831 41.3816804,25.7687358 C40.9658564,25.3333885 40.2918062,25.3333885 39.8757692,25.7687358 Z M33.1399526,35.6319999 C32.4897551,35.6319999 31.9607375,35.0781445 31.9607375,34.3974196 C31.9607375,33.7166948 32.4897551,33.1628394 33.1399526,33.1628394 C33.7901501,33.1628394 34.3191677,33.7166948 34.3191677,34.3974196 C34.3191677,35.0781445 33.7901501,35.6319999 33.1399526,35.6319999 Z" id="XMLID_397_" fill="#DB0812" fill-rule="nonzero"></path>
                            <path d="M45.2196558,33.4260963 L44.3771184,33.4260963 C43.8749607,33.4260963 43.4677419,33.8232495 43.4677419,34.313193 C43.4677419,34.8031366 43.8749607,35.2002898 44.3771184,35.2002898 L45.2196558,35.2002898 C45.7218135,35.2002898 46.1290323,34.8031366 46.1290323,34.313193 C46.1290323,33.8232495 45.7218135,33.4260963 45.2196558,33.4260963 Z" id="XMLID_398_" fill="#DB0812" fill-rule="nonzero"></path>
                            <path d="M23.0422053,33.4260963 L22.1997302,33.4260963 C21.6975553,33.4260963 21.2903226,33.8232495 21.2903226,34.313193 C21.2903226,34.8031366 21.6975553,35.2002898 22.1997302,35.2002898 L23.0422053,35.2002898 C23.5443802,35.2002898 23.9516129,34.8031366 23.9516129,34.313193 C23.9516129,33.8232495 23.5443802,33.4260963 23.0422053,33.4260963 Z" id="XMLID_399_" fill="#DB0812" fill-rule="nonzero"></path>
                            <path d="M32.8225806,24.5551285 C33.3124355,24.5551285 33.7096774,24.1479868 33.7096774,23.645721 L33.7096774,22.8032458 C33.7096774,22.30098 33.3124355,21.8938382 32.8225806,21.8938382 C32.3327258,21.8938382 31.9354839,22.30098 31.9354839,22.8032458 L31.9354839,23.645721 C31.9354839,24.1479868 32.3327258,24.5551285 32.8225806,24.5551285 Z" id="XMLID_400_" fill="#DB0812" fill-rule="nonzero"></path>
                            <path d="M32.8225806,44.0712576 C32.3327258,44.0712576 31.9354839,44.4783993 31.9354839,44.9806651 L31.9354839,45.8231403 C31.9354839,46.3254061 32.3327258,46.7325479 32.8225806,46.7325479 C33.3124355,46.7325479 33.7096774,46.3254061 33.7096774,45.8231403 L33.7096774,44.9806651 C33.7096774,44.4783993 33.3124355,44.0712576 32.8225806,44.0712576 Z" id="XMLID_424_" fill="#DB0812" fill-rule="nonzero"></path>
                            <path d="M0.887096774,39.6357737 C0.653790323,39.6357737 0.424919355,39.730693 0.259919355,39.895693 C0.0949193548,40.060693 0,40.289564 0,40.5228705 C0,40.757064 0.0948306452,40.9850479 0.259919355,41.1500479 C0.425008065,41.3150479 0.653790323,41.4099672 0.887096774,41.4099672 C1.12040323,41.4099672 1.34927419,41.3150479 1.51418548,41.1500479 C1.67918548,40.9850479 1.77419355,40.7561769 1.77419355,40.5228705 C1.77419355,40.289564 1.67927419,40.060693 1.51418548,39.895693 C1.34927419,39.730693 1.12040323,39.6357737 0.887096774,39.6357737 Z" id="XMLID_425_" fill="#DB0812" fill-rule="nonzero"></path>
                        </g>
                    </g>
                </g>
            </g>
        </g>
    </g>
</svg>