<?xml version="1.0" encoding="UTF-8"?>
<svg width="70px" height="67px" viewBox="0 0 70 67" version="1.1" xmlns="http://www.w3.org/2000/svg" xmlns:xlink="http://www.w3.org/1999/xlink">
    <title>hi fiber</title>
    <g id="Design-v3" stroke="none" stroke-width="1" fill="none" fill-rule="evenodd">
        <g id="Saffola-Masala-Oats_Landing-Page_Desktop_v3" transform="translate(-200.000000, -1995.000000)">
            <g id="features" transform="translate(0.000000, 1567.000000)">
                <g id="icons" transform="translate(140.000000, 255.000000)">
                    <g id="4" transform="translate(0.000000, 173.000000)">
                        <g id="hi-fiber" transform="translate(60.011848, 0.000000)">
                            <circle id="Oval" stroke="#FFF1BE" cx="33.4881523" cy="33.5" r="33"></circle>
                            <circle id="Oval" fill-opacity="0.8" fill="#FFF1BE" cx="33.4881523" cy="33.5" r="27.5"></circle>
                            <path d="M65.7226546,17.8541191 C67.2125389,15.0278281 66.4812889,11.1432383 66.4469833,10.9677324 C66.3294718,10.3651172 65.7513931,9.96688281 65.1460806,10.0721563 C64.9572495,10.1049414 60.4972264,10.9087793 58.5404556,13.7484551 C58.1725736,14.2823418 57.9407102,14.881498 57.8510343,15.5050176 C56.6349926,14.0593125 55.2841361,13.1372676 55.1900968,13.0738027 C54.6806292,12.7307617 53.9901546,12.8578418 53.6365667,13.3599961 C53.5587773,13.4705332 52.1275736,15.5299824 51.634356,17.9613477 C51.1436963,17.7207227 50.5392866,17.865248 50.2159417,18.3242402 C50.1381523,18.4347773 48.7069486,20.4942266 48.213731,22.9257422 C47.7230713,22.6851172 47.1186616,22.8294922 46.7953167,23.2886348 C46.7175273,23.3991719 45.2864741,25.4586211 44.793106,27.8899863 C44.3024463,27.6493613 43.6980366,27.7937363 43.3746917,28.2528789 C43.2969023,28.363416 41.8656986,30.4228652 41.372481,32.8543809 C40.8819718,32.6137559 40.2774116,32.7581309 39.9540667,33.2172734 C39.8437773,33.3739805 37.2585227,37.0944941 37.8839972,40.485502 C37.9969949,41.0981934 38.5853051,41.5031953 39.1982912,41.3904023 C39.8112773,41.277459 40.2164741,40.6892813 40.1036269,40.0767402 C39.8279787,38.5826094 40.5477935,36.7478437 41.1869602,35.5387031 C42.2144718,36.4374375 43.537944,37.8912637 43.8147958,39.3929141 C43.9144023,39.932666 43.7670991,40.4570781 43.4399926,40.9108066 C35.2272611,53.7887012 30.9439509,60.6406712 30.590062,61.4667168 C30.2526238,59.7350189 26.9336616,53.6772721 20.6331755,43.2934766 C20.5179208,43.05225 20.1692982,42.3436094 19.9664741,41.8652168 C19.7377704,41.3257656 19.5821917,40.7717266 19.7771917,40.2203945 C20.2838005,38.7880742 21.8230366,37.5565254 22.9803977,36.8271309 C23.4224579,38.1182344 23.8442056,40.0379707 23.3350389,41.4776602 C23.1274,42.0649355 23.4352472,42.7093594 24.0228051,42.9170488 C24.6105134,43.1247383 25.2550968,42.8168887 25.4628861,42.2296133 C26.6127241,38.9786191 24.6436153,34.8988223 24.5592056,34.726625 C24.3121454,34.222666 23.7379787,33.9851992 23.2155713,34.1458164 C23.1097958,31.6670781 22.018488,29.4065566 21.9601083,29.2874473 C21.7128977,28.7834883 21.139032,28.5460215 20.6166245,28.7064883 C20.5108491,26.2279004 19.4195412,23.9673789 19.3611616,23.8482695 C19.1141014,23.3441602 18.5399347,23.1066934 18.0175273,23.2673105 C17.9117519,20.7885723 16.8202935,18.5280508 16.7619139,18.4089414 C16.5148537,17.9049824 15.940687,17.6675156 15.4184301,17.8281328 C15.3126546,15.3493945 14.2213468,13.088873 14.1629671,12.9697637 C13.8925852,12.4184316 13.2308491,12.1844238 12.6736847,12.4435469 C12.5794949,12.4873105 11.3344139,13.0763906 10.0302009,14.1228086 C8.3224463,11.4225449 4.5890088,10.1188086 4.41973797,10.0609082 C3.83865001,9.86239258 3.20490001,10.1645273 2.99425186,10.7414258 C2.92849954,10.9214434 1.40130047,15.1862207 2.88802501,18.2976523 C3.1728514,18.8936504 3.58376575,19.3884355 4.07216853,19.7698262 C2.20973797,20.1020391 0.734147692,20.8138379 0.632133803,20.8637676 C0.0805365806,21.1340195 -0.15358379,21.7955879 0.105513432,22.352334 C0.162538895,22.4749023 1.23473797,24.7417402 3.09716853,26.3815996 C2.64382362,26.6867422 2.46763149,27.2824395 2.70461065,27.7915117 C2.76163612,27.9140801 3.83383519,30.180918 5.69641621,31.8209277 C5.2430713,32.1260703 5.06687917,32.7217676 5.30370788,33.2306895 C5.36073334,33.3532578 6.43293241,35.6202461 8.29536297,37.2601055 C7.84201806,37.565248 7.66582593,38.1609453 7.9028051,38.6698672 C7.95983056,38.7924355 9.03202964,41.0592734 10.8946107,42.6992832 C10.4412657,43.0044258 10.2650736,43.600123 10.5019023,44.1091953 C10.5828514,44.2828965 12.520062,48.3780332 15.7724695,49.5273184 C16.2276199,49.6880859 16.6924,49.7644844 17.1498074,49.7644844 C18.4359648,49.7644844 19.6623884,49.1605156 20.44615,48.1368066 C22.5676778,50.243679 24.2399232,52.5768392 25.4628861,55.1362871 C27.2973306,58.975459 29.0971917,62.2455996 29.1164509,66.5 L31.9881523,66 C31.9881523,62.3044512 30.590062,64.5 33.8839972,61 C36.079954,58.6666667 39.6675235,52.7120957 44.6467056,43.1362871 C44.9541014,43.7068691 45.3940551,44.2010527 45.9433954,44.5792852 C46.6427472,45.0606855 47.4538931,45.3112363 48.2850505,45.3112363 C48.5373769,45.3112363 48.7915088,45.2882266 49.0448884,45.2414551 C52.4375273,44.6164316 54.9935921,40.8757656 55.1007218,40.7168027 C55.414437,40.2513438 55.3340898,39.6354941 54.9343097,39.2629766 C57.0311616,37.9351777 58.4471685,35.8623438 58.5213468,35.7524082 C58.835062,35.2869492 58.7547148,34.67125 58.3549347,34.2987324 C60.4517866,32.9709336 61.8677935,30.89825 61.9418213,30.7881641 C62.2555366,30.3227051 62.1751894,29.7068555 61.7754093,29.3343379 C63.8722611,28.0065391 65.2882681,25.9337051 65.3624463,25.8237695 C65.6761616,25.3583105 65.5958144,24.7424609 65.1960343,24.3699434 C67.2928861,23.0421445 68.7088931,20.9694609 68.7829208,20.8595254 C69.1268792,20.3504531 68.9995875,19.6604609 68.4971917,19.3068926 C68.4123306,19.2471875 67.2805482,18.4622988 65.7226546,17.8541191 Z M17.7782912,25.9511816 C18.146775,27.0179023 18.5646107,28.6718984 18.2727125,30.0980527 C17.6320412,30.5699785 16.9454787,31.1589082 16.3497958,31.8558184 C16.1399,31.8550664 15.9321107,31.8204766 15.7291361,31.7487402 C15.2539741,31.5807539 14.8727009,31.2380137 14.6554324,30.7835332 C14.4383144,30.3289023 14.4110806,29.8169727 14.5791477,29.3420391 C15.0850042,27.9112227 16.6213815,26.680877 17.7782912,25.9511816 Z M15.1790435,20.5118535 C15.5475273,21.5785742 15.9655134,23.2325703 15.6734648,24.658875 C15.032944,25.1306504 14.3463815,25.7195801 13.7506986,26.4164902 C13.5408028,26.4157383 13.332863,26.3811484 13.1298884,26.3094121 C12.1488699,25.9627617 11.6330829,24.8831074 11.9797495,23.9027109 C12.485907,22.4720449 14.0222843,21.2415488 15.1790435,20.5118535 Z M9.38080278,18.4635332 C9.88680973,17.0328672 11.423187,15.8023711 12.5800968,15.0728262 C12.9485806,16.1393965 13.3665667,17.7933926 13.0745181,19.2196973 C12.4338468,19.691623 11.7471338,20.2805527 11.1514509,20.9774629 C10.9417056,20.9767109 10.7337657,20.9421211 10.5307912,20.8703848 C10.0556292,20.7023984 9.67435603,20.3596582 9.45708751,19.9050273 C9.23981899,19.4503965 9.21273565,18.9386172 9.38080278,18.4635332 Z M4.78912454,12.6620645 C6.00546714,13.2577617 7.69606899,14.4005801 8.36562917,15.7640215 C7.90099954,16.3458828 7.50558288,16.9969238 7.2528051,17.7115801 C7.17937917,17.9191191 7.12370788,18.1301172 7.08413612,18.3424687 C6.23221482,18.5551211 5.31755047,18.1472617 4.92469167,17.3252266 C4.26957593,15.9545664 4.48684445,13.9958789 4.78912454,12.6620645 Z M7.38656667,22.0874961 C8.36743473,22.4341465 8.88337223,23.5138008 8.53670556,24.4941973 C8.46493473,24.6970742 8.36126575,24.8804004 8.23006204,25.0440254 C7.31299028,25.0691406 6.42300186,25.2327656 5.65293241,25.4342891 C4.3591014,24.7661035 3.33384677,23.398752 2.73560603,22.4415156 C4.02733056,21.999668 5.94693704,21.5790254 7.38656667,22.0874961 Z M5.33470325,27.8806934 C6.62627732,27.4388457 8.54573334,27.0180527 9.98551343,27.5266738 C10.966532,27.8733242 11.482319,28.9529785 11.1356523,29.933375 C11.0638815,30.136252 10.9602125,30.3197285 10.8288583,30.4833535 C9.91193704,30.5084687 9.02194862,30.6720937 8.25202964,30.8736172 C6.95834908,30.2052812 5.93294399,28.8377793 5.33470325,27.8806934 Z M12.5847611,32.966002 C13.5656292,33.3126523 14.0815667,34.3921562 13.7349,35.3725527 C13.6631292,35.5754297 13.5594602,35.7589062 13.428106,35.9223809 C12.5111847,35.9474961 11.6210458,36.1111211 10.8511269,36.3127949 C9.55729584,35.6446094 8.53204121,34.2771074 7.93380047,33.3198711 C9.22552501,32.8780234 11.1451315,32.4573809 12.5847611,32.966002 Z M15.1837079,38.4051797 C15.6588699,38.5730156 16.0401431,38.9159062 16.2574116,39.3703867 C16.4745296,39.8250176 16.5017634,40.3369473 16.3336963,40.8118809 C16.2620759,41.0146074 16.1582565,41.198084 16.0270528,41.361709 C15.1101315,41.3866738 14.2199926,41.5504492 13.4500736,41.7519727 C12.1563931,41.0837871 11.1311384,39.7162852 10.5328977,38.7590488 C11.8246222,38.3173516 13.7440782,37.8965586 15.1837079,38.4051797 Z M18.9327935,46.251209 C18.5859764,47.2317559 17.5055019,47.7472949 16.5249347,47.4006445 C15.0919255,46.8942793 13.8597843,45.3557832 13.1300389,44.1989785 C14.4217634,43.7569805 16.3427241,43.3355859 17.7828051,43.8445078 C18.7636732,44.1910078 19.2796107,45.2708125 18.9327935,46.251209 Z M18.3279324,37.187918 C17.3469139,36.8412676 16.8311269,35.7617637 17.1777935,34.7812168 C17.6842519,33.3493477 19.2225852,32.1180996 20.3797958,31.3887051 C20.7693445,32.5288164 21.149113,34.1757441 20.8713583,35.5375312 C20.230988,36.0093066 19.5444255,36.5980859 18.9487426,37.2949961 C18.7388468,37.2942441 18.530907,37.2596543 18.3279324,37.187918 Z M64.3731523,12.5859355 C64.4620759,13.9507305 64.3296685,15.980252 63.4687195,17.2304492 C62.7326546,17.1181074 61.9710111,17.1003613 61.2254671,17.237668 C61.00865,17.2776719 60.7980019,17.3346699 60.5939741,17.4062559 C60.338488,17.1421699 60.1657565,16.8092051 60.0977472,16.4396953 C60.0062657,15.9446094 60.1133954,15.443207 60.399275,15.0282793 C61.2609764,13.7779316 63.0659301,12.9894336 64.3731523,12.5859355 Z M57.4972958,19.5360879 C57.6859764,20.5587441 57.006937,21.5441035 55.9837889,21.732543 C55.772238,21.7714941 55.5614394,21.7732988 55.3541014,21.7411152 C54.8750273,20.9592344 54.289275,20.2696934 53.7304556,19.7031719 C53.6648537,18.250248 54.3381755,16.6812227 54.8697611,15.6854863 C55.8981755,16.5878301 57.2220991,18.0439121 57.4972958,19.5360879 Z M54.0766708,24.500332 C54.1680019,24.9957188 54.0610227,25.4971211 53.7751431,25.9118984 C53.4892634,26.3266758 53.0589394,26.6055 52.5631639,26.6967871 C52.3520644,26.7357383 52.1417171,26.737543 51.9348306,26.7055098 C51.8334185,26.5394785 51.7271917,26.3734473 51.6111847,26.2078672 C51.2055366,25.6291641 50.7494833,25.1095645 50.3096801,24.6650098 C50.244981,23.2126875 50.9178514,21.6450156 51.4491361,20.6497305 C52.4775505,21.5522246 53.8014741,23.0081563 54.0766708,24.500332 Z M49.7627472,27.5024297 C50.2412195,28.184752 50.541694,28.8449668 50.6560458,29.4645762 C50.7473769,29.9599629 50.6403977,30.4613652 50.3545181,30.8761426 C50.0686384,31.2909199 49.6381639,31.5697441 49.1425389,31.6610313 C48.930988,31.7001328 48.7201894,31.7017871 48.5128514,31.6696035 C48.0337773,30.8877227 47.448025,30.198332 46.8892056,29.6318105 C46.8236037,28.1797891 47.4958722,26.6121172 48.0273074,25.6160801 C48.5597958,26.0801855 49.2246917,26.7346855 49.7627472,27.5024297 Z M45.0919255,36.633998 C44.6130019,35.8521172 44.0270991,35.1627266 43.4684301,34.5962051 C43.4028282,33.1420781 44.0772032,31.5716992 44.6089394,30.5759629 C45.6363005,31.4748477 46.9584185,32.9277715 47.2352704,34.4288203 C47.3266014,34.924207 47.2196222,35.4256094 46.9337426,35.8405371 C46.6480134,36.2553145 46.2175389,36.5341387 45.7217634,36.6254258 C45.5102125,36.6645273 45.2992634,36.6661816 45.0919255,36.633998 Z M48.6360806,43.0228926 C48.1401546,43.1143301 47.638812,43.007252 47.2238352,42.7215098 C46.8087079,42.4357676 46.5299,42.0056504 46.438569,41.5101133 C46.2498884,40.487457 46.9289278,39.5020977 47.9520759,39.3135078 C49.4457218,39.0381426 51.2801662,39.7565586 52.4898884,40.3951172 C51.5869602,41.4234883 50.1295759,42.7478281 48.6360806,43.0228926 Z M52.5588005,37.9264551 C51.8302588,37.606875 50.9771338,37.3056426 50.0758607,37.1372051 C49.9718907,36.955082 49.8981639,36.7576191 49.859194,36.5458691 C49.767863,36.0504824 49.8748421,35.5492305 50.1607218,35.1343027 C50.4466014,34.719375 50.8769255,34.4407012 51.3725505,34.3492637 C52.8655945,34.0740488 54.6988352,34.7915625 55.9085574,35.4299707 C55.1673769,36.2811816 53.9414046,37.4680645 52.5588005,37.9264551 Z M55.9797264,32.9620605 C55.2510343,32.6423301 54.3977588,32.3410977 53.4963352,32.1726602 C53.3923653,31.9905371 53.3187889,31.7932246 53.279819,31.5814746 C53.188488,31.0860879 53.2954671,30.5848359 53.5813468,30.1699082 C53.8672264,29.7549805 54.2977009,29.4763066 54.7933259,29.3848691 C56.2865204,29.1096543 58.1196107,29.827168 59.3293329,30.4655762 C58.5880019,31.3167871 57.3621801,32.5036699 55.9797264,32.9620605 Z M56.9171107,27.2085664 C56.8131407,27.026293 56.7394139,26.8288301 56.700444,26.6172305 C56.609113,26.1218438 56.7160921,25.6205918 57.0019718,25.2056641 C57.2878514,24.7907363 57.7183259,24.5120625 58.2139509,24.420625 C59.7071454,24.1455605 61.5400852,24.8629238 62.7499579,25.501332 C62.0086269,26.352543 60.7826546,27.5395762 59.4000505,27.9978164 C58.6715088,27.6782363 57.8183838,27.3770039 56.9171107,27.2085664 Z M62.8208259,23.0335723 C62.0921338,22.7138418 61.2390088,22.4127598 60.3375852,22.2441719 C60.2336153,22.0620488 60.1598884,21.8645859 60.1209185,21.6529863 C60.0295875,21.1575996 60.1365667,20.6563477 60.4224463,20.2414199 C60.7083259,19.8266426 61.1388005,19.5478184 61.6344255,19.4565313 C63.1283722,19.181166 64.963569,19.8998828 66.1732912,20.5387422 C65.3791477,21.4445449 64.1402357,22.5948828 62.8208259,23.0335723 Z" id="Shape" fill="#DB0812" fill-rule="nonzero"></path>
                            <path d="M40.8178973,2.83233407 C38.6163225,4.472891 36.9845345,6.74128635 36.3409892,9.05588474 C35.6044441,11.7048014 36.2029195,14.0982065 37.9384549,15.6777406 C37.3411062,16.7327392 36.7858805,17.821562 36.3461029,18.877694 C35.9422079,17.8671548 35.4044034,16.9621853 34.7962207,16.1557242 C35.6585279,14.7776529 35.777963,13.0941184 35.1005287,11.3688268 C34.4626172,9.74431017 33.170673,8.24637246 31.4625263,7.15074997 C29.6200368,5.96899803 27.4506176,5.34438511 25.1888919,5.34438511 C22.2866545,5.34438511 19.3093586,6.39729157 16.5789933,8.3892532 L15.1131836,9.45872302 L16.8606798,9.93627076 C19.7434158,10.7239892 22.0441442,12.9594321 24.0740202,14.9316921 C26.1463659,16.9452733 28.1038702,18.8470954 30.3715763,18.8477056 C31.4885281,18.8477056 32.5550364,18.3991001 33.6226715,17.481926 C34.6471435,18.9346196 35.1005287,18.0251445 35.1005287,24.5859355 C35.1005287,31.1467266 28.9054592,56.0759818 28.6381211,57 C28.3707829,57.9240182 30.3715763,61 30.3715763,61 C30.3715763,61 35.5567984,32.7332048 37.0103933,27.2940938 C38.4639881,21.8549829 37.9223338,19.2313652 39.3680354,16.6687524 C40.4416509,17.2518697 41.4448881,17.5364979 42.4219501,17.5364979 C45.6080407,17.5364979 47.6799531,14.4702718 49.8735539,11.2241154 C51.8314916,8.32657397 54.0506609,5.04240896 57.3525464,3.34161371 L58.9630129,2.51205105 L57.3109435,1.76966394 C54.6974997,0.595409101 52.0924633,0 49.5681191,0 C46.3301115,0 43.3042788,0.979417459 40.8178973,2.83233407 Z M25.2784249,13.6775844 C23.4875056,11.937473 21.5005326,10.0067958 19.011551,8.87115972 C21.0349266,7.68679251 23.1066655,7.08789639 25.1888919,7.08789639 C29.3688591,7.08789639 32.5279945,9.5636824 33.488242,12.0092185 C33.7369062,12.6426361 33.9939776,13.691271 33.5740481,14.7408648 C32.0189654,13.1528747 30.3073517,12.0678005 29.2422302,11.3926257 C28.9307283,11.1950859 28.6616961,11.0245705 28.4820234,10.8961609 L27.4774861,12.3170354 C27.6964215,12.4736899 27.9845218,12.6563227 28.3179519,12.8676363 C29.4151424,13.5632101 31.0800394,14.6189933 32.5173338,16.1387249 C31.7686545,16.7869624 31.0646983,17.1041071 30.3726163,17.1041071 C28.8045328,17.1036713 27.1704912,15.5159427 25.2784249,13.6775844 Z M42.4218634,15.7928995 C41.7565633,15.7928995 41.0440265,15.5873395 40.2553911,15.1682866 C40.3328765,15.0428409 40.4111421,14.9166979 40.4913144,14.7892472 C42.2087351,12.058124 43.952851,9.84674146 43.9702723,9.82468604 L42.6139302,8.73900157 C42.4652865,8.92686491 40.6353645,11.2536679 38.8528525,14.1356048 C37.8045455,12.9997072 37.495037,11.3789392 38.0103933,9.52541233 C38.5522714,7.57668977 39.9516031,5.6476689 41.8498232,4.2331582 C43.373877,3.09743496 45.9502248,1.7434241 49.5681191,1.7434241 C51.3412705,1.7434241 53.1676388,2.07286056 55.0164555,2.7248466 C52.1808695,4.7076548 50.2095842,7.62489786 48.4397265,10.2440005 C46.4277917,13.2214819 44.6901762,15.7928995 42.4218634,15.7928995 Z" id="Shape" fill="#DB0812" fill-rule="nonzero"></path>
                            <rect id="Rectangle" fill="#DB0812" x="0.988152321" y="47" width="68" height="20" rx="10"></rect>
                            <path d="M13.3360527,61 L13.3360527,60.0224609 L12.3267754,59.8320312 L12.3267754,57.0581055 L16.3702324,57.0581055 L16.3702324,59.8320312 L15.3609551,60.0224609 L15.3609551,61 L18.9727715,61 L18.9727715,60.0224609 L17.9634941,59.8320312 L17.9634941,52.9321289 L18.9727715,52.7416992 L18.9727715,51.7578125 L15.3609551,51.7578125 L15.3609551,52.7416992 L16.3702324,52.9321289 L16.3702324,55.8139648 L12.3267754,55.8139648 L12.3267754,52.9321289 L13.3360527,52.7416992 L13.3360527,51.7578125 L9.71788865,51.7578125 L9.71788865,52.7416992 L10.727166,52.9321289 L10.727166,59.8320312 L9.71788865,60.0224609 L9.71788865,61 L13.3360527,61 Z M22.324334,52.5766602 L22.324334,51.0976562 L20.661248,51.0976562 L20.661248,52.5766602 L22.324334,52.5766602 Z M23.2701347,61 L23.2701347,60.0224609 L22.324334,59.8320312 L22.324334,54.1318359 L19.7154472,54.1318359 L19.7154472,55.1157227 L20.7247246,55.3061523 L20.7247246,59.8320312 L19.7725761,60.0224609 L19.7725761,61 L23.2701347,61 Z M30.8048027,61 L30.8048027,60.0224609 L29.7955254,59.8320312 L29.7955254,57.0517578 L33.089959,57.0517578 L33.089959,55.8139648 L29.7955254,55.8139648 L29.7955254,52.9956055 L33.0264824,52.9956055 L33.1280449,54.1572266 L34.3721855,54.1572266 L34.3721855,51.7578125 L27.1866386,51.7578125 L27.1866386,52.7416992 L28.195916,52.9321289 L28.195916,59.8320312 L27.1866386,60.0224609 L27.1866386,61 L30.8048027,61 Z M37.7047051,52.5766602 L37.7047051,51.0976562 L36.0416191,51.0976562 L36.0416191,52.5766602 L37.7047051,52.5766602 Z M38.6505058,61 L38.6505058,60.0224609 L37.7047051,59.8320312 L37.7047051,54.1318359 L35.0958183,54.1318359 L35.0958183,55.1157227 L36.1050957,55.3061523 L36.1050957,59.8320312 L35.1529472,60.0224609 L35.1529472,61 L38.6505058,61 Z M43.2335136,61.1333008 C43.7963392,61.1333008 44.2745293,60.9947103 44.668084,60.7175293 C45.0616386,60.4403483 45.3620944,60.0499674 45.5694511,59.5463867 C45.7768079,59.042806 45.8804863,58.4567057 45.8804863,57.7880859 L45.8804863,57.7880859 L45.8804863,57.6547852 C45.8804863,56.918457 45.7768079,56.2773438 45.5694511,55.7314453 C45.3620944,55.1855469 45.0626966,54.7613118 44.6712578,54.4587402 C44.279819,54.1561686 43.8026868,54.0048828 43.2398613,54.0048828 C42.8378431,54.0048828 42.4855482,54.0810547 42.1829765,54.2333984 C41.8804049,54.3857422 41.6254407,54.6079102 41.418084,54.8999023 L41.418084,54.8999023 L41.418084,51.0976562 L38.8155449,51.0976562 L38.8155449,52.081543 L39.8248222,52.2719727 L39.8248222,61 L41.2022636,61 L41.3292168,60.1430664 C41.5408053,60.464681 41.8031751,60.7101237 42.1163261,60.8793945 C42.4294772,61.0486654 42.801873,61.1333008 43.2335136,61.1333008 Z M42.7764824,59.8701172 C42.4633314,59.8701172 42.193556,59.799235 41.9671562,59.6574707 C41.7407565,59.5157064 41.5577324,59.3157552 41.418084,59.0576172 L41.418084,59.0576172 L41.418084,56.125 C41.5535006,55.8626302 41.7344088,55.6542155 41.9608086,55.4997559 C42.1872083,55.3452962 42.4612155,55.2680664 42.7828301,55.2680664 C43.1298353,55.2680664 43.4133639,55.3664551 43.633416,55.5632324 C43.8534681,55.7600098 44.0163913,56.0371908 44.1221855,56.3947754 C44.2279798,56.75236 44.2808769,57.1723633 44.2808769,57.6547852 L44.2808769,57.6547852 L44.2808769,57.7880859 C44.2808769,58.4355469 44.1613294,58.9444173 43.9222344,59.3146973 C43.6831393,59.6849772 43.301222,59.8701172 42.7764824,59.8701172 Z M49.9937676,61.1333008 C50.5523613,61.1333008 51.0411308,61.055013 51.4600761,60.8984375 C51.8790215,60.741862 52.2239108,60.5493164 52.4947441,60.3208008 L52.4947441,60.3208008 L51.9932793,59.3178711 C51.7351413,59.504069 51.4537285,59.6479492 51.149041,59.7495117 C50.8443535,59.8510742 50.5058118,59.9018555 50.133416,59.9018555 C49.7779472,59.9018555 49.4764336,59.8214518 49.228875,59.6606445 C48.9813164,59.4998372 48.7908867,59.2797852 48.6575859,59.0004883 C48.5242851,58.7211914 48.4491712,58.4016927 48.4322441,58.0419922 L48.4322441,58.0419922 L48.4449394,58.0102539 L52.6597832,58.0102539 L52.6597832,57.0961914 C52.6597832,56.4529622 52.551873,55.9017741 52.3360527,55.442627 C52.1202324,54.9834798 51.8017916,54.629069 51.3807304,54.3793945 C50.9596692,54.1297201 50.4381035,54.0048828 49.8160332,54.0048828 C49.2320488,54.0048828 48.711541,54.1540527 48.2545097,54.4523926 C47.7974785,54.7507324 47.4388359,55.1612142 47.178582,55.6838379 C46.9183281,56.2064616 46.7882011,56.8020833 46.7882011,57.4707031 L46.7882011,57.4707031 L46.7882011,57.7373047 C46.7882011,58.3974609 46.920444,58.9835612 47.1849297,59.4956055 C47.4494153,60.0076497 47.8218112,60.40861 48.3021172,60.6984863 C48.7824232,60.9883626 49.3463066,61.1333008 49.9937676,61.1333008 Z M51.129998,56.8867188 L48.4703301,56.8867188 L48.4512871,56.8549805 C48.4936048,56.5418294 48.5729505,56.2614746 48.6893242,56.013916 C48.8056979,55.7663574 48.9612155,55.570638 49.1558769,55.4267578 C49.3505384,55.2828776 49.5769381,55.2109375 49.8350761,55.2109375 C50.1313001,55.2109375 50.3756849,55.2744141 50.5682304,55.4013672 C50.760776,55.5283203 50.9025403,55.7049967 50.9935234,55.9313965 C51.0845065,56.1577962 51.129998,56.421224 51.129998,56.7216797 L51.129998,56.7216797 L51.129998,56.8867188 Z M57.1412285,61 L57.1412285,60.0224609 L56.1890801,59.8320312 L56.1890801,56.2519531 C56.3160332,56.0192057 56.4736666,55.8372396 56.6619804,55.7060547 C56.8502942,55.5748698 57.0904472,55.5177409 57.3824394,55.534668 L57.3824394,55.534668 L58.277459,55.5854492 L58.461541,54.1064453 C58.3769056,54.0810547 58.2679375,54.0577799 58.1346367,54.0366211 C58.0013359,54.0154622 57.8754407,54.0048828 57.7569511,54.0048828 C57.4014824,54.0048828 57.0915052,54.1022135 56.8270195,54.296875 C56.5625338,54.4915365 56.3393079,54.7708333 56.1573418,55.1347656 L56.1573418,55.1347656 L56.1446465,54.9951172 L56.0621269,54.1318359 L53.586541,54.1318359 L53.586541,55.1157227 L54.5894707,55.3061523 L54.5894707,59.8320312 L53.6373222,60.0224609 L53.6373222,61 L57.1412285,61 Z" id="HiFiber" fill="#FFFFFF" fill-rule="nonzero"></path>
                        </g>
                    </g>
                </g>
            </g>
        </g>
    </g>
</svg>