<?xml version="1.0" encoding="UTF-8"?>
<svg width="68px" height="68px" viewBox="0 0 68 68" version="1.1" xmlns="http://www.w3.org/2000/svg" xmlns:xlink="http://www.w3.org/1999/xlink">
    <title>no additives </title>
    <g id="Design-v3" stroke="none" stroke-width="1" fill="none" fill-rule="evenodd">
        <g id="Saffola-Masala-Oats_Landing-Page_Desktop_v3" transform="translate(-599.000000, -1822.000000)">
            <g id="features" transform="translate(0.000000, 1567.000000)">
                <g id="icons" transform="translate(140.000000, 255.000000)">
                    <g id="3" transform="translate(413.000000, 1.000000)">
                        <g id="no-additives-" transform="translate(47.000000, 0.000000)">
                            <circle id="Oval" stroke="#FFF1BE" cx="33" cy="33" r="33"></circle>
                            <circle id="Oval" fill-opacity="0.8" fill="#FFF1BE" cx="33.5" cy="33.5" r="27.5"></circle>
                            <path d="M28.524821,11.06322 C26.6760031,14.3476716 22.6957762,20.9290608 16.8128379,28.1039165 C9.01954354,37.6090652 13.7611608,51.9887176 25.6975094,54.9222875 C28.7367006,55.6691534 31.9495488,55.6692808 34.9889948,54.9222875 C38.5528522,54.0464847 41.6303931,52.1069523 43.9071746,49.3116201 C47.5296397,47.4582155 49.9283507,43.9399702 50.3304504,39.8768007 C50.3823055,39.3521344 50.4420599,38.8058088 50.5080572,38.2527305 C50.5704872,37.7287013 50.1964172,37.2532146 49.672388,37.1907846 C49.1482313,37.1279725 48.672872,37.5024247 48.6103146,38.0264539 C48.5429158,38.5921455 48.4816325,39.1514668 48.4285034,39.688619 C47.6564107,47.4922334 38.4042944,51.763078 31.8114385,46.1474417 L33.9538045,44.0050757 C35.7986728,45.5200845 37.9530152,46.1907604 40.1566645,45.9921313 C40.68235,45.9446081 41.0699252,45.4800784 41.0225294,44.9545203 C40.9751336,44.4289622 40.5094573,44.0421514 39.9849184,44.0887827 C38.3869669,44.2330086 36.7710509,43.785679 35.312866,42.6460142 L38.0608024,39.8980778 C39.5919921,41.1078171 41.3595237,41.6350315 43.1626021,41.4725863 C43.6882876,41.4250631 44.0758629,40.9605334 44.0284671,40.4349753 C43.9810713,39.9094172 43.5150127,39.5227338 42.9908561,39.5692377 C41.7845569,39.6785538 40.5630961,39.3667864 39.4257246,38.5331556 L42.1311067,35.8277735 C43.2530618,36.6399997 44.491213,36.9550798 45.7190442,36.8444896 C46.2447297,36.7969664 46.632305,36.3324367 46.5849092,35.8068786 C46.5375134,35.2813205 46.0722193,34.8946371 45.5472982,34.941141 C44.8608237,35.0030613 44.1579136,34.8513184 43.5067312,34.4522764 L46.5195489,31.4394588 C46.892727,31.0662806 46.892727,30.4612199 46.5195489,30.0881692 C46.1462433,29.7149911 45.54131,29.7149911 45.1681319,30.0881692 L42.1554416,33.1008595 C41.7797153,32.4893009 41.6005797,31.7898308 41.6664496,31.0604199 C41.7138454,30.5348617 41.3262702,30.0703321 40.8007121,30.0226815 C40.2752813,29.9751583 39.8106243,30.3627335 39.7629737,30.888419 C39.6507272,32.1315392 39.9770191,33.3680341 40.7796897,34.476484 L38.0743076,37.1818661 C37.2376191,36.0400353 36.9298013,34.8175553 37.0382255,33.6167346 C37.0856213,33.0911765 36.6980461,32.6266468 36.1723606,32.5791236 C35.6443817,32.5313456 35.1821454,32.9194304 35.1347496,33.4448611 C34.9744703,35.2222032 35.4842298,36.9962326 36.709258,38.5467883 L33.961449,41.2943424 C32.8182168,39.831316 32.3748368,38.2148904 32.5185531,36.62229 C32.5659489,36.0967319 32.1783737,35.6322022 31.6526881,35.584679 C31.12713,35.5379203 30.6624729,35.9248584 30.6150771,36.4504166 C30.4186139,38.6270553 31.0706882,40.7881503 32.6022602,42.6534039 L30.4598942,44.7956425 C27.5261969,41.3515486 27.2320117,37.0942093 28.9539312,33.6525362 C30.498244,30.5655671 33.4756422,28.5192667 36.918462,28.1787051 C43.2121638,27.5559346 48.3501474,26.3240264 51.014759,25.5923221 C50.5286973,27.3629114 49.8562377,30.0988715 49.2673578,33.5178659 C49.1779174,34.0379455 49.526888,34.5321613 50.0469676,34.6217291 C50.5664101,34.711297 51.0612629,34.3623264 51.1508307,33.8422468 C51.7590767,30.3094769 52.4572727,27.52765 52.9358172,25.8163054 C53.1048877,25.2117543 52.9342883,24.5605718 52.4906536,24.1169371 C52.0468914,23.6729201 51.3946897,23.5023207 50.7903934,23.6713912 C48.9991639,24.1722322 45.8554982,24.9633086 41.8812595,25.6050629 C37.0336388,19.3582472 33.7220493,13.8354913 32.1618106,11.063857 C31.7868488,10.3976405 31.1068721,10 30.3428062,10 C29.5792499,10 28.899528,10.3976405 28.524821,11.06322 L28.524821,11.06322 Z M30.3428062,11.9112479 C30.4110969,11.9112479 30.4628245,11.941571 30.4964603,12.0014527 C32.0114691,14.6925651 35.1490193,19.9340041 39.7165971,25.9261311 C38.6717239,26.0679362 37.6258314,26.1884642 36.7304077,26.2770128 C32.6305448,26.68268 29.0846519,29.1202504 27.2448799,32.7976284 C25.1895336,36.9060277 25.5332805,42.0502543 29.1051646,46.1507543 L26.3247391,48.9311797 C25.951561,49.3043578 25.951561,49.9094186 26.3247391,50.2824693 C26.6980447,50.6556474 27.3028506,50.6556474 27.6761561,50.2824693 L30.4564541,47.5021713 C33.2593034,49.9436913 36.6088605,50.9335243 39.9024854,50.538432 C38.3293785,51.7214156 36.5161074,52.578999 34.5326192,53.0664621 C31.7918177,53.7400684 28.8944317,53.7400684 26.1536302,53.0664621 C15.6064113,50.4743458 11.3730247,37.7527814 18.2906436,29.3156943 C24.265698,22.0285921 28.3107755,15.3395431 30.1901714,12.0008157 C30.2236797,11.9413161 30.2750251,11.9112479 30.3428062,11.9112479 L30.3428062,11.9112479 Z" id="Shape" fill="#DB0812" fill-rule="nonzero"></path>
                        </g>
                    </g>
                </g>
            </g>
        </g>
    </g>
</svg>