<?xml version="1.0" encoding="UTF-8"?>
<svg width="68px" height="68px" viewBox="0 0 68 68" version="1.1" xmlns="http://www.w3.org/2000/svg" xmlns:xlink="http://www.w3.org/1999/xlink">
    <title>vegetable</title>
    <g id="Design-v3" stroke="none" stroke-width="1" fill="none" fill-rule="evenodd">
        <g id="Saffola-Masala-Oats_Landing-Page_Mobile_v3" transform="translate(-249.000000, -2052.000000)">
            <g id="features" transform="translate(0.000000, 1514.000000)">
                <g id="pointers" transform="translate(0.000000, 381.000000)">
                    <g id="2" transform="translate(205.000000, 158.000000)">
                        <g id="vegetable" transform="translate(45.000000, 0.000000)">
                            <circle id="Oval" stroke="#FFF1BE" cx="33" cy="33" r="33"></circle>
                            <circle id="Oval" fill="#FFF1BE" opacity="0.800000012" cx="33.5" cy="33.5" r="27.5"></circle>
                            <path d="M55.320162,32.8935521 C55.2955323,32.8419259 55.2680952,32.7917262 55.2379773,32.7431849 C55.7125172,31.5402838 55.6649996,30.1902354 55.1070979,29.0247072 C54.5491963,27.8591789 53.5326156,26.9861887 52.3070998,26.6202048 C51.8507795,23.7271021 50.062244,21.2277234 47.4915303,19.8907146 C44.9208166,18.5537059 41.8757023,18.53914 39.2926664,19.8514964 C38.2794872,19.0516644 36.9795885,18.7246103 35.7152528,18.9514204 C34.4509171,19.1782305 33.3405323,19.937667 32.6593953,21.0414436 C32.2436048,21.0035925 31.8253493,21.0026309 31.4093939,21.0385696 C31.4622917,18.5761597 30.6234425,16.1794776 29.0515424,14.301935 C30.4026055,13.8919273 31.5719584,13.0200618 32.3608096,11.8345563 C32.5244057,11.5898916 32.56206,11.280391 32.4620097,11.002738 C32.3619594,10.7250851 32.1364021,10.5131296 31.8557987,10.4330834 L30.6298292,10.0833762 C29.5600607,9.77846897 28.4287191,9.77393927 27.3566099,10.0702708 L25.1963418,10.6680609 C25.5207934,9.50497036 26.1062594,8.43380464 26.9069177,7.53839976 C27.2438633,7.16259976 27.2166094,6.58094656 26.8460443,6.23924095 C26.4754792,5.89753534 25.9019285,5.92517427 25.5649828,6.30097424 C24.5750967,7.40781804 23.8513377,8.73204937 23.4503981,10.1699408 L21.9138271,8.5177409 C21.1513063,7.69808355 20.1835204,7.10392416 19.1138784,6.79874947 L17.8876823,6.44904225 C17.6070568,6.3689972 17.3055964,6.43064127 17.0774851,6.61471528 C16.8493738,6.7987893 16.7224257,7.08284869 16.7363026,7.37814603 C16.8001729,8.80601112 17.3493348,10.1674611 18.2905575,11.2313631 C14.8563697,12.3855818 12.3074126,15.3347263 11.6291198,18.9386493 C10.9508271,22.5425724 12.249498,26.2364819 15.0230629,28.5923024 C17.7966277,30.948123 21.6104248,31.59666 24.9900298,30.2871873 C25.0200697,30.3993879 25.0523768,30.5113586 25.0877446,30.6227544 C25.7817544,32.818506 27.4536429,34.5554021 29.6014432,35.311958 C29.594491,35.3641792 29.5919878,35.4169107 29.5939616,35.4695676 C29.682733,37.582281 29.2580256,39.6847321 28.3572231,41.591858 C26.3832099,40.1573431 23.959438,39.5057883 21.5439391,39.7603211 C21.1833685,39.7993011 20.8344315,39.6172856 20.656004,39.2971487 L17.7671824,32.9160842 C17.5654044,32.4704193 17.0543073,32.2637095 16.6054871,32.4462442 L12.3969489,34.1578782 C11.9459631,34.3411994 11.7175676,34.8524 11.8790151,35.3171312 L14.1782604,41.9343228 C14.2658238,42.2899972 14.137505,42.6645089 13.8513352,42.8884877 C10.9669527,45.1550979 9.53930993,48.8423883 10.1323912,52.4937102 L10.1518889,52.6144178 C10.490277,54.6754739 11.4685822,56.5731746 12.9443559,58.0312009 L13.0667828,58.1515636 C15.8894103,60.9254067 20.0562152,61.7573383 23.7050007,60.2755578 L26.2668971,59.2334487 C29.9133034,57.7476204 32.3570907,54.2260269 32.5053414,50.2436052 L32.5098757,50.1155402 C32.5670413,48.6299909 32.2918849,47.1505887 31.7050322,45.7882296 L38.6757708,49.4137116 C39.5670934,49.8772485 40.6601896,49.5202599 41.1172807,48.6163516 C42.1470268,46.5814891 43.6925313,44.8614254 45.5949314,43.6329663 C46.8090515,44.4954919 48.2550017,44.9592447 49.7373818,44.9615548 C52.5535638,44.9637885 55.1167332,43.3134792 56.3128428,40.7279117 C57.5089525,38.1423443 57.1219973,35.0884458 55.320162,32.8935521 Z M20.5944504,9.78034258 L23.2299163,12.6138677 C23.4598568,12.860923 23.8052992,12.9594305 24.1285071,12.8701127 L27.8339615,11.8451326 C28.5214449,11.6550635 29.2446206,11.640451 29.9390241,11.8025975 C29.1474012,12.429008 28.1643041,12.7541906 27.1607268,12.7215849 L26.2896821,12.6958339 C25.963136,12.6862054 25.6567205,12.8554351 25.48754,13.1388476 C25.3183595,13.4222601 25.3125643,13.7760484 25.4723691,14.0650032 C25.967306,14.954222 26.1996655,15.9690186 26.1417496,16.9884267 L26.127013,16.9783102 C25.4484937,16.510539 24.8860768,15.8896924 24.4838852,15.1644771 L23.9440733,14.1886997 C23.6989885,13.7457759 23.1462621,13.5881819 22.7094886,13.8366933 L21.7474172,14.3840161 C21.0313667,14.790208 20.2322873,15.0227141 19.4128041,15.0633126 L19.3951202,15.0641174 C19.8699114,14.1635521 20.5899979,13.4204039 21.4695761,12.9232241 C21.7545151,12.761115 21.9314444,12.4561031 21.9327351,12.1247755 C21.9340257,11.7934479 21.759478,11.487028 21.4758108,11.322641 L20.7192579,10.884185 C19.8462893,10.3811032 19.1745825,9.58390711 18.820734,8.63097614 C19.4963929,8.8598906 20.1057271,9.25473852 20.5944504,9.78034258 L20.5944504,9.78034258 Z M19.2245161,28.803978 C15.8404607,27.8375357 13.4464435,24.782724 13.2820514,21.2212792 C13.1176593,17.6598344 15.219811,14.3915796 18.5000435,13.1087689 C17.9105507,13.8602279 17.4755319,14.7238716 17.2206823,15.6486871 L17.1783997,15.8005488 C17.0993813,16.0851697 17.1601248,16.3909615 17.3416461,16.6223554 C17.5231674,16.8537493 17.8033247,16.9825203 18.0945611,16.9684237 L19.4989564,16.9004826 C20.5996005,16.8459977 21.6728451,16.5337317 22.6345588,15.9881629 L22.8058431,15.8907921 L22.9018575,16.0643811 C23.4420851,17.0383947 24.197447,17.8722639 25.1087159,18.5006057 L26.2723383,19.3008398 C26.5135482,19.4667531 26.8186908,19.5049844 27.0924647,19.4035932 C27.3662386,19.302202 27.5752752,19.0735464 27.6542886,18.7890395 L27.6965713,18.6368329 C27.9538027,17.7158781 28.0270291,16.75209 27.9119519,15.8020433 C29.1326992,17.410083 29.7246462,19.4187836 29.5741239,21.4424228 C26.6641455,22.4806248 24.7225795,25.2748825 24.7374676,28.4032288 C23.0017465,29.1831501 21.0521801,29.3248686 19.2245161,28.803978 Z M30.6283556,43.1608271 L29.8213582,42.7411095 C30.9207754,40.5633234 31.4683955,38.1422672 31.4148351,35.696268 C32.2160253,35.7590163 33.021938,35.6877882 33.800346,35.4854321 L33.751602,35.6752304 C33.2952651,37.4467523 32.6494085,39.1623995 31.825532,40.791624 L30.6283556,43.1608271 Z M30.6980709,50.047714 L30.6934232,50.1762389 C30.5949094,52.8108331 29.2620559,55.239428 27.1060882,56.7127288 L27.9417651,55.3880489 C29.7838762,52.4677628 29.2574203,48.6224167 26.7004924,46.3215273 L26.2502334,45.9164096 C26.0086306,45.6930931 25.6672116,45.6189261 25.3566077,45.7222858 C25.0460038,45.8256455 24.8142907,46.0905336 24.7501248,46.4156007 C24.685959,46.7406678 24.799272,47.0755994 25.0467089,47.2922465 L25.4968545,47.6972493 C27.3863324,49.3974401 27.7753408,52.2389794 26.4140361,54.3968669 L25.6318642,55.6369365 L25.6935311,52.9721722 C25.7134391,52.1539726 25.5682812,51.3402764 25.266964,50.5810118 C24.784567,49.3689731 23.9299479,48.3468004 22.8297617,47.6659803 C22.401693,47.4022727 21.8438754,47.540416 21.5838412,47.9745319 C21.3238071,48.4086479 21.460026,48.9743457 21.8880947,49.2380533 C22.6532729,49.7116404 23.2476164,50.4226572 23.5830272,51.2657113 C23.7926157,51.7938371 23.8935672,52.3598289 23.8796858,52.9289474 L23.7916064,56.7341113 L21.1350559,54.0452054 C20.7372654,53.6434963 20.42458,53.1636174 20.216174,52.6349956 C19.88424,51.7905148 19.8294251,50.8600502 20.059853,49.9814973 C20.147361,49.6629474 20.0594968,49.3212772 19.8297306,49.0866394 C19.5999643,48.8520016 19.2636726,48.7605229 18.9489594,48.8470503 C18.6342461,48.9335777 18.3895671,49.1847888 18.308128,49.5049896 C17.9768201,50.767971 18.0556452,52.1056032 18.5329174,53.3195802 C18.8324236,54.0795173 19.2818579,54.7693929 19.8536543,55.3468934 L21.7139765,57.2301621 L20.3034598,56.8818344 C17.849134,56.2759091 16.1942721,53.9492218 16.4017824,51.3961905 L16.4512066,50.7879391 C16.4812506,50.4586057 16.3346059,50.138275 16.0671516,49.949009 C15.7996972,49.7597429 15.452628,49.7306933 15.1581947,49.8729296 C14.8637613,50.0151659 14.6673141,50.3067799 14.6437093,50.6366522 L14.5942851,51.2450186 C14.3134518,54.7000862 16.55294,57.8488653 19.8743989,58.6689969 L21.38127,59.0411213 C18.817714,59.4877249 16.1979008,58.6669064 14.3294803,56.831712 L14.2070534,56.7113493 C13.0103242,55.5288389 12.2169788,53.9898502 11.9424957,52.3183967 L11.9227714,52.1961946 C11.437799,49.2106155 12.6051291,46.1956128 14.9636063,44.3422673 C15.8403733,43.6559995 16.2187467,42.4987949 15.9200098,41.4172343 C15.9144553,41.3971164 15.908674,41.3771134 15.9014191,41.3574553 L13.8789946,35.5370489 L14.3550992,35.343227 L16.0430035,39.6111035 C16.9928908,42.0301298 16.7709659,44.7606734 15.4433384,46.9893279 C15.2720896,47.2702539 15.262528,47.6227317 15.4182882,47.9127808 C15.5740484,48.2028299 15.8712099,48.3859068 16.1968185,48.3924219 C16.5224271,48.3989371 16.8264783,48.22789 16.9933991,47.9442975 C17.8564671,46.4978635 18.3489257,44.8554083 18.4259072,43.1665751 C19.6322482,44.3336183 21.1074212,45.1759207 22.7169702,45.6167098 C23.0301699,45.7026023 23.3647557,45.6122654 23.5943811,45.379812 C23.8240064,45.1473587 23.913683,44.8082083 23.829547,44.4904311 C23.745411,44.1726539 23.5002824,43.9246701 23.1867268,43.8401236 C20.7084697,43.1594795 18.6875929,41.3410347 17.7262601,38.9266338 L17.7262601,38.9266338 L16.0384692,34.6587573 L16.4790927,34.4795353 L19.0211514,40.0949686 C19.0287086,40.1121359 19.0370215,40.1290733 19.0460902,40.1457807 C19.567278,41.1367948 20.6291474,41.7081304 21.7305268,41.5901336 C24.6977824,41.2771085 27.5955721,42.6382404 29.2791657,45.1358336 L29.3104526,45.1823923 C30.2785106,46.609838 30.7651724,48.316609 30.6977308,50.047714 L30.6980709,50.047714 Z M38.2817375,44.1490201 L37.0835409,46.5182233 L35.4696595,45.6790179 L37.5387876,41.5872596 C37.6898512,41.2945257 37.6744673,40.9421102 37.4984873,40.6640588 C37.3225073,40.3860074 37.0129783,40.2250548 36.6876333,40.2424212 C36.3622883,40.2597877 36.0711309,40.4528041 35.9249062,40.7480543 L33.8557782,44.8394677 L32.2418968,44.0002624 L33.4399801,41.6310592 C34.3239585,39.8824022 35.0168369,38.0410058 35.5062742,36.1396674 L35.8657332,34.7424479 C35.8801441,34.6859669 35.8892533,34.6282298 35.8929392,34.5700085 C36.1087992,34.4311731 36.3172198,34.2807848 36.5173164,34.1194817 C37.0745901,34.765897 37.7180973,35.3302746 38.4292166,35.7962829 L37.5802767,37.4746936 C37.427217,37.7676263 37.4414624,38.1214286 37.6175623,38.4007311 C37.7936622,38.6800335 38.1043595,38.8416049 38.4307772,38.823626 C38.7571948,38.805647 39.0488092,38.6109004 39.1940447,38.3138989 L40.0429846,36.6354883 C40.8311244,36.9491704 41.6585689,37.1497933 42.5013849,37.231554 C42.4895339,37.4820465 42.490442,37.7329924 42.5041055,37.98339 L41.4733389,39.2433476 C40.2364082,40.7557882 39.1661511,42.4007758 38.2816242,44.1490201 L38.2817375,44.1490201 Z M39.5044196,47.7772612 L38.6975356,47.3575436 L39.8955055,44.9884554 C40.7197048,43.3595113 41.7168992,41.8267455 42.8693457,40.4174304 L42.9930196,40.2662584 C43.2850519,41.0254518 43.6982423,41.730757 44.2160417,42.3539254 C42.2253574,43.7364156 40.6059462,45.600402 39.5043062,47.7772612 L39.5044196,47.7772612 Z M54.5878677,40.1187652 C53.2167596,42.8305955 49.9375121,43.9017704 47.2634514,42.5113052 C45.1075777,41.381897 43.9448436,38.9455629 44.4089774,36.5301852 C44.4618043,36.2601853 44.3925991,35.9803842 44.2203699,35.7676329 C44.0481407,35.5548815 43.7909978,35.4315512 43.5195686,35.431516 L43.5002977,35.431516 C41.0607775,35.4798477 38.7602511,34.2830424 37.3758918,32.2454097 C37.2202872,32.0156759 36.9703485,31.8698965 36.6962924,31.8490262 C36.4222362,31.8281559 36.1536326,31.9344466 35.9659419,32.1380374 C34.3025555,33.9296429 31.6731301,34.3936529 29.5107566,33.2771724 C26.83708,31.8861947 25.7814556,28.5605817 27.1529051,25.8490556 C28.2595474,23.6819797 30.6326847,22.5028198 32.99947,22.9440256 C33.0748883,22.9456059 33.1494139,22.9609085 33.2194983,22.9892047 C34.1731452,23.2147647 35.0498863,23.6950518 35.7587231,24.3802163 C36.1206485,24.7313185 36.6947068,24.7183998 37.0409182,24.3513614 C37.3871295,23.9843231 37.3743907,23.4021552 37.0124652,23.051053 C36.3190662,22.3792203 35.5013229,21.8533161 34.6064365,21.5036963 C35.1310939,20.9851503 35.8396969,20.7029428 36.5720931,20.7208559 C37.3044893,20.7387689 37.9988536,21.0552904 38.4982518,21.5988829 C38.789535,21.9166056 39.2601446,21.9846894 39.6274133,21.7622405 C41.7758582,20.4570145 44.4362728,20.3681435 46.6647582,21.5271583 C48.8932435,22.6861732 50.3744751,24.9290765 50.5829209,27.4600999 C50.6190473,27.8923974 50.9481628,28.2402968 51.3725745,28.2948218 C52.0928428,28.3880517 52.7465453,28.7692058 53.1883759,29.3535607 C53.6302066,29.9379155 53.8235531,30.6770486 53.7254382,31.4066642 C53.5264945,31.296188 53.3078264,31.1836425 53.0579849,31.0537381 C51.8859799,30.4432088 50.5719871,30.168367 49.2574229,30.2587922 C48.9341802,30.2812581 48.64731,30.4769016 48.5048736,30.7720256 C48.3624372,31.0671496 48.3860742,31.4169178 48.5668806,31.689576 C48.747687,31.9622341 49.0581941,32.1163588 49.3814369,32.0938929 C50.8932219,31.9923479 52.3786118,32.532602 53.4821714,33.5853792 C53.4894263,33.5929666 53.4962278,33.6008988 53.5038228,33.6083711 C53.6645512,33.7637653 53.8155727,33.929168 53.9560089,34.1036173 L53.9572558,34.1051117 C55.3192497,35.8078151 55.5662909,38.1636548 54.5878677,40.1187652 Z" id="Shape" fill="#DB0812" fill-rule="nonzero"></path>
                            <path d="M16.9094648,19.1727159 C16.9999747,18.8573759 16.9205411,18.5155776 16.7016803,18.2786308 C16.4828195,18.0416839 16.1585725,17.9464424 15.8535062,18.0294955 C15.5484398,18.1125487 15.3100033,18.3609786 15.2297974,18.6793452 C14.9025025,19.8869233 14.9252752,21.168699 15.295239,22.36277 C15.3894112,22.6747314 15.6365034,22.9100436 15.9426466,22.9793127 C16.2487899,23.0485818 16.567001,22.9411774 16.7763935,22.6979016 C16.9857859,22.4546259 17.0542246,22.112814 16.9557102,21.8023182 C16.6916937,20.9498296 16.6756007,20.0347516 16.9094648,19.1727159 Z" id="Path" fill="#DB0812" fill-rule="nonzero"></path>
                            <path d="M20.2256993,24.9470661 C19.6574867,24.7874053 19.1205812,24.5315552 18.6381053,24.1905345 C18.3345736,23.9757762 17.9399823,23.9399102 17.6029702,24.096447 C17.265958,24.2529837 17.037725,24.5781414 17.0042445,24.9494364 C16.970764,25.3207314 17.1371224,25.681755 17.440654,25.8965133 C18.1157697,26.3739857 18.8670812,26.7323058 19.6622463,26.9560489 C20.0219645,27.0642901 20.4118645,26.9692951 20.6821572,26.7075585 C20.9524499,26.4458219 21.0610948,26.0580534 20.9663535,25.6932232 C20.8716122,25.3283929 20.5882205,25.0432456 20.2250497,24.947327 L20.2256993,24.9470661 Z" id="Path" fill="#DB0812" fill-rule="nonzero"></path>
                        </g>
                    </g>
                </g>
            </g>
        </g>
    </g>
</svg>