<?xml version="1.0" encoding="UTF-8"?>
<svg width="67px" height="67px" viewBox="0 0 67 67" version="1.1" xmlns="http://www.w3.org/2000/svg" xmlns:xlink="http://www.w3.org/1999/xlink">
    <title>weight</title>
    <g id="Design-v3" stroke="none" stroke-width="1" fill="none" fill-rule="evenodd">
        <g id="Saffola-Masala-Oats_Landing-Page_Desktop_v3" transform="translate(-399.000000, -1995.000000)">
            <g id="features" transform="translate(0.000000, 1567.000000)">
                <g id="icons" transform="translate(140.000000, 255.000000)">
                    <g id="5" transform="translate(213.000000, 173.000000)">
                        <g id="weight" transform="translate(46.000000, 0.000000)">
                            <circle id="Oval" stroke="#FFF1BE" cx="33.5" cy="33.5" r="33"></circle>
                            <circle id="Oval" fill-opacity="0.8" fill="#FFF1BE" cx="33.5" cy="33.5" r="27.5"></circle>
                            <path d="M50.7094935,12 L17.2677792,12 C14.6283315,12 12.4886364,14.1396951 12.4886364,16.7791429 L12.4886364,50.2208571 C12.4886364,52.8603049 14.6283315,55 17.2677792,55 L50.7094935,55 C53.3489412,55 55.4886364,52.8603049 55.4886364,50.2208571 L55.4886364,16.7791429 C55.4886364,14.1396951 53.3489412,12 50.7094935,12 Z M53.1666364,50.2208571 C53.1666364,51.5778997 52.066536,52.678 50.7094935,52.678 L17.2677792,52.678 C15.9347852,52.6446648 14.8716482,51.5542678 14.8720648,50.2208571 L14.8720648,16.7791429 C14.9044125,15.4696592 15.9582956,14.4157762 17.2677792,14.3834284 L50.7094935,14.3834284 C52.0429042,14.3830118 53.1333012,15.4461489 53.1666364,16.7791429 L53.1666364,50.2208571 Z" id="Shape" fill="#DB0812" fill-rule="nonzero"></path>
                            <path d="M46.0128021,18.8409091 L21.9644707,18.8409091 C19.9695088,18.8409091 18.3522727,20.419296 18.3522727,22.3663349 L18.3522727,25.3001653 C18.3545075,31.2886807 23.2058136,36.2047351 29.337313,36.4318182 L38.6399597,36.4318182 C44.7714591,36.2047351 49.6227652,31.2886807 49.625,25.3001653 L49.625,22.3663349 C49.625,21.4313339 49.2444302,20.534628 48.5670117,19.8734824 C47.8895932,19.2123368 46.9708165,18.8409091 46.0128021,18.8409091 Z M33.3453682,34.1016566 L31.922756,34.1016566 L31.922756,34.0050696 C32.2602614,33.4776651 32.8067235,33.1104509 33.431962,32.990906 C33.6110682,32.9299917 33.798993,32.8973854 33.9886364,32.8943176 L34.0999712,32.8943176 C34.5398235,32.8938445 34.9700768,33.0198199 35.3370253,33.2565202 C35.6560393,33.4564128 35.9195048,33.7301388 36.1039988,34.0533631 L33.3453682,34.1016566 Z M47.2127445,25.3001653 C47.2376375,30.0036763 43.4543252,33.8879205 38.6399597,34.1016566 C38.4483778,33.3570056 38.0602537,32.6743321 37.5142405,32.1216229 L39.9883487,28.2822893 C40.1689129,27.7583879 39.961881,27.1817205 39.4857635,26.8823866 C39.0096459,26.5830527 38.3860551,26.6375096 37.9719505,27.0145848 L35.4978423,30.841845 C33.4143941,30.1622261 31.1243823,30.9536853 29.9434695,32.7615118 C29.671376,33.1748153 29.4668747,33.6269451 29.337313,34.1016566 C24.5325548,33.888298 20.7529326,30.0184882 20.7645016,25.3243121 L20.7645016,22.3663349 C20.7645016,21.6995408 21.3183762,21.1589973 22.0015823,21.1589973 L23.2386364,21.1589973 L23.2386364,23.5374524 C23.1134001,24.0251474 23.3109459,24.5375391 23.7345276,24.823688 C24.1581092,25.109837 24.7190484,25.109837 25.1426301,24.823688 C25.5662117,24.5375391 25.7637576,24.0251474 25.6385213,23.5374524 L25.6385213,21.1952174 L28.0384062,21.1952174 L28.0384062,23.5374524 C28.1666855,24.0868006 28.667232,24.4765138 29.2445339,24.4765138 C29.8218359,24.4765138 30.3223824,24.0868006 30.4506617,23.5374524 L30.4506617,21.1952174 L32.7515823,21.1952174 L32.7515823,23.5374524 C32.8798616,24.0868006 33.380408,24.4765138 33.95771,24.4765138 C34.535012,24.4765138 35.0355584,24.0868006 35.1638377,23.5374524 L35.1638377,21.1952174 L37.5637227,21.1952174 L37.5637227,23.5374524 C37.692002,24.0868006 38.1925484,24.4765138 38.7698504,24.4765138 C39.3471524,24.4765138 39.8476988,24.0868006 39.9759781,23.5374524 L39.9759781,21.1952174 L42.3758631,21.1952174 L42.3758631,23.5374524 C42.3758631,24.2042466 42.929711,24.74479 43.6129171,24.74479 C44.2961233,24.74479 44.8499712,24.2042466 44.8499712,23.5374524 L44.8499712,21.1952174 L46.0870253,21.1952174 C46.7702314,21.1952174 47.3240794,21.7357609 47.3240794,22.4025551 L47.2127445,25.3001653 Z" id="Shape" fill="#DB0812" fill-rule="nonzero"></path>
                        </g>
                    </g>
                </g>
            </g>
        </g>
    </g>
</svg>