<?xml version="1.0" encoding="UTF-8"?>
<svg width="13px" height="15px" viewBox="0 0 13 15" version="1.1" xmlns="http://www.w3.org/2000/svg" xmlns:xlink="http://www.w3.org/1999/xlink">
    <title>chronometer</title>
    <g id="Design-v3" stroke="none" stroke-width="1" fill="none" fill-rule="evenodd">
        <g id="ipad-1" transform="translate(-205.000000, -4381.000000)" fill="#FFFFFF" fill-rule="nonzero">
            <g id="recipes" transform="translate(-255.000000, 3634.000000)">
                <g id="1" transform="translate(281.000000, 285.000000)">
                    <g id="time" transform="translate(179.000000, 459.000000)">
                        <g id="chronometer" transform="translate(0.000000, 3.000000)">
                            <path d="M11.0965091,3.35216304 C9.96923465,2.22257609 8.50073696,1.55940652 6.92391489,1.45834565 L6.92391489,0.847826087 L7.54565672,0.847826087 C7.77977078,0.847826087 7.96957161,0.658026087 7.96957161,0.423913043 C7.96957161,0.1898 7.77977078,0 7.54565672,0 L5.45434328,0 C5.22022922,0 5.03042839,0.1898 5.03042839,0.423913043 C5.03042839,0.658026087 5.22022922,0.847826087 5.45434328,0.847826087 L6.07608511,0.847826087 L6.07608511,1.45834565 C4.99490433,1.5276413 3.96476289,1.86126087 3.06055244,2.42837174 L2.65786156,2.02486304 C2.46187157,1.82847826 2.20116392,1.72035217 1.92372576,1.72035217 C1.64628759,1.72035217 1.38557994,1.82850652 1.18961822,2.02486304 L0.577174249,2.63863261 C0.174031191,3.04256522 0.174031191,3.69985652 0.577174249,4.10381739 L0.982606446,4.51009565 C0.342692794,5.53401522 0,6.71905 0,7.95696087 C0,9.69636087 0.676002939,11.3317326 1.90349088,12.5617587 C3.13120492,13.7920109 4.76361636,14.4695652 6.5,14.4695652 C8.23638364,14.4695652 9.86879508,13.7920109 11.0965091,12.5617587 C12.3239971,11.3317326 13,9.69636087 13,7.95696087 C13,6.21756087 12.3239971,4.58218913 11.0965091,3.35216304 Z M1.17729642,3.23753696 L1.78976865,2.62379565 C1.83803843,2.5754413 1.89441911,2.56820652 1.92375402,2.56820652 C1.95308893,2.56820652 2.00949787,2.57541304 2.05776764,2.62379565 L2.36496463,2.93161304 C2.20565742,3.06367609 2.05157849,3.20382174 1.90351915,3.3521913 C1.75588372,3.50013696 1.61641572,3.65407391 1.48497385,3.81323913 L1.17729642,3.5049413 C1.1037048,3.4312087 1.1037048,3.3112413 1.17729642,3.23753696 Z M6.5,13.6217391 C3.38337775,13.6217391 0.847829773,11.0805217 0.847829773,7.95696087 C0.847829773,4.8334 3.38337775,2.29218261 6.5,2.29218261 C9.61662225,2.29218261 12.1521702,4.83337174 12.1521702,7.95696087 C12.1521702,11.08055 9.61662225,13.6217391 6.5,13.6217391 Z" id="Shape"></path>
                            <path d="M6.5,3.01449275 C3.89336399,3.01449275 1.77272727,5.17816553 1.77272727,7.83768116 C1.77272727,10.4971968 3.89336399,12.6608696 6.5,12.6608696 C9.10663601,12.6608696 11.2272727,10.4971968 11.2272727,7.83768116 C11.2272727,5.17816553 9.10663601,3.01449275 6.5,3.01449275 Z M6.91225976,11.7989942 L6.91225976,11.3082732 C6.91225976,11.0764171 6.72767732,10.8884469 6.5,10.8884469 C6.27232268,10.8884469 6.08774024,11.0764171 6.08774024,11.3082732 L6.08774024,11.7989942 C4.264013,11.6026554 2.81082483,10.1191012 2.61890417,8.25750746 L3.09198599,8.25750746 C3.31966331,8.25750746 3.50424575,8.06953723 3.50424575,7.83768116 C3.50424575,7.60582509 3.31966331,7.41785486 3.09198599,7.41785486 L2.61890417,7.41785486 C2.81082483,5.5562611 4.264013,4.07270692 6.08774024,3.87636815 L6.08774024,4.36708912 C6.08774024,4.59894519 6.27232268,4.78691541 6.5,4.78691541 C6.72767732,4.78691541 6.91225976,4.59894519 6.91225976,4.36708912 L6.91225976,3.87636815 C8.735987,4.07270692 10.1891752,5.5562611 10.3810958,7.41785486 L9.90801401,7.41785486 C9.68033669,7.41785486 9.49575425,7.60582509 9.49575425,7.83768116 C9.49575425,8.06953723 9.68033669,8.25750746 9.90801401,8.25750746 L10.3810958,8.25750746 C10.1891752,10.1191012 8.735987,11.6026554 6.91225976,11.7989942 Z" id="Shape"></path>
                            <path d="M7.27991212,7.58473273 L6.71290304,7.58473273 L6.71290304,5.85401045 C6.71290304,5.61768257 6.5329563,5.42608696 6.31099697,5.42608696 C6.08903765,5.42608696 5.90909091,5.61768257 5.90909091,5.85401045 L5.90909091,8.01265622 C5.90909091,8.2489841 6.08903765,8.44057971 6.31099697,8.44057971 L7.27991212,8.44057971 C7.50187144,8.44057971 7.68181818,8.2489841 7.68181818,8.01265622 C7.68181818,7.77632834 7.50187144,7.58473273 7.27991212,7.58473273 Z" id="Path"></path>
                        </g>
                    </g>
                </g>
            </g>
        </g>
    </g>
</svg>