<?xml version="1.0" encoding="UTF-8"?>
<svg width="25px" height="25px" viewBox="0 0 25 25" version="1.1" xmlns="http://www.w3.org/2000/svg" xmlns:xlink="http://www.w3.org/1999/xlink">
    <title>close</title>
    <g id="Design-v3" stroke="none" stroke-width="1" fill="none" fill-rule="evenodd">
        <g id="Saffola-Masala-Oats_hamburger" transform="translate(-315.000000, -64.000000)" fill="#FCC517" fill-rule="nonzero">
            <g id="nav-bar" transform="translate(19.971767, 36.000000)">
                <path d="M309.790374,40.5001853 L319.524872,30.7651892 C320.158376,30.1319681 320.158376,29.108137 319.524872,28.4749159 C318.891664,27.8416947 317.867854,27.8416947 317.234646,28.4749159 L307.499852,38.2099121 L297.765354,28.4749159 C297.13185,27.8416947 296.108336,27.8416947 295.475128,28.4749159 C294.841624,29.108137 294.841624,30.1319681 295.475128,30.7651892 L305.209626,40.5001853 L295.475128,50.2351816 C294.841624,50.8684027 294.841624,51.8922338 295.475128,52.5254549 C295.790694,52.841324 296.205616,53 296.620241,53 C297.034866,53 297.449492,52.841324 297.765354,52.5254549 L307.499852,42.7904587 L317.234646,52.5254549 C317.550508,52.841324 317.965134,53 318.379759,53 C318.794384,53 319.209009,52.841324 319.524872,52.5254549 C320.158376,51.8922338 320.158376,50.8684027 319.524872,50.2351816 L309.790374,40.5001853 Z" id="close"></path>
            </g>
        </g>
    </g>
</svg>