<?xml version="1.0" encoding="UTF-8"?>
<svg width="15px" height="11px" viewBox="0 0 15 11" version="1.1" xmlns="http://www.w3.org/2000/svg" xmlns:xlink="http://www.w3.org/1999/xlink">
    <title>food1</title>
    <g id="Design-v3" stroke="none" stroke-width="1" fill="none" fill-rule="evenodd">
        <g id="Saffola-Masala-Oats_Landing-Page_Mobile_v3" transform="translate(-122.000000, -3660.000000)" fill="#FFFFFF" fill-rule="nonzero">
            <g id="recipes" transform="translate(0.000000, 3120.000000)">
                <g id="1" transform="translate(15.000000, 204.000000)">
                    <g transform="translate(107.000000, 331.000000)" id="food1">
                        <g transform="translate(0.000000, 5.000000)">
                            <path d="M13.6816406,10.7226562 L1.31835938,10.7226562 C0.591416016,10.7226562 0,10.1469694 0,9.43935962 L0,9.32528881 C0,8.61767905 0.591416016,8.04199219 1.31835938,8.04199219 L13.6816406,8.04199219 C14.408584,8.04199219 15,8.61767905 15,9.32528881 L15,9.43935962 C15,10.1469694 14.408584,10.7226562 13.6816406,10.7226562 Z M1.31835938,8.89752327 C1.07604492,8.89752327 0.87890625,9.08941889 0.87890625,9.32528881 L0.87890625,9.43935962 C0.87890625,9.67522954 1.07604492,9.86712517 1.31835938,9.86712517 L13.6816406,9.86712517 C13.9239551,9.86712517 14.1210938,9.67522954 14.1210938,9.43935962 L14.1210938,9.32528881 C14.1210938,9.08941889 13.9239551,8.89752327 13.6816406,8.89752327 L1.31835938,8.89752327 Z" id="Shape"></path>
                            <path d="M9.09234753,0.670166016 L5.22583429,0.670166016 C4.97559839,0.670166016 4.77272727,0.520138184 4.77272727,0.335083008 C4.77272727,0.150027832 4.97559839,0 5.22583429,0 L9.09234753,0 C9.34258343,0 9.54545455,0.150027832 9.54545455,0.335083008 C9.54545455,0.520138184 9.34258343,0.670166016 9.09234753,0.670166016 Z" id="Path"></path>
                            <path d="M8.42843327,2.68066406 L6.57156673,2.68066406 C6.33121857,2.68066406 6.13636364,2.48913917 6.13636364,2.25289852 L6.13636364,0.427765542 C6.13636364,0.191524892 6.33121857,0 6.57156673,0 L8.42843327,0 C8.66878143,0 8.86363636,0.191524892 8.86363636,0.427765542 L8.86363636,2.25289852 C8.86363636,2.48913917 8.66878143,2.68066406 8.42843327,2.68066406 Z M7.00676983,1.82513298 L7.99323017,1.82513298 L7.99323017,0.855531084 L7.00676983,0.855531084 L7.00676983,1.82513298 Z" id="Shape"></path>
                            <path d="M13.2006726,8.7121582 L1.11750917,8.7121582 C0.876891561,8.7121582 0.681818182,8.52304749 0.681818182,8.28978466 C0.681818182,6.61253934 1.35557073,5.03567813 2.57896199,3.84965323 C3.80235324,2.66362833 5.42896199,2.01049805 7.15909091,2.01049805 C8.88921983,2.01049805 10.5157995,2.66365649 11.7392198,3.84965323 C12.9626401,5.03564997 13.6363636,6.61253934 13.6363636,8.28978466 C13.6363636,8.52304749 13.4412903,8.7121582 13.2006726,8.7121582 Z M1.56995974,7.86741112 L12.7482221,7.86741112 C12.5251483,5.06741246 10.1036068,2.85524513 7.15909091,2.85524513 C4.21457501,2.85524513 1.79300448,5.06741246 1.56995974,7.86741112 Z" id="Shape"></path>
                        </g>
                    </g>
                </g>
            </g>
        </g>
    </g>
</svg>