<?xml version="1.0" encoding="UTF-8"?>
<svg width="24px" height="25px" viewBox="0 0 24 25" version="1.1" xmlns="http://www.w3.org/2000/svg" xmlns:xlink="http://www.w3.org/1999/xlink">
    <title>hamburger icon</title>
    <g id="Design-v3" stroke="none" stroke-width="1" fill="none" fill-rule="evenodd">
        <g id="Saffola-Masala-Oats_Landing-Page_Mobile_v3.1" transform="translate(-316.000000, -64.000000)" fill="#DB0812">
            <g id="nav-bar" transform="translate(19.971767, 36.000000)">
                <path d="M317.528233,48 C318.908944,48 320.028233,49.1192881 320.028233,50.5 C320.028233,51.8807119 318.908944,53 317.528233,53 L298.528233,53 C297.147521,53 296.028233,51.8807119 296.028233,50.5 C296.028233,49.1192881 297.147521,48 298.528233,48 L317.528233,48 Z M317.528233,38 C318.908944,38 320.028233,39.1192881 320.028233,40.5 C320.028233,41.8807119 318.908944,43 317.528233,43 L298.528233,43 C297.147521,43 296.028233,41.8807119 296.028233,40.5 C296.028233,39.1192881 297.147521,38 298.528233,38 L317.528233,38 Z M317.528233,28 C318.908944,28 320.028233,29.1192881 320.028233,30.5 C320.028233,31.8807119 318.908944,33 317.528233,33 L298.528233,33 C297.147521,33 296.028233,31.8807119 296.028233,30.5 C296.028233,29.1192881 297.147521,28 298.528233,28 L317.528233,28 Z" id="hamburger-icon"></path>
            </g>
        </g>
    </g>
</svg>