<?xml version="1.0" encoding="UTF-8"?>
<svg width="19px" height="19px" viewBox="0 0 19 19" version="1.1" xmlns="http://www.w3.org/2000/svg" xmlns:xlink="http://www.w3.org/1999/xlink">
    <title>insta</title>
    <g id="Design-v3" stroke="none" stroke-width="1" fill="none" fill-rule="evenodd">
        <g id="Saffola-Masala-Oats_Landing-Page_Mobile_v3.2" transform="translate(-172.000000, -4555.000000)" fill="#FFFFFF" fill-rule="nonzero">
            <g id="footer" transform="translate(0.000000, 4410.000000)">
                <g id="social-icons" transform="translate(124.000000, 145.000000)">
                    <path d="M58.7625786,0.00121491089 C60.2334838,0.00545823553 60.602174,0.0202404938 61.4238229,0.0592364818 C62.4335618,0.103747579 63.1241229,0.267003248 63.7291252,0.500867683 C64.3602301,0.738356827 64.9356493,1.11329385 65.4108632,1.59581144 C65.8972432,2.07093467 66.2684814,2.64247445 66.5097863,3.28085335 C66.7436953,3.88226045 66.9069821,4.57631446 66.9515017,5.58586073 C66.9617755,5.81970287 66.9698792,6.01677658 66.9762672,6.2133009 L66.9821002,6.41098353 C66.9926898,6.81134832 66.9970228,7.25780758 66.9987349,8.04011354 L66.9995843,8.69434165 C66.9996367,8.77503655 66.9996772,8.85856677 66.9997079,8.94509997 L66.9997409,9.78947686 C66.9997066,9.88218373 66.9996545,9.97171992 66.9995834,10.0582531 L66.998918,10.5427579 C66.9955665,12.1969811 66.9817764,12.5600712 66.944106,13.4174924 C66.8995864,14.4270386 66.7361546,15.1174679 66.5023905,15.7224997 C66.0086147,16.9992575 64.9988758,18.0088038 63.7217294,18.5024854 C63.1203525,18.7363499 62.4261661,18.8996055 61.4164272,18.9441166 C61.1825404,18.9544219 60.9854291,18.9629358 60.7888673,18.9699363 L60.5911469,18.9764428 C60.1239655,18.9904954 59.5940325,18.996813 58.5411442,18.9989269 L58.0565469,18.9995858 C57.8834475,18.9997265 57.6983338,18.9997917 57.4998642,18.9997917 L57.2120083,18.9997415 C57.1192834,18.9997076 57.0297295,18.9996562 56.943179,18.9995858 L56.4585755,18.9989269 C55.2552534,18.9965111 54.7349454,18.9886045 54.2108017,18.9699363 L54.0127265,18.962421 C53.8787678,18.9570608 53.7392034,18.9509868 53.5833012,18.9441166 C52.5734173,18.8996055 51.8830012,18.7363499 51.277854,18.5024854 C50.646749,18.2649963 50.0713298,17.8900592 49.5961159,17.4075417 C49.1135063,16.9324184 48.7386427,16.3608786 48.4973379,15.7224997 C48.2634288,15.1210926 48.099997,14.4270386 48.0554774,13.4174924 C48.0195193,12.5990449 48.0053198,12.2310106 48.0011883,10.7604986 L48.0012151,8.24282771 C48.0054593,6.77220308 48.0202444,6.40358328 48.0592478,5.58209108 C48.1037674,4.57254481 48.2670542,3.88226045 48.5009633,3.27722864 C48.7386427,2.6462441 49.1135063,2.07093467 49.5961159,1.59581144 C50.0713298,1.1095242 50.6429787,0.738356827 51.2816243,0.497098033 C51.8830012,0.263378539 52.5771877,0.0999779287 53.5869266,0.0554668317 C54.4055302,0.0195155611 54.7736347,0.0053188254 56.2444273,0.00118810125 Z M58.5346261,1.72659351 L56.4886654,1.72659351 C55.3087612,1.72903051 54.8040559,1.73698771 54.2902683,1.75563478 L54.0958357,1.76313861 C53.9641481,1.76848869 53.826547,1.77454727 53.6723404,1.78139513 C52.7480152,1.82228152 52.2430733,1.97814283 51.9089589,2.10805141 C51.4968265,2.26014307 51.1255883,2.50140186 50.8175766,2.81689413 C50.4982538,3.12136733 50.2569489,3.49615942 50.1046833,3.90821318 C49.9747499,4.24226382 49.8188589,4.74333978 49.7781096,5.67125822 C49.7678024,5.90165413 49.7592869,6.09508858 49.752285,6.2875062 L49.7457773,6.48091617 C49.7297141,7.00287241 49.7237556,7.60279998 49.7226298,8.96231559 L49.7226298,10.0557669 C49.7238964,11.584881 49.7312793,12.1513105 49.752285,12.7292167 L49.7598017,12.9236135 C49.765163,13.0552764 49.7712382,13.1928513 49.7781096,13.3470285 C49.8188589,14.2711773 49.9747499,14.7760229 50.1046833,15.1100736 C50.2569489,15.5219824 50.4982538,15.8931498 50.8138062,16.2012477 C51.1181926,16.51674 51.4932011,16.7579988 51.9051885,16.9102354 C52.2393029,17.0401439 52.7404745,17.1960052 53.66857,17.2367467 C54.5520511,17.2762501 54.892187,17.2894311 56.7141789,17.2919469 L58.3002075,17.2919469 C60.1215613,17.2894311 60.4591168,17.2762501 61.3458049,17.2367467 C62.270275,17.1960052 62.775072,17.0401439 63.1091864,16.9102354 C63.9370765,16.5909734 64.5941392,15.9340362 64.913462,15.1063039 C65.0433954,14.7722533 65.1992864,14.2711773 65.2401806,13.3432589 C65.277851,12.4952842 65.2916412,12.1522289 65.2949927,10.5309127 L65.295658,10.0557034 C65.2958003,9.88584303 65.2958663,9.70407877 65.2958663,9.50907091 L65.2958155,9.22630868 C65.2957812,9.13524877 65.2957291,9.04732735 65.295658,8.96237736 L65.2949927,8.48699813 C65.2916412,6.86488341 65.277851,6.51923292 65.2401806,5.67125822 C65.1992864,4.74696449 65.0433954,4.24226382 64.913462,3.90821318 C64.7611964,3.49615942 64.5198915,3.12499204 64.2043391,2.81689413 C63.8999527,2.50140186 63.5249442,2.26014307 63.1129567,2.10805141 C62.7788424,1.97814283 62.2776708,1.82228152 61.3495753,1.78139513 C61.1959264,1.77454727 61.0588007,1.76848869 60.927504,1.76313861 L60.7335941,1.75563478 C60.2210299,1.73698771 59.7161794,1.72903051 58.5346261,1.72659351 Z M57.4997917,4.74979173 C60.1222816,4.74979173 62.2497917,6.87730184 62.2497917,9.49979173 C62.2497917,12.1222816 60.1222816,14.2497917 57.4997917,14.2497917 C54.8774429,14.2497917 52.7497917,12.1222816 52.7497917,9.49979173 C52.7497917,6.87730184 54.8774429,4.74979173 57.4997917,4.74979173 Z M57.4997917,6.41858481 C55.7985455,6.41858481 54.4185848,7.7984045 54.4185848,9.49979173 C54.4185848,11.2011789 55.7985455,12.5809986 57.4997917,12.5809986 C59.2011789,12.5809986 60.5809986,11.2011789 60.5809986,9.49979173 C60.5809986,7.7984045 59.2011789,6.41858481 57.4997917,6.41858481 Z M62.7247011,3.79979173 C63.5117645,3.79979173 64.1497917,4.43767824 64.1497917,5.22479173 C64.1497917,6.0117239 63.5117645,6.64979173 62.7247011,6.64979173 C61.9378189,6.64979173 61.2997917,6.0117239 61.2997917,5.22479173 C61.2997917,4.43767824 61.9378189,3.79979173 62.7247011,3.79979173 Z" id="insta"></path>
                </g>
            </g>
        </g>
    </g>
</svg>