<?xml version="1.0" encoding="UTF-8"?>
<svg width="19px" height="15px" viewBox="0 0 19 15" version="1.1" xmlns="http://www.w3.org/2000/svg" xmlns:xlink="http://www.w3.org/1999/xlink">
    <title>mail</title>
    <g id="Design-v3" stroke="none" stroke-width="1" fill="none" fill-rule="evenodd">
        <g id="Saffola-Masala-Oats_Landing-Page_Desktop_v3" transform="translate(-135.000000, -4892.000000)" fill="#FFFFFF" fill-rule="nonzero">
            <g id="footer" transform="translate(0.000000, 4368.000000)">
                <g id="tc" transform="translate(135.000000, 518.000000)">
                    <g id="mail" transform="translate(0.000000, 6.000000)">
                        <path d="M16.656405,0.0294421488 L2.32004132,0.0294421488 C1.04028926,0.0294421488 0,1.0697314 0,2.34948347 L0,12.1478306 C0,13.4275826 1.04028926,14.4678719 2.32004132,14.4678719 L16.6524793,14.4678719 C17.9322314,14.4678719 18.9725317,13.4275826 18.9725317,12.1478306 L18.9725317,2.35340909 C18.9764463,1.07365702 17.936157,0.0294421488 16.656405,0.0294421488 Z M17.9165289,12.1478306 C17.9165289,12.8426653 17.3512397,13.4079545 16.656405,13.4079545 L2.32004132,13.4079545 C1.62520661,13.4079545 1.05991736,12.8426653 1.05991736,12.1478306 L1.05991736,2.35340909 C1.05991736,1.65857438 1.62520661,1.09328512 2.32004132,1.09328512 L16.6524793,1.09328512 C17.347314,1.09328512 17.9126033,1.65857438 17.9126033,2.35340909 L17.9126033,12.1478306 L17.9165289,12.1478306 Z" id="Shape"></path>
                        <path d="M11.9652893,7.12696281 L16.6053719,2.96580579 C16.821281,2.76952479 16.8409091,2.43584711 16.6446281,2.2160124 C16.4483471,2.00010331 16.1146694,1.98047521 15.8948347,2.1767562 L9.49607438,7.91993802 L8.24772727,6.80506198 C8.24380165,6.80113636 8.23987603,6.79721074 8.23987603,6.79328512 C8.21239669,6.76580579 8.18491736,6.74225207 8.1535124,6.71869835 L3.07376033,2.17283058 C2.85392562,1.97654959 2.52024793,1.99617769 2.32396694,2.2160124 C2.12768595,2.43584711 2.14731405,2.76952479 2.36714876,2.96580579 L7.06219008,7.16229339 L2.38677686,11.5393595 C2.17479339,11.7395661 2.16301653,12.0732438 2.36322314,12.2891529 C2.46921488,12.3990702 2.61053719,12.4579545 2.7518595,12.4579545 C2.88140496,12.4579545 3.01095041,12.4108471 3.11301653,12.3166322 L7.85909091,7.8767562 L9.14669421,9.02696281 C9.24876033,9.11725207 9.37438017,9.16043388 9.5,9.16043388 C9.62561983,9.16043388 9.75516529,9.11332645 9.85330579,9.02303719 L11.1762397,7.8375 L15.8948347,12.3205579 C15.9969008,12.4186983 16.1303719,12.4658058 16.2599174,12.4658058 C16.4012397,12.4658058 16.5386364,12.4108471 16.6446281,12.3009298 C16.8448347,12.0889463 16.8369835,11.751343 16.625,11.5511364 L11.9652893,7.12696281 Z" id="Path"></path>
                    </g>
                </g>
            </g>
        </g>
    </g>
</svg>