<?xml version="1.0" encoding="UTF-8"?>
<svg width="18px" height="18px" viewBox="0 0 18 18" version="1.1" xmlns="http://www.w3.org/2000/svg" xmlns:xlink="http://www.w3.org/1999/xlink">
    <title>phone</title>
    <g id="Design-v3" stroke="none" stroke-width="1" fill="none" fill-rule="evenodd">
        <g id="Saffola-Masala-Oats_Landing-Page_Desktop_v3" transform="translate(-303.000000, -4890.000000)" fill="#FFFFFF" fill-rule="nonzero">
            <g id="footer" transform="translate(0.000000, 4368.000000)">
                <g id="tc" transform="translate(135.000000, 518.000000)">
                    <g id="call" transform="translate(168.000000, 0.000000)">
                        <g id="phone" transform="translate(0.000000, 4.000000)">
                            <path d="M17.4726562,13.179375 C16.7941758,13.179375 16.2421875,12.5643516 16.2421875,11.8083516 L16.2421875,3.76713281 C16.2421875,2.42957812 15.2170664,1.34142187 13.9570312,1.34142187 C12.6969961,1.34142187 11.671875,2.42957812 11.671875,3.76713281 L11.671875,15.6794766 C11.671875,16.3774687 11.1635859,16.9453125 10.5388242,16.9453125 L7.76341406,16.9453125 C7.79772656,16.8189258 7.8165,16.6857539 7.8165,16.5479766 L7.8165,13.3864453 C7.8165,12.585832 7.19585156,11.9344219 6.43292578,11.9344219 L4.60409766,11.9344219 C4.39157812,11.9344219 4.21871484,11.728793 4.21871484,11.4760547 L4.21871484,6.52391016 C4.21871484,6.27117187 4.39157812,6.06554297 4.60409766,6.06554297 L6.43292578,6.06554297 C7.19581641,6.06554297 7.8165,5.41416797 7.8165,4.61351953 L7.8165,1.45202344 C7.8165,0.651375 7.19585156,-1.99840144e-15 6.43292578,-1.99840144e-15 L3.55000781,-1.99840144e-15 C1.59254297,-1.99840144e-15 0,1.70096484 0,3.79174219 L0,14.208293 C0,16.2990352 1.59254297,18 3.55004297,18 L10.5388242,18 C11.7451406,18 12.7265625,16.9590234 12.7265625,15.6794766 L12.7265625,3.76713281 C12.7265625,3.01113281 13.2785508,2.39610937 13.9570312,2.39610937 C14.6355117,2.39610937 15.1875,3.01113281 15.1875,3.76713281 L15.1875,11.8083516 C15.1875,13.1459062 16.2126211,14.2340625 17.4726562,14.2340625 C17.7638906,14.2340625 18,13.9979531 18,13.7067187 C18,13.4154844 17.7638906,13.179375 17.4726562,13.179375 Z M6.7618125,13.3864805 L6.7618125,16.5480117 C6.7618125,16.7670703 6.61429687,16.9453477 6.43292578,16.9453477 L5.72192578,16.9453477 L5.72192578,12.9891445 L6.43292578,12.9891445 C6.61429687,12.9891445 6.7618125,13.1673867 6.7618125,13.3864805 L6.7618125,13.3864805 Z M6.7618125,1.45202344 L6.7618125,4.61355469 C6.7618125,4.83261328 6.61429687,5.01089063 6.43292578,5.01089063 L5.72192578,5.01089063 L5.72192578,1.0546875 L6.43292578,1.0546875 C6.61429687,1.0546875 6.7618125,1.23292969 6.7618125,1.45202344 Z M1.0546875,14.208293 L1.0546875,3.79174219 C1.0546875,2.28251953 2.17409766,1.0546875 3.55004297,1.0546875 L4.66727344,1.0546875 L4.66727344,5.01085547 L4.60413281,5.01085547 C3.81005859,5.01085547 3.1640625,5.68961719 3.1640625,6.52391016 L3.1640625,11.4760547 C3.1640625,12.3103477 3.81005859,12.9891094 4.60413281,12.9891094 L4.66727344,12.9891094 L4.66727344,16.9453125 L3.55004297,16.9453125 C2.17409766,16.9453125 1.0546875,15.7174805 1.0546875,14.208293 Z" id="Shape"></path>
                        </g>
                    </g>
                </g>
            </g>
        </g>
    </g>
</svg>