<?xml version="1.0" encoding="UTF-8"?>
<svg width="20px" height="16px" viewBox="0 0 20 16" version="1.1" xmlns="http://www.w3.org/2000/svg" xmlns:xlink="http://www.w3.org/1999/xlink">
    <title>youtube</title>
    <g id="Design-v3" stroke="none" stroke-width="1" fill="none" fill-rule="evenodd">
        <g id="Saffola-Masala-Oats_Landing-Page_Mobile_v3.2" transform="translate(-231.000000, -4558.000000)" fill="#FFFFFF" fill-rule="nonzero">
            <g id="footer" transform="translate(0.000000, 4410.000000)">
                <g id="social-icons" transform="translate(124.000000, 145.000000)">
                    <path d="M123.345389,3.15814101 C126.596389,3.38134753 126.975389,5.36205405 126.999389,10.5450704 C126.975389,15.7351247 126.592389,17.7077877 123.345389,17.9319997 C121.845389,18.0325432 119.431389,18.0858312 117.014389,18.0858312 C114.597389,18.0858312 112.156389,18.0345541 110.653389,17.9319997 C107.402389,17.7077877 107.023389,15.7280867 106.999389,10.5450704 C107.023389,5.35401057 107.406389,3.38134753 110.653389,3.15814101 C113.653389,2.95705405 120.342389,2.95202688 123.345389,3.15814101 Z M114.499389,7.19395623 L114.499389,13.8961845 L121.165389,10.5390377 L114.499389,7.19395623 Z" id="youtube"></path>
                </g>
            </g>
        </g>
    </g>
</svg>