<?xml version="1.0" encoding="UTF-8"?>
<svg width="42px" height="39px" viewBox="0 0 42 39" version="1.1" xmlns="http://www.w3.org/2000/svg" xmlns:xlink="http://www.w3.org/1999/xlink">
    <title>“</title>
    <g id="Design-v3" stroke="none" stroke-width="1" fill="none" fill-rule="evenodd">
        <g id="Saffola-Masala-Oats_Landing-Page_Desktop_v3" transform="translate(-303.000000, -3997.000000)" fill="#FCC517" fill-rule="nonzero">
            <g id="testimonials" transform="translate(0.000000, 3818.000000)">
                <g id="1" transform="translate(140.000000, 179.000000)">
                    <path d="M173.173913,39 C175.347826,39 177.195652,38.2288136 178.717391,36.6864407 C180.23913,35.1440678 181,33.0949153 181,30.5389831 C181,28.3355932 180.304348,26.5949153 178.913043,25.3169492 C177.521739,24.0389831 175.913043,23.4 174.086957,23.4 C173.565217,23.4 173.065217,23.4440678 172.586957,23.5322034 C172.108696,23.620339 171.565217,23.7966102 170.956522,24.0610169 C170.695652,21.4169492 170.934783,18.7067797 171.673913,15.9305085 C172.413043,13.1542373 173.326087,10.620339 174.413043,8.32881356 C175.5,6.03728814 176.521739,4.27457627 177.478261,3.04067797 L177.478261,3.04067797 L173.434783,0 C171.26087,2.5559322 169.391304,5.39830508 167.826087,8.52711864 C166.26087,11.6559322 165.065217,14.8067797 164.23913,17.979661 C163.413043,21.1525424 163,23.9288136 163,26.3084746 C163,29.9220339 163.847826,32.940678 165.543478,35.3644068 C167.23913,37.7881356 169.782609,39 173.173913,39 Z M197.173913,39 C199.347826,39 201.195652,38.2288136 202.717391,36.6864407 C204.23913,35.1440678 205,33.0949153 205,30.5389831 C205,28.3355932 204.304348,26.5949153 202.913043,25.3169492 C201.521739,24.0389831 199.913043,23.4 198.086957,23.4 C197.565217,23.4 197.065217,23.4440678 196.586957,23.5322034 C196.108696,23.620339 195.565217,23.7966102 194.956522,24.0610169 C194.695652,21.4169492 194.934783,18.7067797 195.673913,15.9305085 C196.413043,13.1542373 197.326087,10.620339 198.413043,8.32881356 C199.5,6.03728814 200.521739,4.27457627 201.478261,3.04067797 L201.478261,3.04067797 L197.434783,0 C195.26087,2.5559322 193.391304,5.39830508 191.826087,8.52711864 C190.26087,11.6559322 189.065217,14.8067797 188.23913,17.979661 C187.413043,21.1525424 187,23.9288136 187,26.3084746 C187,29.9220339 187.847826,32.940678 189.543478,35.3644068 C191.23913,37.7881356 193.782609,39 197.173913,39 Z" id="“"></path>
                </g>
            </g>
        </g>
    </g>
</svg>