<?xml version="1.0" encoding="UTF-8"?>
<svg width="1440px" height="13px" viewBox="0 0 1440 13" version="1.1" xmlns="http://www.w3.org/2000/svg" xmlns:xlink="http://www.w3.org/1999/xlink">
    <title>bottom</title>
    <g id="Design-v3" stroke="none" stroke-width="1" fill="none" fill-rule="evenodd">
        <g id="Saffola-Masala-Oats_Landing-Page_Desktop_v3" transform="translate(0.000000, -2918.000000)" fill="#FFF1BE">
            <g id="recipes" transform="translate(0.000000, 2918.000000)">
                <path d="M20,0 L40,13 L0,13 L20,0 Z M180,0 L200,13 L160,13 L180,0 Z M100,0 L120,13 L80,13 L100,0 Z M260,0 L280,13 L240,13 L260,0 Z M60,0 L80,13 L40,13 L60,0 Z M220,0 L240,13 L200,13 L220,0 Z M140,0 L160,13 L120,13 L140,0 Z M300,0 L320,13 L280,13 L300,0 Z M660,0 L680,13 L640,13 L660,0 Z M820,0 L840,13 L800,13 L820,0 Z M740,0 L760,13 L720,13 L740,0 Z M900,0 L920,13 L880,13 L900,0 Z M700,0 L720,13 L680,13 L700,0 Z M860,0 L880,13 L840,13 L860,0 Z M780,0 L800,13 L760,13 L780,0 Z M940,0 L960,13 L920,13 L940,0 Z M340,0 L360,13 L320,13 L340,0 Z M500,0 L520,13 L480,13 L500,0 Z M420,0 L440,13 L400,13 L420,0 Z M580,0 L600,13 L560,13 L580,0 Z M380,0 L400,13 L360,13 L380,0 Z M540,0 L560,13 L520,13 L540,0 Z M460,0 L480,13 L440,13 L460,0 Z M620,0 L640,13 L600,13 L620,0 Z M980,0 L1000,13 L960,13 L980,0 Z M1140,0 L1160,13 L1120,13 L1140,0 Z M1340,0 L1360,13 L1320,13 L1340,0 Z M1060,0 L1080,13 L1040,13 L1060,0 Z M1220,0 L1240,13 L1200,13 L1220,0 Z M1420,0 L1440,13 L1400,13 L1420,0 Z M1020,0 L1040,13 L1000,13 L1020,0 Z M1180,0 L1200,13 L1160,13 L1180,0 Z M1380,0 L1400,13 L1360,13 L1380,0 Z M1100,0 L1120,13 L1080,13 L1100,0 Z M1300,0 L1320,13 L1280,13 L1300,0 Z M1260,0 L1280,13 L1240,13 L1260,0 Z" id="bottom" transform="translate(720.000000, 6.500000) scale(1, -1) translate(-720.000000, -6.500000) "></path>
            </g>
        </g>
    </g>
</svg>