<?xml version="1.0" encoding="UTF-8"?>
<svg width="375px" height="7px" viewBox="0 0 375 7" version="1.1" xmlns="http://www.w3.org/2000/svg" xmlns:xlink="http://www.w3.org/1999/xlink">
    <title>Combined Shape</title>
    <g id="Design-v3" stroke="none" stroke-width="1" fill="none" fill-rule="evenodd">
        <g id="Saffola-Masala-Oats_Landing-Page_Mobile_v3.3" transform="translate(0.000000, -1514.000000)" fill="#FFF1BE">
            <g id="features" transform="translate(0.000000, 1514.000000)">
                <path d="M30.848329,0 L41.4524422,6.74807198 L0,6.74807198 L10.6041131,0 L20.726,6.441 L30.848329,0 Z M93.5089974,0 L104.113111,6.74807198 L82.9048843,6.74807198 L93.5089974,0 Z M72.3007712,0 L82.9048843,6.74807198 L41.4524422,6.74807198 L52.0565553,0 L62.178,6.441 L72.3007712,0 Z M156.169666,0 L166.773779,6.74807198 L125.321337,6.74807198 L135.92545,0 L146.047,6.441 L156.169666,0 Z M114.717224,0 L125.321337,6.74807198 L104.113111,6.74807198 L114.717224,0 Z M197.622108,0 L208.226221,6.74807198 L166.773779,6.74807198 L177.377892,0 L187.5,6.441 L197.622108,0 Z M239.07455,0 L249.678663,6.74807198 L208.226221,6.74807198 L218.830334,0 L228.952,6.441 L239.07455,0 Z M301.735219,0 L312.339332,6.74807198 L291.131105,6.74807198 L301.735219,0 Z M280.526992,0 L291.131105,6.74807198 L249.678663,6.74807198 L260.282776,0 L270.404,6.441 L280.526992,0 Z M333.547558,6.74807198 L344.151671,0 L354.273,6.441 L364.395887,0 L375,6.74807198 L333.547558,6.74807198 Z M322.943445,0 L333.547558,6.74807198 L312.339332,6.74807198 L322.943445,0 Z" id="Combined-Shape" transform="translate(187.500000, 3.374036) scale(1, -1) translate(-187.500000, -3.374036) "></path>
            </g>
        </g>
    </g>
</svg>