<?xml version="1.0" encoding="UTF-8"?>
<svg width="810px" height="15px" viewBox="0 0 810 15" version="1.1" xmlns="http://www.w3.org/2000/svg" xmlns:xlink="http://www.w3.org/1999/xlink">
    <title>Combined Shape</title>
    <g id="Design-v3" stroke="none" stroke-width="1" fill="none" fill-rule="evenodd">
        <g id="ipad-1" transform="translate(0.000000, -2064.000000)" fill="#FFF1BE">
            <g id="features" transform="translate(0.000000, 2064.000000)">
                <path d="M66.6323907,0 L89.5372751,14.5758355 L0,14.5758355 L22.9048843,0 L44.768,13.913 L66.6323907,0 Z M201.979434,0 L224.884319,14.5758355 L179.07455,14.5758355 L201.979434,0 Z M156.169666,0 L179.07455,14.5758355 L89.5372751,14.5758355 L112.442159,0 L134.306,13.912 L156.169666,0 Z M337.326478,0 L360.231362,14.5758355 L270.694087,14.5758355 L293.598972,0 L315.462,13.913 L337.326478,0 Z M247.789203,0 L270.694087,14.5758355 L224.884319,14.5758355 L247.789203,0 Z M426.863753,0 L449.768638,14.5758355 L360.231362,14.5758355 L383.136247,0 L405,13.912 L426.863753,0 Z M516.401028,0 L539.305913,14.5758355 L449.768638,14.5758355 L472.673522,0 L494.537,13.913 L516.401028,0 Z M651.748072,0 L674.652956,14.5758355 L628.843188,14.5758355 L651.748072,0 Z M605.938303,0 L628.843188,14.5758355 L539.305913,14.5758355 L562.210797,0 L584.074,13.913 L605.938303,0 Z M720.462725,14.5758355 L743.367609,0 L765.231,13.913 L787.095116,0 L810,14.5758355 L720.462725,14.5758355 Z M697.557841,0 L720.462725,14.5758355 L674.652956,14.5758355 L697.557841,0 Z" id="Combined-Shape" transform="translate(405.000000, 7.287918) scale(1, -1) translate(-405.000000, -7.287918) "></path>
            </g>
        </g>
    </g>
</svg>