<?xml version="1.0" encoding="UTF-8"?>
<svg width="46px" height="46px" viewBox="0 0 46 46" version="1.1" xmlns="http://www.w3.org/2000/svg" xmlns:xlink="http://www.w3.org/1999/xlink">
    <title>close</title>
    <g id="Design-v3" stroke="none" stroke-width="1" fill="none" fill-rule="evenodd">
        <g id="Saffola-Masala-Oats_Landing-Page_Mobile_v3.1" transform="translate(-314.000000, -3809.000000)">
            <g id="recipes" transform="translate(0.000000, 3120.000000)">
                <g id="recipe" transform="translate(15.000000, 205.000000)">
                    <g id="close" transform="translate(299.734375, 484.765625)">
                        <path d="M0,0 L45,0 L45,35 C45,40.5228475 40.5228475,45 35,45 L0,45 L0,45 L0,0 Z" id="Mask" fill="#DB0812"></path>
                        <path d="M23.7314644,22.2344936 L29.9615428,16.0040961 C30.3669857,15.5988346 30.3669857,14.9435827 29.9615428,14.5383211 C29.5562897,14.1330596 28.9010514,14.1330596 28.4957983,14.5383211 L22.2655301,20.7687187 L16.0354517,14.5383211 C15.6300088,14.1330596 14.9749603,14.1330596 14.5697072,14.5383211 C14.1642643,14.9435827 14.1642643,15.5988346 14.5697072,16.0040961 L20.7997856,22.2344936 L14.5697072,28.4648912 C14.1642643,28.8701527 14.1642643,29.5254046 14.5697072,29.9306661 C14.7716694,30.1328223 15.0372193,30.234375 15.3025795,30.234375 C15.5679396,30.234375 15.8332997,30.1328223 16.0354517,29.9306661 L22.2655301,23.7002686 L28.4957983,29.9306661 C28.6979503,30.1328223 28.9633104,30.234375 29.2286706,30.234375 C29.4940307,30.234375 29.7593908,30.1328223 29.9615428,29.9306661 C30.3669857,29.5254046 30.3669857,28.8701527 29.9615428,28.4648912 L23.7314644,22.2344936 Z" id="Path" fill="#FCC517" fill-rule="nonzero"></path>
                    </g>
                </g>
            </g>
        </g>
    </g>
</svg>