<?xml version="1.0" encoding="UTF-8"?>
<svg width="47px" height="47px" viewBox="0 0 47 47" version="1.1" xmlns="http://www.w3.org/2000/svg" xmlns:xlink="http://www.w3.org/1999/xlink">
    <title>up arrow</title>
    <g id="Design-v3" stroke="none" stroke-width="1" fill="none" fill-rule="evenodd">
        <g id="Saffola-Masala-Oats_Landing-Page_Desktop_v3" transform="translate(-855.000000, -3687.000000)">
            <g id="recipes" transform="translate(0.000000, 2918.000000)">
                <g id="2" transform="translate(540.000000, 304.000000)">
                    <g id="up-arrow" transform="translate(315.734375, 465.765625)">
                        <path d="M0.265625,0.234375 L45.265625,0.234375 L45.265625,35.234375 C45.265625,40.7572225 40.7884725,45.234375 35.265625,45.234375 L0.265625,45.234375 L0.265625,45.234375 L0.265625,0.234375 Z" id="Mask" fill="#DB0812"></path>
                        <path d="M31.4843756,21.427923 L14.9391535,21.427923 L17.6799327,18.6124375 C17.9857528,18.2982438 17.9869246,17.7876387 17.6825499,17.471953 C17.3781751,17.156227 16.883488,17.1550577 16.5776679,17.4692111 L12.4954834,21.6627618 C12.49521,21.6630038 12.4950146,21.663286 12.4947803,21.663528 C12.1897414,21.9777217 12.1887649,22.48998 12.4947021,22.8052221 C12.4949756,22.8054641 12.4951709,22.8057463 12.4954053,22.8059883 L16.5775897,26.999539 C16.8833708,27.3136521 17.3780579,27.3125634 17.6824717,26.9967971 C17.9868465,26.6811114 17.9856746,26.1705063 17.6798546,25.8563126 L14.9391535,23.0408271 L31.4843756,23.0408271 C31.9158596,23.0408271 32.265625,22.6797785 32.265625,22.234375 C32.265625,21.7889716 31.9158596,21.427923 31.4843756,21.427923 Z" id="Path" fill="#FCC517" fill-rule="nonzero" transform="translate(22.265625, 22.234375) scale(1, -1) rotate(-450.000000) translate(-22.265625, -22.234375) "></path>
                    </g>
                </g>
            </g>
        </g>
    </g>
</svg>