<?xml version="1.0" encoding="UTF-8"?>
<svg width="345px" height="122px" viewBox="0 0 345 122" version="1.1" xmlns="http://www.w3.org/2000/svg" xmlns:xlink="http://www.w3.org/1999/xlink">
    <title>Combined Shape</title>
    <g id="Design-v3" stroke="none" stroke-width="1" fill="none" fill-rule="evenodd">
        <g id="Saffola-Masala-Oats_Landing-Page_Mobile_v3" transform="translate(-16.000000, -1171.000000)" fill="#FCC517">
            <g id="products" transform="translate(-5.000000, 684.000000)">
                <g id="note" transform="translate(0.028233, 487.000000)">
                    <path d="M323.605774,0.486683213 C323.792011,0.633938934 324.518066,0.922139415 324.373665,0.482475907 C324.229263,0.0428123989 325.061933,0.415159006 325.21713,0.373085943 C325.373677,0.333116533 325.98772,0.421469966 326.221192,0.680219303 C326.456013,0.941072293 327.348062,0.901102883 327.285983,0.78540196 C327.223904,0.669701037 327.999892,0.40464074 329.147005,0.455128416 L329.568063,0.861133474 L330.350799,1.61213765 C330.419626,0.810645798 330.761061,0.55820742 331.110593,1.05046226 L331.839348,0.713877753 C332.60454,0.362567677 333.560017,0.509823398 334.422377,1.03994399 C334.746267,1.23768739 335.21186,1.6500034 335.781368,1.16195587 C336.039132,0.941072293 336.731448,1.43122348 337.179497,1.7173203 C337.398123,1.85826507 336.630232,2.18853861 337.125515,2.45149525 C337.265868,2.52512311 337.535777,2.12122171 337.726063,2.15067285 C338.02971,2.19484957 338.491255,2.32527606 338.578975,2.5840254 L338.858331,3.4191757 C339.475073,3.66740677 340.306393,4.02923511 340.707208,4.2227712 C341.108022,4.41841095 342.396838,4.74026988 342.637057,4.67926394 C342.878626,4.62036165 343.614128,4.94222058 343.786869,4.8517635 C343.958261,4.76130641 344.311842,4.69188586 344.275405,5.07054342 C344.238967,5.44709734 345.129667,4.90435482 345.280816,4.83072696 C345.431965,4.7570991 346.056804,4.82651966 346.54264,4.83072696 C347.027127,4.83703792 348.239018,5.64273708 348.367225,5.58593844 C348.495432,5.52703616 348.927286,5.4891704 348.936733,5.69743206 C348.94618,5.90569372 349.388831,6.51364948 349.885463,6.3600828 C350.382096,6.20651612 351.905732,7.06901391 352.491434,7.30041576 L352.673623,8.25126698 C352.765392,8.72248529 353.63315,8.78349123 353.797794,9.70278765 L353.872019,10.119311 C354.43208,10.4369626 354.981345,10.744096 355.094707,10.8051019 C355.208069,10.8682115 355.413199,11.307875 355.295789,11.6507705 L355.305236,11.6570814 L355.799169,11.9600075 C355.606184,12.4669879 355.463133,13.2684797 355.480677,13.739698 L355.52926,14.1877762 L355.633175,15.1302128 C355.782975,16.1610028 356.002951,17.0319152 356.12441,17.0676773 L356.24317,17.0802992 L356.368677,17.0929212 C356.506331,17.0908175 356.629139,17.1749636 356.639936,17.2780426 C356.652082,17.385329 356.383522,17.6798404 356.117662,17.8628582 L355.899036,18.0669126 C355.849102,18.1131929 355.88689,18.3635277 355.932774,18.4918505 C355.953017,18.5465455 356.096069,18.5549601 356.179741,18.5423382 C356.226975,18.5339236 356.260714,18.4056007 356.310647,18.3929788 L356.595401,18.3277656 C356.911194,18.2709669 357.156811,18.3488021 357.140617,18.5002651 C357.125772,18.6496245 357.36869,19.3648666 357.718222,19.7519387 L357.947645,20.1789803 L358.094745,20.4524552 C358.119037,21.005716 357.800544,21.2560507 357.387584,21.012027 C356.974623,20.7680032 355.97596,20.963643 356.314695,22.1311705 C356.653431,23.3008016 356.726307,26.4689032 356.38892,26.616159 C356.050185,26.7634147 355.129795,27.2493586 355.248555,27.2956389 C355.367315,27.344023 355.814014,27.7458207 356.120361,28.0550577 L356.236422,28.4189897 C356.40579,28.9533176 356.544455,28.8123729 356.684302,28.605426 L356.754471,28.4992731 C356.872076,28.3225869 356.994191,28.1705833 357.139267,28.3958495 L357.339,28.7092938 C357.757359,28.9491103 357.980034,29.4245359 357.835633,29.7632241 C357.691231,30.1019122 358.114988,31.8689809 358.19866,32.6999239 L357.927402,33.4719646 C357.633201,34.3029076 358.177067,35.7249771 358.865335,35.8070196 L359.448339,35.8785438 C360.100169,36.0489397 360.378175,36.210921 360.06643,36.2424758 C359.754686,36.2719269 358.872083,36.5874749 358.872083,36.8735717 C358.872083,37.1596685 359.186527,38.0432029 359.571147,37.9464348 L359.935525,37.8749106 L360.140655,37.8328375 C360.36333,37.8307339 360.72096,37.8875325 360.936887,37.963264 C361.151465,38.0389956 362.23245,37.8749106 362.741229,37.8959471 C363.250007,37.921191 363.857302,39.6693267 363.791175,39.8186861 L363.521266,39.7639911 C362.986846,39.6546012 362.703441,40.207862 362.909922,40.7758483 C363.051624,41.1692314 363.179831,41.6677972 363.434895,41.8697479 L363.994956,42.3136188 C364.030044,43.0751412 364.174445,43.5295303 364.316148,43.3212686 L364.45785,43.2749882 C364.603601,43.2245006 364.84247,43.2665736 364.930191,43.3927928 C365.015212,43.5105974 365.023309,43.8450782 364.950434,43.9902303 C364.707516,44.4551377 364.371479,44.7307162 363.884293,44.6423628 C363.792524,44.6255336 363.588743,44.8884902 363.580646,45.0378496 C363.569849,45.1977272 363.694007,45.4543729 363.815466,45.5322081 L364.208184,45.7867501 C364.667029,46.0160483 364.652184,46.4872666 364.174445,46.836473 L363.753387,46.8722351 L363.411952,46.8995826 C362.920718,46.5209251 362.521253,46.7270831 362.525301,47.358179 L362.452426,47.7789096 L362.345812,48.388969 C361.878869,48.5761942 361.274273,48.7571083 361.003015,48.7886631 C360.730407,48.8202179 360.797884,50.1350012 360.974674,50.8460359 C361.151465,51.554967 361.474006,53.8837111 361.193301,54.0667289 C360.911246,54.2497467 361.162261,55.4782802 361.329605,55.6928528 C361.495599,55.909529 361.770906,56.6394967 361.55093,56.8393437 L361.272924,56.9950141 C361.036753,57.1275442 360.746601,56.437546 360.484789,57.0518127 L360.4524,57.1275442 C360.218929,57.0665383 359.789774,56.8624839 359.499622,56.6773624 C359.209469,56.4901373 358.067754,56.8162036 357.585967,56.9802885 C357.104179,57.1422698 355.511716,56.4585825 355.121698,56.2103515 C354.731679,55.9600167 353.293064,56.1051688 352.990766,56.0168154 C352.689818,55.9305656 351.920577,55.3226098 351.826109,55.5729445 C351.731641,55.8211756 351.538656,56.7005026 351.576443,57.0518127 C351.61423,57.4031228 352.542717,57.5924516 352.762693,57.5882443 L352.86121,57.7144635 C352.916271,57.7857072 352.944462,57.8864207 352.967534,57.993866 L353.001023,58.1572404 C353.053655,58.4013483 353.135437,58.6219794 353.494146,58.560132 L353.591314,58.5433028 C353.751909,59.033454 354.116287,59.088149 354.398342,58.663211 L354.46177,59.6161659 L354.473916,59.809702 C354.828846,59.9800979 355.434792,60.1021098 355.820762,60.0810732 L355.892288,60.6658888 L355.951668,61.1413144 C356.044786,61.6861606 355.957066,61.9785684 355.758683,61.7913433 C355.5603,61.6041181 354.828846,61.4800026 354.710086,61.629362 C354.591326,61.780825 354.019119,61.9533245 353.712773,61.6651241 C353.407776,61.3748199 352.695216,60.489182 352.587252,60.6911327 L352.614243,60.785797 C352.785635,61.4126857 353.193198,62.0648182 353.125721,62.6328045 L353.050146,63.2891443 C352.565659,64.0359412 352.29575,64.8037746 352.450948,64.995207 C352.604796,65.1866394 353.263374,65.1424627 353.51439,64.8353294 L353.687131,64.4756047 L353.799144,64.2420992 C353.830183,63.909722 353.900359,63.6635946 353.95704,63.690942 L353.981332,63.7393261 L354.34301,64.4524645 C354.780263,64.0822215 355.248555,63.855027 355.38216,63.9475877 C355.515765,64.0422521 355.473929,64.6586225 354.977296,65.1193225 L355.297138,65.8661194 L355.430743,66.1795637 C355.782975,66.0365153 356.236422,66.4740752 356.437504,67.1493478 L356.569861,67.5879227 C356.731533,68.1207204 356.874757,68.6097339 356.800532,68.7039475 C356.706063,68.8217521 356.218878,68.8701361 355.934124,68.5356552 L355.668263,68.2432475 L355.633175,68.203278 C355.486075,68.2222109 355.290391,68.4094361 355.197272,68.6198014 C355.102804,68.828063 354.998889,69.5433051 355.244506,69.5769636 C355.490123,69.6085183 356.216179,69.9009261 355.998902,70.1091878 C355.781625,70.3153458 355.235059,71.1189413 355.32278,71.3776906 C355.41185,71.6385436 355.777577,72.2801578 355.893637,72.0887254 L355.996203,72.0529633 C356.344385,71.9267441 356.862611,72.461072 357.247231,73.4624109 L357.406477,73.8789342 C357.186501,74.3501525 356.947632,74.8213709 356.877456,74.9223462 C356.80593,75.0233216 356.788386,75.4461558 356.993517,75.62707 L357.182453,75.6291737 C357.681784,75.6375883 357.84238,75.8584719 357.629152,76.4495984 C357.571122,76.615787 357.433468,76.8745363 357.472605,76.9271277 L357.69528,77.2321574 C357.627803,77.5834674 357.336301,77.8127656 357.047498,77.7433451 L356.917942,77.2574012 L356.86531,77.0638651 C356.150051,76.9755117 356.171644,77.2531939 356.916592,77.6823391 L356.625091,78.5490442 L356.471243,79.0076406 C356.353832,79.5398649 356.365978,80.1183695 356.499583,80.2929727 C356.634538,80.4675759 356.903097,81.3595248 356.712811,81.6940057 C356.521176,82.0242792 355.616981,82.4870829 355.603485,82.7984236 L355.692555,83.0150999 L355.865297,83.4295195 C356.011048,83.9617438 356.00565,84.233115 355.853151,84.0311643 C355.700652,83.8292136 355.101454,83.6440922 354.926014,83.7408602 C354.750573,83.8376282 354.113588,83.82711 353.894961,83.7471712 C353.674985,83.6672323 353.055544,83.8523538 353.164857,83.9806767 C353.274171,84.1089995 353.679034,84.6180836 353.857174,84.7926868 C354.036663,84.96729 354.607521,84.5276265 354.6696,84.5192119 C354.734378,84.5107972 354.857187,84.7379918 354.823448,85.1019238 C354.78971,85.4658558 355.711449,85.0808873 355.88554,85.0346069 C356.059631,84.9904302 356.340337,85.3080818 356.03534,85.5079288 C355.730342,85.7077759 354.890925,86.0675006 354.826147,85.8802754 C354.76002,85.6930503 354.419934,85.4216791 354.320068,85.4469229 C354.218852,85.4700631 353.80859,86.5450298 353.641247,86.5239933 C353.472554,86.5008531 352.927337,86.9236874 352.792383,87.5148139 L352.954328,88.1101478 C353.105477,88.6676159 353.318706,89.0252369 353.799144,89.0862428 L353.893612,89.0988648 C354.012372,89.2566388 353.975934,89.6731621 353.813989,90.0202648 C353.733016,90.1938162 353.498195,90.4483583 353.272315,90.6781824 L353.055444,90.895852 C352.92089,91.0302521 352.814426,91.1380059 352.784286,91.1877923 C352.753696,91.23828 352.735402,91.3383204 352.720407,91.4505932 L352.69215,91.6803906 C352.67269,91.8297182 352.648432,91.9565607 352.598049,91.972455 C352.486036,92.0124244 352.387519,92.3658381 352.349732,92.4100148 C352.311945,92.4583988 352.392918,92.7465993 352.581854,92.9885194 C352.77214,93.2262322 353.181052,94.2780588 353.154061,94.8944292 L352.946231,95.235221 C352.376723,96.1713466 352.511678,96.6572905 353.320055,97.2231732 L353.944894,97.6628367 C353.54138,98.3002436 353.079836,99.1417049 352.92059,99.5287771 C352.759994,99.9179529 352.271459,100.412311 352.715459,100.456488 L352.657428,101.329504 L352.633137,101.689229 C352.646247,101.837687 352.661229,102.00761 352.676857,102.18482 L352.724449,102.724128 C352.747986,102.990532 352.770212,103.241424 352.786985,103.42895 L353.024505,103.723461 L353.307909,104.076875 C353.214791,104.50602 353.031252,105.265439 352.898997,105.764005 L353.181052,106.275193 L353.880116,107.539488 C353.289016,108.069609 352.786985,108.526102 352.762693,108.555553 C352.738401,108.587108 353.163508,109.800915 353.877417,111.039967 L354.401041,112.276915 L354.55084,112.628225 C354.259338,112.514628 353.984031,112.413653 353.936797,112.405238 C353.892262,112.39472 353.63045,112.508317 353.463107,112.674506 C353.295763,112.840694 352.691167,113.246699 352.549465,113.269839 C352.407763,113.29298 351.742437,113.454961 351.425294,113.677948 L351.121646,113.871484 L350.75592,114.102886 C350.330813,114.008222 349.279517,114.220691 348.419857,114.572001 C347.558848,114.923311 344.769338,115.186267 344.292949,115.369285 L343.848948,115.457639 L343.392802,115.545992 C342.913714,115.712181 341.70857,115.886784 340.715305,115.930961 L339.803012,115.937272 L339.33607,115.941479 C338.871826,116.191814 338.222695,116.80608 337.890707,117.300439 L337.464251,116.490532 C337.406221,116.381142 336.658573,116.747178 336.651825,116.717727 C336.4278,115.857333 335.979752,117.348823 335.661259,116.545227 L335.550596,116.267545 C335.068809,116.703001 334.491203,116.982787 334.268528,116.888123 L334.221294,116.940714 L333.775945,117.456109 C333.203737,117.37617 332.549208,117.454006 332.322485,117.630712 C332.095761,117.807419 331.164575,117.432969 330.933803,117.493975 C330.701681,117.552877 329.601802,117.792694 329.012051,117.788486 C328.4223,117.786383 326.856827,118.390131 326.70163,118.196595 C326.547782,118.000955 325.584206,118.585771 325.141556,118.79824 L324.790674,118.676228 L324.191476,118.461655 C323.578783,118.6026 322.782551,118.762478 322.420873,118.819276 C322.060545,118.878179 321.233273,119.229489 321.165796,119.073818 C321.098319,118.918148 320.470781,119.157965 320.129346,119.545037 C319.787911,119.930005 318.414074,119.36833 318.103679,119.568177 L317.994365,119.462994 L317.503131,118.985465 C317.095569,119.366226 316.310133,119.597628 315.759519,119.50086 L315.318218,119.677567 L314.86612,119.860585 C314.442363,119.67336 313.675822,119.540829 313.162994,119.566073 L312.690654,119.65653 L312.246653,119.740677 C311.772963,119.948938 311.065802,119.860585 310.675783,119.542933 L310.154859,119.913176 L309.779685,120.18034 C309.219624,120.140371 308.157532,120.260279 307.419331,120.443297 L306.675732,120.161407 L306.181798,119.974182 C305.516473,120.245553 304.799864,120.504303 304.592034,120.548479 C304.382855,120.592656 303.681091,120.28973 303.481359,120.424364 C303.281626,120.556894 302.58661,120.510614 302.122367,120.491681 C301.659473,120.470644 300.465126,120.83668 300.420591,120.689424 C300.374706,120.542168 300.247849,120.527443 300.233004,120.962899 C300.225145,121.193435 299.958565,121.076693 299.680972,120.914205 L299.496997,120.802411 C299.316826,120.690458 299.156226,120.587954 299.08859,120.584241 C298.895605,120.575827 298.045391,120.628418 297.644577,120.708357 C297.243762,120.786192 296.160077,120.563205 295.872624,120.647351 C295.583821,120.731497 294.533875,120.500095 294.158702,120.42226 C293.782179,120.342321 292.439382,120.458022 292.038567,120.346529 C291.637752,120.232931 290.57431,121.026009 290.393471,121.057563 C290.211283,121.087015 289.648523,120.851405 289.429896,120.88296 C289.21127,120.914515 288.572935,120.847198 288.095196,120.792503 C287.618807,120.735704 286.236873,120.561101 286.06683,120.561101 C285.898137,120.558998 285.47303,120.794607 285.338076,120.516925 C285.203121,120.237139 284.060057,120.552687 283.687582,120.620004 C283.316457,120.689424 281.97366,120.838783 281.458134,121.23427 L280.825197,120.634729 L280.362303,120.195066 C279.599811,120.167718 278.440551,120.344425 277.784673,120.590552 L277.120696,120.213998 L277.02083,120.159303 C276.729328,120.615796 276.204355,120.708357 275.854823,120.369669 C275.503942,120.030981 273.781922,120.66418 273.023478,120.784088 C272.369623,120.885829 270.761529,120.361519 270.264701,120.194953 L270.120607,120.146682 L270.120607,120.146682 C270.011293,120.113023 269.267694,120.308663 268.56863,120.453815 L267.908702,120.131956 L267.522732,119.942627 C267.298708,120.57162 266.869553,120.887167 266.571303,120.649455 C266.271704,120.409638 265.445783,120.066743 265.256846,120.304456 C265.06926,120.544272 264.336457,121.103844 264.181259,120.851405 C264.024712,120.596863 263.225781,120.228724 262.580699,120.319181 L262.139398,120.598967 C261.637367,120.912411 261.18392,120.842991 260.79795,120.540065 L260.362047,120.197169 C260.021961,120.491681 259.58201,120.638936 259.384976,120.53165 C259.187943,120.42226 258.480781,120.178236 258.279699,120.121438 C258.078617,120.066743 257.401145,120.31287 257.166324,120.533754 C256.931503,120.756741 256.154165,120.53165 255.946336,120.624211 C255.737156,120.716772 254.899089,120.596863 254.639976,120.586345 C254.382213,120.575827 253.6791,120.369669 253.658857,120.13406 C253.637264,119.896347 253.492863,119.237903 253.394346,119.32205 C253.295829,119.408299 253.020522,119.43144 252.955744,119.221074 C252.892315,119.014916 252.46451,118.859246 252.248582,118.99388 L252.131172,119.378848 C252.035354,119.692292 251.57381,119.812201 251.298503,120.060432 C250.511718,120.769363 250.491475,120.77357 249.660155,119.932109 L249.529249,119.801682 C249.344361,119.662841 249.05151,119.711225 248.878768,119.908969 C248.704677,120.102505 247.970525,120.483266 247.728956,120.20348 C247.487388,119.925798 246.773478,119.332568 246.73974,119.578695 C246.704651,119.824823 246.318682,120.53165 245.957004,120.588449 C245.596675,120.643144 243.739701,120.394913 242.530509,120.754637 L241.356405,120.174029 L240.992028,119.995219 C240.373936,120.504303 239.76934,120.708357 239.64923,120.449608 C239.53047,120.188755 238.96906,120.678906 238.904281,120.763052 C238.840853,120.845094 238.288889,120.874546 237.730177,120.861924 C237.172815,120.849302 235.580352,120.455919 235.369823,120.384394 C235.157945,120.31287 234.372509,120.739912 234.116096,120.962899 C233.861032,121.181679 232.584362,121.103844 232.053991,121.646586 L231.4332,120.893478 L231.063425,120.4454 C230.626173,120.632625 230.058014,120.620004 229.798901,120.418053 C229.539789,120.216102 228.774597,121.053356 228.49794,121.112258 C228.222633,121.173264 227.395362,120.794607 227.367021,120.569516 C227.338681,120.344425 226.948662,119.887932 226.595082,120.317077 L226.337319,120.68732 L226.039069,121.112258 C225.700333,120.927137 225.29412,120.868235 225.136223,120.981832 C224.976977,121.097533 224.469548,121.270032 224.441208,121.026009 C224.412867,120.784088 224.263068,120.699942 224.165901,121.356282 L223.561304,121.000765 L223.245511,120.815643 C222.979651,120.927137 222.605827,121.05546 222.412842,121.10174 C222.336188,121.119411 222.175754,121.064043 221.996059,120.995952 L221.720136,120.891812 C221.537311,120.826077 221.367484,120.777778 221.275175,120.807229 C221.044403,120.88296 220.233327,120.794607 219.982311,120.57162 C219.731296,120.348632 218.836547,120.472748 218.439781,120.314974 L218.091599,120.216102 C217.943149,120.174029 217.626006,120.493784 217.599015,120.4454 C217.380298,120.075157 217.24577,120.211736 217.095371,120.36815 L217.011161,120.452507 C216.982165,120.47933 216.952043,120.503882 216.920194,120.523235 C216.809531,120.588449 216.557166,120.235035 216.350686,120.121438 C216.314248,120.102505 216.12936,120.33601 216.126661,120.451711 L216.125312,120.558998 C216.258917,120.681009 216.325044,120.83668 216.273762,120.9061 C216.222479,120.977625 215.970114,120.933448 215.791974,120.834576 C215.615184,120.735704 214.871584,120.811436 214.531499,121.004972 L214.223803,121.002868 C213.743365,121.000765 213.078039,120.53165 212.824325,120.792503 L212.330391,121.288965 C211.930926,120.99235 211.430245,120.779881 211.215667,120.81354 C210.99974,120.847198 210.296627,121.217441 210.106341,121.419392 C209.917405,121.623446 209.743313,120.718875 209.712274,120.674699 C209.679885,120.628418 209.234535,120.66418 208.727106,120.742015 C208.218328,120.819851 206.57998,121.061771 206.210205,121.112258 C205.840429,121.160642 204.805328,119.843756 204.670374,120.035188 C204.535419,120.224517 204.212878,121.150124 203.647419,121.244789 C203.08061,121.341557 200.921338,120.369669 200.004997,120.005737 L199.203367,120.988143 L198.983391,121.25741 C198.430078,121.105947 197.85922,120.885064 197.713469,120.771467 C197.569068,120.653662 196.976618,120.847198 196.7337,120.672595 C196.489432,120.495888 195.682404,120.965003 195.556896,120.990246 C195.430039,121.019698 194.718829,120.954484 194.264032,120.870338 C193.807886,120.786192 191.950912,121.011283 191.12634,121.25741 L190.432674,120.567412 C190.41513,120.550583 188.751141,121.103844 188.729548,121.131191 C188.643177,121.236374 188.568953,121.415184 188.469086,121.444636 L188.046679,121.568751 C187.65666,121.286862 187.367857,120.861924 187.402946,120.622107 C187.438034,120.382291 187.317924,119.6965 187.157328,119.6965 C186.996733,119.6965 186.656647,119.881621 186.779456,120.106712 L186.794301,120.348632 L186.814544,120.653662 C186.806447,121.114362 186.456915,121.38363 186.038556,121.248996 L185.674179,121.242685 L185.382677,121.236374 C185.074981,121.362593 184.467685,121.501434 184.034481,121.551922 C183.601277,121.600306 182.325957,121.236374 182.069544,121.392044 C181.81313,121.547715 180.961567,121.206923 180.718649,121.389941 C180.477081,121.572958 179.663305,121.25741 179.53105,121.352075 L179.396095,121.379422 C178.761809,121.505642 178.186903,121.482501 177.525626,121.192197 L176.94937,120.937655 C176.386921,120.955132 175.796012,120.964542 175.401439,120.966584 L175.080637,120.966197 C175.054114,120.965886 175.03094,120.965488 175.011424,120.965003 C174.759059,120.956588 174.502645,120.142474 174.186852,120.681009 L174.019508,120.981832 L173.927739,121.145917 C173.838669,121.337349 173.406815,121.610824 172.969562,121.75808 C172.532309,121.903232 171.221901,121.18799 171.003275,121.12488 C170.783299,121.059667 170.341998,121.126984 170.193548,121.023905 C170.046448,120.92293 169.432405,121.040734 169.243468,121.076496 C169.055882,121.114362 168.22861,121.181679 167.818349,121.114362 C167.409437,121.049149 166.337898,120.645247 166.319004,120.537961 C166.298761,120.430675 166.066639,120.66418 165.837217,121.282654 L165.136803,120.746223 C164.943818,120.598967 164.420194,121.316313 164.020729,121.387837 L163.673896,121.450947 C163.262285,121.21113 162.614503,121.457257 162.232582,122 L161.649579,121.354178 L161.317591,120.986039 C160.771025,120.674699 160.242003,120.59476 160.140787,120.809332 C160.039571,121.026009 159.565881,121.56244 159.42148,121.295276 C159.277079,121.030216 158.729163,120.765156 158.459254,121.171161 L158.206889,121.356282 C158.062488,121.461465 157.625235,121.326831 157.621187,121.27424 L157.560457,120.239242 C156.857344,119.946835 156.246001,119.974182 156.201466,120.298145 C156.15828,120.622107 155.762863,121.217441 155.389039,121.116466 L155.088091,121.232167 C154.85462,121.32052 154.696723,121.610824 154.668382,121.082807 C154.638692,120.523235 154.316151,120.390705 154.084029,120.645247 C153.433549,121.364697 152.693998,120.878753 152.009779,121.026009 L151.534739,121.129088 C151.008416,121.238478 150.503687,121.333142 150.411918,121.339453 L150.328246,121.32052 L149.760087,121.183783 C148.982749,120.990246 148.556293,120.725186 148.811357,120.596863 C149.066421,120.466437 148.545497,119.786957 148.499612,119.568177 C148.453728,119.349397 148.143332,119.12641 148.123089,119.595524 C148.102846,120.068846 147.839685,121.217441 147.584621,121.040734 L147.414578,120.838783 L147.212146,120.598967 C147.012414,120.125645 146.557617,119.974182 146.201337,120.260279 C145.843708,120.546376 144.855841,120.771467 144.727634,120.413846 C144.599427,120.056224 144.009676,119.41461 143.733019,119.883725 L143.73032,120.260279 L143.722223,121.375215 C143.260679,121.417288 142.510332,121.32052 142.056885,121.156435 C141.603437,120.994454 140.288981,121.253203 140.197212,121.200612 C140.105442,121.145917 139.653345,120.939759 139.414475,120.821954 C139.174256,120.708357 138.120262,120.805125 137.608784,121.057563 L137.276796,120.887167 L136.951556,120.718875 C136.745075,120.073054 136.342911,119.702811 136.059507,119.902658 C135.774753,120.098298 135.137767,120.748326 135.167457,120.920826 L135.156661,121.080704 L135.147214,121.221648 C135.085135,121.371008 134.955579,121.467776 134.861111,121.434117 C134.765293,121.404666 134.410363,120.988143 134.21063,120.683113 C134.012247,120.373876 133.170131,121.023905 133.039225,121.042838 C132.909669,121.059667 132.345559,120.927137 132.072951,120.821954 L132.043261,120.655766 L131.943394,120.102505 C132.303723,120.102505 132.858386,120.060432 133.175529,120.005737 C133.492672,119.953145 133.635724,118.825587 133.326678,118.745649 C133.017632,118.667813 132.102641,118.73513 132.098592,119.10327 L131.966337,119.441958 C131.805741,119.858481 131.531783,120.489577 131.280768,120.510614 C130.587102,120.565309 131.133667,119.648116 130.843515,119.307324 L130.801679,119.25894 C130.734202,119.202141 130.452147,119.559762 130.174141,120.056224 C129.894785,120.550583 128.430529,120.535857 127.974383,120.575827 C127.518236,120.6179 127.020254,119.423025 126.882601,119.868999 C126.744947,120.317077 127.727416,120.645247 127.786796,120.714668 C127.846176,120.788296 127.875866,121.18799 127.722018,121.434117 L127.560072,121.465672 L127.354941,121.503538 C127.113373,121.364697 126.595148,120.83668 126.205129,120.329699 L126.109311,118.537387 C126.095816,118.29757 125.616727,117.864218 125.593785,117.889462 C124.419681,119.117995 124.813748,117.639127 124.686891,117.06483 L124.673396,116.999616 C124.547888,116.862879 124.425079,117.100592 124.398088,117.52553 C124.371097,117.948364 124.090392,118.726716 123.827231,118.385924 C123.565419,118.047236 123.161905,119.572384 123.072835,119.864792 C122.985115,120.1572 122.574853,121.059667 122.412908,121.099636 C122.250962,121.139606 121.346767,121.057563 120.662548,121.120673 L120.047155,121.166953 L119.916249,121.175368 C119.774547,121.263721 119.655787,121.200612 119.651739,121.036527 C119.64904,120.874546 119.670632,120.481162 119.661185,120.176133 C119.653088,119.868999 120.141623,119.216867 120.41828,119.267355 L120.638256,119.338879 L120.840688,119.404092 C121.022876,119.622872 121.42639,119.904761 121.738135,120.028877 L122.041783,120.087779 C122.187534,120.113023 122.453394,120.00784 122.49388,119.877414 L122.661224,119.353604 C122.802926,118.75827 123.156507,118.261808 123.448009,118.253394 L123.541127,118.074583 C123.750307,117.668578 123.748957,117.037482 124.005371,116.732453 L124.491207,116.149741 C124.211851,115.653278 123.840726,115.2052 123.665285,115.154713 C123.489845,115.102121 122.947327,115.451328 122.947327,116.069802 C122.947327,116.688276 122.592397,118.287052 122.192932,118.305985 L121.954062,118.733027 C121.657162,119.25894 121.371059,119.315739 120.927059,118.840313 L120.701685,118.600497 C120.26983,118.916044 119.747556,119.61025 119.541076,120.140371 C119.335945,120.670491 118.288698,121.158539 118.449294,120.815643 C118.542975,120.614394 118.762023,120.18408 118.947318,119.815327 L119.094166,119.521108 C119.159745,119.388315 119.210775,119.28208 119.234729,119.225281 C119.331896,119.000191 118.750243,118.411168 118.644978,118.034614 L118.488431,117.864218 L118.110558,117.449798 C117.871689,116.871294 117.596382,116.229679 117.496515,116.01721 C117.397998,115.802638 116.901366,116.505258 116.761013,116.852361 L116.766411,117.170012 L116.769111,117.367756 C116.812296,117.628609 116.704332,118.29126 116.528892,118.84452 C116.353451,119.397781 116.304867,121.047045 116.23739,121.080704 C116.168563,121.118569 115.929694,121.063874 115.855469,120.88296 C115.782593,120.706253 115.395274,120.077261 115.223882,119.816408 C115.052489,119.557659 115.844672,118.932874 115.93914,118.716197 C116.030909,118.501625 116.025511,118.137693 115.724563,118.42379 C115.423614,118.707783 114.54641,117.889462 114.356124,117.967297 C114.165838,118.045132 114.376367,118.985465 114.454641,119.288391 L114.482981,119.570281 L114.511322,119.858481 C114.499176,120.161407 114.074069,120.31287 113.56799,120.197169 L113.155029,120.228724 L113.084853,120.232931 C113.018725,120.893478 112.870275,121.352075 112.755564,121.251099 C112.640852,121.14802 112.033557,121.18799 111.665131,121.347868 L111.654335,121.318416 L111.43166,120.710461 C111.81763,120.620004 112.090238,120.346529 112.037606,120.104609 C111.986323,119.864792 111.615198,119.328361 111.384426,119.694396 C111.153654,120.060432 110.312887,120.948173 109.970103,120.948173 C109.627318,120.948173 108.689385,120.910308 108.685336,120.868235 C108.683986,120.821954 108.866175,120.676802 109.098297,120.64104 C109.330419,120.605278 110.003841,120.171925 110.005191,119.768024 C110.005191,119.366226 110.975514,118.903423 111.159052,118.852935 C111.341241,118.800344 111.872961,118.49321 111.947186,118.341747 L111.918846,118.234461 C111.885107,118.101931 111.721812,117.893669 111.666481,117.916809 C110.739344,118.303881 109.825702,118.764581 108.824339,118.709886 L108.150916,118.674124 C107.825676,119.330464 107.423511,119.974182 107.256168,120.102505 C107.090174,120.232931 106.733894,119.54714 106.650222,119.458787 C106.5679,119.372537 106.175182,119.092751 105.994343,118.981258 C105.814854,118.871868 105.38165,118.453241 105.486914,118.320711 C105.592179,118.18818 105.991644,117.914706 106.140094,118.013577 L106.18328,118.156626 L106.41945,118.918148 C106.934976,118.79824 107.445104,118.613118 107.554417,118.510039 C107.662381,118.404857 107.858065,117.843181 107.852667,117.57181 C107.848618,117.300439 107.119864,116.812391 106.874247,116.753489 L106.859402,116.652514 C106.644824,115.106329 105.999742,115.983552 105.876933,116.511569 C105.659656,117.460317 104.953844,117.542359 104.52199,118.051443 L104.137369,118.505832 C103.883655,119.094855 103.627241,119.328361 103.566512,119.025434 L103.536822,118.745649 L103.481491,118.242875 C103.026694,117.965193 102.346523,117.491871 101.97135,117.193153 L101.903872,116.831324 C101.737878,115.937272 101.303325,115.90782 100.737866,115.914131 C100.493598,115.916235 100.208844,115.520748 100.01316,115.59648 C99.8215246,115.670108 99.7365032,116.132911 99.5718587,116.389557 L99.5151778,116.480014 C99.3006002,116.513673 99.2938525,116.681965 99.4989833,116.850257 C99.7041141,117.020653 100.081987,117.628609 99.909245,117.849492 C99.7365032,118.07248 98.4598337,117.270988 98.6109827,117.008031 L98.6825086,116.749282 C98.8970862,115.983552 98.6069341,115.535474 97.9888425,115.842607 C97.5030063,116.082424 97.3721004,115.537578 97.073851,115.497608 L96.6959784,115.445017 C96.249279,115.495504 95.4071629,115.726906 94.8241595,115.962515 L94.5056669,115.720595 L94.1035024,115.419773 C93.7377758,115.482883 93.1858119,115.657486 92.8754165,115.806845 C92.5636716,115.956205 91.4853852,115.489194 91.2465157,115.417669 C91.0076462,115.346145 90.400351,115.476572 90.100752,115.440809 C89.9516273,115.422928 89.6435936,115.390848 89.339946,115.404784 L89.275,115.409 L89.3217005,115.448586 C89.4991185,115.619406 89.7034607,115.91842 89.8031715,116.107523 L89.8436986,116.191814 C89.8577165,116.225065 89.2639152,116.243681 88.2453357,116.250625 L88.241,116.25 L88.2714787,116.223368 C88.3503752,116.10168 88.5861702,115.757727 88.8062007,115.531739 L88.851,115.487 L88.7868825,115.511856 C88.7118078,115.545875 88.6493164,115.589468 88.6054562,115.644864 C88.4454601,115.847983 87.981554,116.062887 87.5417558,116.051444 L87.465,116.045 C87.4586028,116.123796 87.4562785,116.181003 87.4577093,116.226388 L87.459,116.253 L86.767,116.253 L86.7127796,116.295254 C86.6581873,116.337607 86.6203104,116.368126 86.6101888,116.374831 L86.556207,116.397972 C86.402134,116.464587 86.2900259,116.409139 86.1937054,116.303859 L86.15,116.251 L86.1172433,116.25165 C85.1887826,116.248162 84.1280012,116.24055 82.9835275,116.229602 L82.889,116.228 L82.834127,116.244668 C82.3857407,116.380617 81.926558,116.542072 81.6539499,116.652514 C81.1087338,116.86919 79.4258512,116.364313 78.7686227,116.501051 L78.311,116.172 L78.5008441,116.175946 C79.0681384,116.183913 79.6306411,116.191412 80.184083,116.198372 L80.454,116.201 L80.3588722,116.14151 C80.1633573,116.01193 79.957896,115.847416 79.8044334,115.691144 C79.535874,115.417669 78.1728335,116.141326 78.0365295,115.886784 C77.9002255,115.634346 77.361757,115.230444 77.1930639,115.489194 C77.0257203,115.750046 76.415726,115.213615 76.3172092,115.341938 L76.2362365,115.466053 C76.1363702,115.61962 76.0351543,115.918339 75.952832,115.909924 C75.8820206,115.902499 75.7989559,115.915689 75.7138343,115.930091 L75.5858838,115.950179 C75.3531531,115.979781 75.1434226,115.945191 75.1687464,115.442913 L75.1795428,115.228341 C75.5371722,114.980109 75.6964185,114.679287 75.5331235,114.563586 C75.3698286,114.445782 74.8448556,114.338495 74.7206975,114.580415 C74.5965393,114.824439 74.0499736,115.421877 74.0567213,114.832854 L74.0378277,114.548861 C74.0283809,114.412123 73.94201,114.163892 73.9177182,114.170203 L73.6194688,114.231209 C73.2969275,114.32377 73.0985444,114.037673 73.176818,113.593802 L72.6477964,113.781027 L72.54793,113.816789 C72.4588601,113.95563 72.1133765,113.938801 71.7773398,113.781027 C71.4413031,113.62115 70.1551868,113.614839 69.7840619,113.642186 C69.4115875,113.66743 68.2334347,112.947981 67.9243889,113.000572 C67.6166926,113.053163 66.7988684,113.274047 66.6787589,112.81545 C66.5572998,112.35475 65.1456758,112.077068 65.0188185,112.125452 L64.9999249,112.091794 L64.3426965,110.823291 C63.1793887,110.629755 62.1361905,110.436219 62.0255278,110.385731 C61.9148651,110.339451 61.3898921,110.362591 60.9755818,110.320518 C60.5612715,110.276341 58.8527475,110.427804 58.1064491,110.514054 L57.9579992,109.317075 C57.9431542,109.186649 57.6476038,108.963661 57.5855248,109.009942 L57.157719,109.327593 C56.724515,109.079362 56.2764661,108.707016 56.1617548,108.505065 C56.0470435,108.298907 55.2993955,107.911835 55.0794197,107.77089 C54.8580943,107.627842 54.1819723,107.354367 54.0888537,107.39644 C53.9957351,107.440617 53.6880388,107.308086 53.6151634,106.994642 L53.4748107,106.792691 C53.3965371,106.683301 53.1252786,106.666472 53.0011204,106.750618 C52.5179833,107.076685 51.9808644,107.135587 51.6353809,107.162934 C50.887733,107.219733 51.2534597,106.815832 51.2952956,106.357235 C51.3168883,106.117419 50.8526448,105.829218 51.442396,105.734554 C51.7150041,105.690377 51.9849131,105.534707 52.2345789,105.372726 C52.5166338,105.191811 52.4680502,105.002483 52.252123,104.712178 L52.0186517,104.400838 C52.2561716,104.118948 52.7190655,103.555169 53.049704,103.149164 C53.3803426,102.741055 53.7798079,101.17173 53.4154307,101.089688 L53.1495704,101.133864 L52.8378255,101.184352 C52.507187,101.346333 51.9943599,101.306364 51.7001591,101.091791 C51.4059583,100.877219 51.4761346,99.0428332 51.5881468,98.3149692 L51.6050558,98.2027555 L51.6050558,98.2027555 L51.6434624,97.936833 C51.6707261,97.7438202 51.7008017,97.5229605 51.7306488,97.295944 L51.774868,96.9535131 C51.8614435,96.2702613 51.9322808,95.6292052 51.9052899,95.6159822 C51.8607549,95.5907384 51.5004264,95.90839 51.2399642,96.3312243 L50.8863834,95.6328114 L50.7068939,95.2772941 C50.7743712,94.9407096 50.9822011,94.3411684 51.1697879,93.9456816 L50.8418484,93.7521455 L50.6677571,93.6490665 C50.2628936,93.930956 50.0213251,93.8615355 50.1333373,93.4954998 L50.1562796,93.1904701 L50.2183587,92.3490089 C49.9309056,91.5243768 49.6690939,90.5482818 49.6394039,90.1801425 C49.6083643,89.8120032 49.9767901,88.5981953 50.5220063,88.2637145 C51.0658729,87.92713 51.0618243,86.004391 50.6650581,86.1579577 L50.4342859,86.4019814 L50.1886687,86.6628344 C49.9066138,86.9005472 49.3613976,86.5071641 48.9781268,85.7856111 L49.1778595,85.173448 C49.2439872,84.9757046 49.2358899,84.7358881 49.3182122,84.5528703 C49.5138962,84.1111032 49.7433188,83.6966835 49.9565469,83.2675382 C50.1954164,82.783698 50.4720731,83.8881159 50.7514289,83.2233615 L50.8310521,83.0319291 C51.1643897,82.9393683 51.1266024,82.7311067 50.7500794,82.5649181 L50.7325353,82.3861076 C50.7041949,82.0894925 50.8890825,81.7255605 51.0469793,81.4499819 C51.1306511,81.3048299 51.3668214,81.3174518 51.5017759,81.1975435 C51.8283658,80.9093431 51.9255331,80.036327 51.6029918,79.9080042 C51.2035265,79.7460229 51.0969125,79.5419685 50.9484625,79.0896831 L50.8701889,78.8519703 C50.3047295,78.7720315 50.3600609,78.4606908 50.9916479,78.1640757 C51.6245845,77.8674606 53.3277103,76.6178906 54.1185437,77.2910596 L55.0807693,77.0849016 C55.2710551,77.0449322 55.6772681,77.5855711 55.7568913,77.9410885 L55.9539249,78.8204155 C56.4154692,78.5658735 56.662436,78.0084054 56.5045392,77.5813638 L56.5328797,77.2216391 C56.6192505,76.1298431 56.7650014,75.0401508 56.94719,73.9693913 L56.9890259,73.7295749 C57.2427403,73.5318315 57.5625825,73.3004296 57.7002361,73.2225945 C57.8392392,73.1426556 58.1860723,72.4926268 58.4357381,72.4863159 C58.5558911,72.4842801 52.4395688,72.4462895 46.104029,72.3987979 L44.835781,72.3891808 C38.4977556,72.3405399 32.3416631,72.2841616 32.3847615,72.2464994 C32.475181,72.1707679 32.7666827,71.794214 32.8719473,71.63644 C32.9785613,71.4807697 33.4819416,72.0718962 33.5602152,72.1686642 C33.6371393,72.2654323 34.0595468,72.3874442 34.094635,71.9540916 C34.1324223,71.5228427 34.4617113,70.7760458 34.7653589,71.0474171 C35.0690065,71.3187884 35.9030253,70.7381801 35.8409462,70.6498267 C35.7788672,70.5635769 35.7680708,70.2080595 35.954308,70.0523892 L36.0568734,70.1112915 C36.4819801,70.3469006 36.9718649,71.2304349 37.1108681,69.81678 L37.1135672,69.7873289 C37.244473,69.7810179 37.5656647,69.8672677 37.8261269,69.9787613 C38.0865891,70.0923586 38.9341033,69.6400731 39.1797205,69.6190366 C39.4239882,69.5980001 40.1905297,69.6926645 40.5657032,69.6926645 C40.9408767,69.6905608 41.5819106,68.8049228 41.3147007,68.6324233 C41.0474908,68.4620274 40.4712351,67.5343163 40.6156364,66.9473971 C40.7600377,66.3604779 39.2863346,64.6964882 39.4118423,64.6417933 C39.540049,64.5892019 39.6763531,64.0717033 39.2903832,63.6720092 L39.2984805,63.3354247 L39.3187237,62.5781095 C38.9314043,62.5612803 38.4685103,62.3530186 38.2890208,62.1132022 L38.1662122,61.8628675 L37.8909051,61.2990884 C38.0663459,60.6532669 38.0744432,59.5740928 37.9084492,58.9051311 L37.8058837,58.2719315 L37.7734947,58.0741881 C37.8315251,57.8112315 38.2013004,57.8596155 38.5953676,58.1835781 C38.9880851,58.505437 40.2067243,57.9269324 40.2391133,57.8175425 C40.2715024,57.7102561 40.1459947,57.2832146 39.8949794,57.1149223 L39.777569,57.2032757 L39.5063104,57.4073301 C39.1554287,57.6765977 38.9260061,57.674494 38.9948329,57.4031228 L39.0501642,57.1527881 L39.1068451,56.8919351 C39.1608269,56.6016309 39.1270883,56.4038875 39.0326201,56.4543752 C38.9368024,56.5027592 38.5211426,56.5616615 38.3187108,56.4733081 C38.1149295,56.3870583 38.5170939,55.1206591 38.6736412,54.4979778 L39.2296537,54.3444111 C39.3389668,54.3128563 39.53735,54.2434358 39.5360004,54.2076737 L39.44828,52.7792932 C40.3268338,52.228136 40.857205,51.6222839 40.6277823,51.4329552 C40.3983597,51.2415227 39.5103591,51.4855465 39.3673073,51.4287478 C39.2242555,51.3719492 38.158115,50.8839017 37.3362421,50.4168907 L36.4765819,50.6356706 C36.0906121,50.7324387 36.0447275,50.4337199 35.9408126,50.002471 L35.7869644,49.3587531 C35.5440463,49.7668619 35.0568606,49.9730199 34.7046294,49.8257641 C34.3510486,49.6764048 33.2579171,49.013754 33.0406404,48.7444864 L33.0689808,48.6939988 L33.3712789,48.1617745 C33.1823426,47.6295503 32.955619,47.0952224 32.8692482,46.9774178 C32.7828773,46.8554059 32.4913756,46.6829063 32.4158011,46.8596132 L32.3132356,46.9711068 L32.1620866,47.1372954 C31.9691017,47.2761365 31.5777336,47.5117457 31.2916301,47.6547941 C31.0068761,47.7978425 30.10538,48.0439699 29.9623283,47.8651594 C29.820626,47.6842452 29.5250757,46.891168 29.6735256,46.5629981 C29.820626,46.2390355 30.8921648,46.7712598 31.3159219,46.7859853 L31.3820496,46.4388826 C31.4535755,46.066536 31.2255024,45.2313857 31.1053929,45.2250747 L29.2119813,45.1177884 C29.4602975,43.4495915 29.4400544,42.0422475 29.1660967,41.9875525 C28.8934886,41.9328575 28.423847,42.7027946 28.3536706,42.6102338 C28.2821448,42.5197768 28.0783635,42.2547165 28.0540717,42.2252653 C28.0311294,42.1937105 27.8772813,41.8318822 27.7666186,41.4868831 C27.6559559,41.141884 28.0311294,39.9680455 28.1566371,39.686156 L28.1930748,39.4147847 L28.2268134,39.1623463 C28.1782298,38.8678349 27.9892935,38.6574696 27.8071049,38.6932317 L27.64381,38.7416157 L27.5129041,38.7815851 C27.3725514,38.8446947 27.2160042,38.745823 27.1674206,38.5585979 L27.2146547,38.4702445 L27.4683691,37.9906115 C27.9042722,37.2753695 27.8529894,36.9051265 27.3550073,37.1659795 L26.5439308,37.2522293 C25.9366356,37.2290891 25.4089635,36.9661325 25.3725258,36.6653101 L25.3833221,36.4507374 L25.4953344,34.2440053 C24.7719782,33.3289162 24.0823608,32.5126987 23.9622512,32.426449 L23.9258135,32.3128517 L23.7800627,31.850048 C23.8299958,31.3009945 23.6950413,30.3838018 23.4818132,29.8137117 L23.174117,29.6517305 C22.3994782,29.2478291 22.4156727,28.5283797 22.4548095,27.7163696 L22.4696545,27.4113399 C22.4629068,26.8370425 22.064791,26.603537 21.5857025,26.8896339 L21.9001465,26.1512516 C22.1916482,25.4675643 21.6666752,25.4843936 21.5114776,25.2067114 C21.4682921,25.1288762 21.1727418,26.0839347 21.0202432,25.1982967 L21,25.0783885 C21.2442676,24.8764378 21.4858362,24.6744871 21.5371189,24.632414 C21.5884016,24.5861337 21.4440003,23.8793062 21.0931186,23.1619605 L21.2199758,22.3457431 C21.2523649,22.1332741 21.3643771,21.9229088 21.3481826,21.727269 L21.3306385,21.4979709 C21.2213254,21.2581544 21.2496658,21.1003804 21.391368,21.1487644 C21.5344198,21.1971485 22.1417151,21.066722 22.3981286,20.744863 C22.6558917,20.4251077 22.2793686,19.2049889 22.4629068,19.1103245 L22.5087913,19.1629159 C22.9892293,19.7119693 23.4102873,19.817152 23.8272967,19.0451113 L24.1862757,18.3803569 C24.5735951,18.8515752 24.9204282,19.0282821 24.9568659,18.7758437 C24.9946532,18.5234053 25.5992493,17.6524929 26.2186905,17.4000545 L26.6424476,18.5423382 L26.8624234,19.1334647 C27.4575728,18.4750213 27.8462417,17.8902057 27.7261322,17.8376144 C27.6073723,17.785023 27.3077733,17.5010299 27.344211,17.3327376 L27.3712019,17.3348413 C27.6573054,17.3516705 27.9447585,17.3916399 28.2295125,17.4463349 L28.3617679,17.4694751 C28.5021206,17.5388956 28.6748623,17.4210911 28.7436891,17.2128294 C28.8138655,17.0066714 29.3024008,17.1160613 29.3496348,16.9730129 C29.3968689,16.8278609 29.6708265,16.4260631 29.7625956,16.6785015 C29.8557142,16.9288362 30.3914836,17.2338659 30.660043,16.5564896 L30.870572,16.2346307 L30.9866329,16.0621311 C31.2282015,16.0137471 31.6829981,16.1378626 31.994743,16.3398133 C32.3078375,16.541764 33.448203,16.0768567 33.6749265,16.2914293 C33.9016501,16.5017946 34.5683253,16.9877385 34.8193407,16.3734718 L35.0339183,15.9506375 L35.2457969,15.5341142 C35.6371649,15.4941448 36.135147,15.6014311 36.3510742,15.7739306 C36.5670014,15.9485339 37.004254,15.1070726 37.2647162,15.1196945 C37.5238288,15.1323164 38.2633795,15.3700292 38.3605467,15.4836265 C38.4563644,15.5972238 38.908462,15.7676197 39.0164256,15.4184133 C39.1230396,15.0692068 39.6223713,14.2151237 39.8733867,14.3497575 C40.124402,14.480184 40.7316973,14.2908552 40.9287308,14.1772579 C41.1271139,14.061557 41.6912238,14.4065561 41.7910901,14.2992698 L41.8045855,14.1898798 L41.8545187,13.7859784 C42.0866404,13.842777 42.7006834,14.1709469 43.2189087,14.5201534 L43.2836868,13.4178391 L43.289085,13.333693 C43.4010973,13.2600651 43.9166234,13.0518035 44.4348487,12.8687856 C44.9517244,12.6857678 46.6899384,13.1022911 47.1406864,13.0707363 L47.4659268,13.1927482 C47.8006139,13.3210711 48.0219393,13.897472 48.0408329,12.9487245 C48.0421825,12.8498528 48.4281523,12.660524 48.4402982,12.6836642 C48.8465113,13.4325647 49.4578552,12.8267126 49.5725665,12.6289692 C49.9409923,11.9915623 50.457868,12.8582674 50.8532847,12.2566226 L51.0030842,12.029428 C51.6387199,12.3197322 52.2352187,12.5805852 52.3283373,12.6100363 C52.4228055,12.6373838 52.9221371,12.248208 53.2716693,11.8316846 C53.622551,11.4130577 54.8263451,12.1472326 54.8924728,12.0988486 L54.8924728,12.0546719 L54.8654819,10.9292174 C55.4511844,11.1606193 56.3243401,11.0512293 56.8074772,10.6809864 L57.2258361,11.5497951 L57.4323165,11.9789404 C57.86687,11.6865326 58.4404266,11.3036677 58.7076365,11.1248572 L58.9842932,11.0386074 L59.0720137,11.0091563 C59.1624332,10.9670832 59.4701294,10.9586686 59.756233,10.992327 C60.043686,11.0280891 61.0504466,10.8997663 61.3500456,10.9839124 C61.6496446,11.0680585 62.398642,10.5905293 62.472867,10.7104375 C62.5484415,10.8303457 62.8628855,11.1227535 62.9290132,10.9670832 L62.99784,10.8387604 L63.072065,10.6999192 C63.1651836,10.5526635 63.2663995,10.525316 63.297439,10.6368097 C63.327129,10.7504069 63.478278,11.1290645 63.5552021,11.1879668 L63.626728,11.1606193 L64.1651964,10.9628759 C64.7751908,10.7987909 65.3622428,10.6010475 65.471556,10.5169014 L65.5498296,10.4054078 L66.0977449,9.60391596 C66.5134047,10.3444019 66.9398609,10.7651325 67.046475,10.5400416 C67.153089,10.3149507 67.5053203,9.85425068 67.6105848,9.97626256 C67.7171988,10.0982744 67.9466215,9.63126345 67.9655151,8.75824739 L68.7482512,9.86266529 L68.8845553,10.0540977 C69.2894188,9.94681142 69.8143918,9.88159817 70.0546108,9.90894566 C70.2921307,9.9341895 70.8454441,10.1108964 70.8616387,9.83742146 C70.8778332,9.56394655 71.6929584,9.52608079 71.8198156,9.72172053 C71.9453233,9.91525662 72.1666487,9.57025751 72.1491046,8.74562547 L73.0114638,9.78272647 C73.0618468,9.84408302 73.2449445,9.73149375 73.4463727,9.59110656 L73.6208467,9.46737572 C73.7076604,9.40551517 73.7918382,9.34621845 73.8643763,9.3009899 L74.0168748,9.20632551 C74.1666743,9.08431363 74.7942128,8.77297296 75.4109548,8.51211997 C76.0290464,8.25337064 77.6228591,9.41037987 77.7497163,9.41669083 C77.8779231,9.42089813 78.6377169,9.22315474 79.1667385,9.07169171 C79.6957602,8.92022868 81.626959,9.01278942 82.0169775,9.08220998 L82.1843211,8.88657023 L82.5837864,8.41745558 C82.9414159,8.67199761 83.439398,8.91602138 83.6904133,8.95809444 L83.9279332,8.96019809 L84.3597876,8.9644054 C84.7970402,8.68041222 85.3422564,8.37327886 85.5689799,8.28282178 C85.797053,8.19236469 86.921224,8.05562724 87.5217715,8.05352359 L88.0696868,8.02827975 L88.2302827,8.01986514 C88.4030244,7.90837152 88.570368,7.98199938 88.6014075,8.18184643 C88.6324471,8.38379713 89.2802287,8.27440717 89.3719977,8.11032222 C89.4637668,7.94834093 89.860533,7.60334181 90.0049343,7.78635964 C90.1506852,7.97148111 90.655415,8.27440717 90.8605458,8.12294414 C91.0656767,7.97358477 91.9469296,7.54023222 92.363939,7.4960555 L92.500243,7.76532311 C92.799842,8.35644964 93.1493741,7.18261118 93.4773136,7.92940805 L93.6163167,8.24916333 C94.1291438,7.90206056 94.6662627,7.74849388 94.810664,7.90416421 C94.9537158,8.06404185 95.3936675,8.38590078 95.4341538,8.23864506 C95.4746402,8.08928569 95.6595278,7.74007927 95.753996,7.79056694 C95.8484641,7.84105462 96.1588595,7.77584137 96.2330844,7.53602491 C96.3073094,7.2941048 97.5111035,7.37193997 98.2236633,7.1636783 L99.0063994,7.48764089 C99.6352874,7.74849388 100.484151,7.85367654 101.238547,7.16788561 L101.600225,6.83971572 C102.284444,7.01011163 102.914682,7.26255 102.998353,7.39928746 C103.083375,7.53812857 103.496336,7.59071989 103.705515,7.14053812 C103.913345,6.68825269 104.867473,7.45818975 104.933601,7.28148288 C104.998379,7.10477602 105.268288,6.69035635 105.307425,6.97855683 C105.345212,7.26675731 105.55844,7.59913451 105.712288,7.21837329 C105.866137,6.83971572 106.988958,7.39928746 107.450502,7.22468425 L107.999767,7.34669613 L108.721774,7.50657377 C109.59358,7.05428834 110.356073,6.81657554 110.416802,6.97855683 C110.476182,7.14053812 110.709654,7.46870801 110.77848,7.28569019 C110.848657,7.10056871 111.161751,6.62724675 111.335842,6.60410657 L111.399271,6.68404539 L111.913448,7.34038517 C112.600366,7.23730617 113.531552,7.19733676 113.9823,7.24992808 C114.433048,7.30041576 115.844672,6.9932824 116.175311,7.37825093 L116.565329,6.67563077 C116.631457,6.5578262 117.117293,6.88599609 117.404746,6.87127052 L118.25226,6.83550841 C119.183447,6.74505133 120.487107,6.52416775 121.147034,6.34535723 L121.640968,7.09005044 L121.740834,7.23940982 C122.064725,7.15316004 122.55326,7.08584314 122.828568,7.0921541 C123.103875,7.09846506 123.778647,7.31093403 123.806988,7.06691026 C123.836678,6.82499015 124.736824,6.9575203 125.049919,7.44136052 L125.537104,6.83550841 L125.695001,6.63986867 C126.134953,6.76398421 126.657227,6.90072166 126.85561,6.93858742 C127.055342,6.97855683 127.782747,7.10477602 128.049957,7.11108698 L128.292875,7.11108698 C128.476413,7.11108698 128.666699,7.15526369 128.838091,7.10056871 C129.028377,7.03745912 129.191672,6.84181937 129.381958,6.78922804 L129.49532,6.7597769 C129.64377,6.86075225 129.935271,6.85654495 130.143101,6.74925863 C130.352281,6.64197232 130.994664,6.98697144 131.314506,7.32145229 L131.30371,6.44633258 L131.30371,6.44002162 C131.498045,6.43371066 132.190361,6.69877096 132.842191,7.02694085 L133.444088,7.06480661 L133.91508,7.0921541 C134.4468,6.7597769 134.979871,6.42108874 135.098631,6.33904627 C135.217391,6.25490014 135.654643,6.65038694 135.84223,7.16157465 L136.415786,6.88809974 C136.714036,6.74505133 137.255203,6.60621022 137.365866,6.78712439 C137.836857,7.55075048 137.989356,6.29907686 138.423909,6.61462483 L138.801782,6.8902034 C139.338901,6.9259655 140.028518,7.06901391 140.333516,7.20785502 L140.429333,7.08794679 L141.004239,6.3600828 C141.619632,6.7240148 142.221529,6.90072166 142.340289,6.75346594 C142.460398,6.60200291 142.923292,6.33273531 143.046101,6.5620335 C143.16756,6.78922804 143.534636,7.43504956 143.558928,7.43294591 C143.58187,7.43084225 143.946247,7.1910258 144.278236,6.96383126 C144.610224,6.73663672 145.992158,6.70718557 146.433459,6.79764266 C146.87611,6.8902034 148.059661,6.71980749 148.401095,6.91334358 C148.74388,7.10687967 149.619735,6.39584491 149.922033,6.64407598 L149.93148,6.62724675 L150.765498,5.16100051 C151.870776,5.78157819 152.996296,6.28014398 153.267555,6.27172937 C153.538813,6.2612111 154.044893,6.1265773 154.011154,6.53468601 C153.985962,6.85374007 154.619599,6.44360562 155.030088,6.17034425 L155.189779,6.06413718 C155.236741,6.03321146 155.276577,6.00760403 155.306717,5.98983985 C155.579325,5.82996221 156.167727,5.95197409 156.368809,6.01087638 C156.569891,6.06977867 157.088117,5.8573097 157.135351,6.00246177 C157.182585,6.14551018 157.425503,6.51154583 157.519971,6.33483896 C157.614439,6.1581321 158.23388,5.7226759 158.704871,5.7268832 L159.09354,6.01508369 L160.254149,6.5620335 L160.520009,6.30538782 C160.868192,5.96669966 161.20153,5.79420011 161.262259,5.92673025 C161.321639,6.0592604 161.791281,6.54099697 162.084132,6.7913317 L162.702224,6.02139465 L162.7724,5.93304121 C162.924899,5.93724852 163.192109,6.07188232 163.36485,6.23386361 C163.537592,6.39584491 164.602383,6.33273531 165.255563,5.95197409 L165.308195,5.88255354 L165.553812,5.54807269 C165.862858,5.72057225 166.040998,6.40846682 165.950579,7.07742853 L166.742761,6.4231924 L167.343309,5.92673025 C167.302823,6.55361889 167.314968,6.70508192 167.372999,6.26541841 C167.431029,5.82365125 168.300136,6.49682026 168.346021,6.47999103 C168.391905,6.46105815 168.780574,6.36639376 169.105815,6.2612111 C169.432405,6.15602845 170.649694,6.67142347 170.976284,6.78712439 C171.302874,6.90282531 172.108552,6.31169878 172.228662,6.46526546 C172.350121,6.61672849 172.687507,7.0248372 172.715848,7.03745912 C172.744188,7.05008103 172.906133,6.8902034 173.049185,6.70928922 C173.190887,6.52837505 173.826523,6.32221705 174.080238,6.44843623 L174.321806,6.47368007 C174.462159,6.4905093 174.711825,6.1581321 174.752311,6.20441247 L175.161223,6.68194173 C175.580932,6.43791797 176.343424,6.44212528 176.856252,6.69035635 L177.33399,6.90282531 L177.524276,6.98697144 C177.760447,6.98486779 178.068143,6.85654495 178.208496,6.70508192 C178.347499,6.55361889 178.934551,6.51364948 179.119439,6.33483896 C179.304326,6.15602845 180.47843,6.54730793 181.053336,6.59989926 L181.590455,6.65459424 L182.046602,6.69877096 C182.52704,6.89230705 182.996681,6.94279472 183.091149,6.80816092 C183.185618,6.67142347 183.744329,6.39794856 184.122202,6.49261295 L184.412354,6.67563077 C184.717351,6.86916686 184.971066,7.47922628 184.98861,6.47788738 C184.989959,6.44843623 185.212634,6.39584491 185.327345,6.40846682 C186.031808,6.47999103 186.756514,6.73453306 187.432636,6.5935883 L187.95356,6.48630199 C188.365171,6.73242941 188.792977,6.94910568 188.906339,6.97224587 C189.019701,6.9932824 189.533877,6.84602668 189.818631,6.74294768 C190.102036,6.63566136 191.859143,6.82499015 192.346329,7.03956277 C192.832165,7.2583427 194.18171,6.20651612 194.493455,6.22334535 C194.806549,6.24017457 195.959061,6.02560195 196.353128,5.76895627 C196.748545,5.51441424 197.663536,6.60200291 197.767451,6.58307004 C197.872716,6.5620335 198.458418,6.00877273 198.708084,6.43160701 L198.965847,6.50733852 C199.234407,6.58307004 199.617677,6.12026634 199.860595,6.225449 L200.365325,6.44212528 C200.632535,6.05294944 201.014456,5.75002339 201.212839,5.77105992 L201.336998,5.88465719 L201.56777,6.10133347 C201.780998,6.40215587 202.060354,6.51575314 202.188561,6.35377184 C202.315418,6.19179055 202.658202,5.98983985 202.682494,6.24438188 C202.705436,6.49682026 203.481425,6.54099697 203.608282,6.33904627 C203.735139,6.13919922 204.292501,5.87413893 204.412611,6.10554077 C204.531371,6.33483896 204.932185,6.97645317 205.010459,6.96803856 L205.03745,6.8944107 C205.29005,6.21255269 205.625306,6.34402107 205.961236,6.50454933 L206.095449,6.56845149 C206.22931,6.6301855 206.36153,6.67983808 206.486861,6.66721616 L206.718983,6.64197232 C207.057719,6.47999103 207.457184,6.38743029 207.606984,6.43371066 C207.758133,6.48209468 208.168394,6.53678967 208.435604,6.69246 C208.702814,6.84602668 209.852627,6.3916376 210.339812,6.58517369 L210.87963,6.41057048 C211.17788,6.31590609 211.588141,6.7282221 211.870196,6.61041753 L212.353333,6.40846682 C212.831072,6.54099697 213.566574,6.69246 213.987632,6.75136229 L214.38035,6.65880155 L215.068618,6.49682026 C215.840558,6.40846682 216.57606,6.32011339 216.701567,6.30118051 C216.827075,6.28224764 217.231939,6.67773443 217.423574,7.01852624 C217.615209,7.35931805 218.47217,6.82288649 218.615222,6.97855683 C218.758274,7.13633081 219.213071,7.43715321 219.308888,7.29831211 L219.291344,7.1952331 C219.237362,6.88178878 219.028183,6.33904627 219.059222,6.32011339 L219.51132,6.01508369 C219.612536,6.4905093 219.794724,6.92806915 219.914834,6.98486779 C220.036293,7.04166642 220.379077,6.87127052 220.500536,6.73032576 C220.621996,6.58517369 221.049801,6.33063166 221.188804,6.49682026 C221.327808,6.6609052 221.716476,6.51785679 221.747516,5.82365125 L222.453328,6.28435129 L222.474921,6.29907686 C222.362909,6.6566979 222.649012,6.8586486 223.110556,6.75136229 C223.572101,6.64197232 224.674679,7.4602934 224.774545,7.33197056 L224.771846,7.21837329 L224.755652,6.4231924 C225.178059,6.57044812 225.609914,6.81026458 225.716528,6.95962395 C225.821792,7.10898332 226.180771,7.40980572 226.210461,7.15526369 C226.241501,6.89861801 226.555945,6.50733852 226.847447,6.81657554 C227.138948,7.1237089 228.329247,6.63986867 228.654487,6.62935041 C228.979728,6.62093579 229.829941,7.19312945 229.896069,7.38876919 C229.963546,7.58861624 230.843449,7.21626963 230.95951,7.01642258 C231.07827,6.81447188 231.711207,6.61672849 231.919037,7.34248882 L232.546575,7.11529428 C233.209202,6.87547782 232.137663,6.33063166 232.61945,6.24017457 L233.107986,6.14971749 C233.630549,6.16729802 234.82104,6.18306468 235.845298,6.18522737 L237.052706,6.18547959 C237.539891,6.18547959 238.027077,6.1581321 238.512913,6.1938942 L238.919126,6.22124169 C239.35368,6.32852801 240.043297,6.06346771 240.45221,5.63011516 L240.889462,6.41688144 L241.151274,6.88599609 C241.187712,6.46316181 241.414435,5.86151701 241.656004,5.55227999 L241.861135,5.88255354 L242.190424,6.41477778 C242.58719,6.25279649 243.164795,6.03822387 243.47519,5.93935217 C243.785586,5.84048047 244.808541,5.56910922 245.054158,5.35243294 C245.299775,5.13365302 246.209368,5.74581608 246.53056,5.77526723 C246.850402,5.80471837 247.796433,6.01298003 247.961078,5.8888645 C248.125722,5.76685261 248.789698,5.48285944 249.221553,5.34822564 L249.545444,5.08737265 L250.159487,4.59511781 C250.402598,5.13620745 250.624763,5.41972838 250.676871,5.27051313 L250.685809,5.22831741 C250.71415,4.99270826 251.093372,4.39947807 251.451001,4.58880685 C251.80998,4.77813564 253.011075,5.26197586 253.375452,5.26197586 C253.73848,5.26407951 255.027295,4.42472191 255.72501,4.39947807 L256.303965,4.44155113 C256.895066,4.48362419 257.44703,4.31953925 258.013838,4.34478309 L258.403857,4.36371596 C258.721,4.11548489 259.272964,4.04816799 259.633292,4.2185639 L259.814132,4.07761914 C260.38094,3.63374832 260.548284,3.83569902 260.611713,4.57618493 L260.617111,4.63929453 C260.934254,4.6540201 261.65896,4.19752737 262.225768,3.62743736 L263.077331,4.50045342 L263.163702,4.58880685 C263.25817,4.6855749 263.341842,4.45417305 263.351289,4.07130818 C263.360736,3.69054696 264.456566,4.12600316 264.71163,4.23960043 C264.968044,4.35530135 265.881686,4.23749678 266.151595,4.14072873 C266.422853,4.04396069 267.270368,3.74313829 267.487644,3.82097345 C267.706271,3.89880862 268.556484,3.47176703 269.039621,3.5496022 C269.521409,3.62743736 270.943829,3.49490721 271.146261,3.61481544 C271.348693,3.73893098 271.780547,4.25222235 271.823732,4.09024106 C271.868267,3.93036342 272.12873,3.65899216 272.228596,4.12600316 L272.377046,4.20594198 L272.622663,4.33847213 C272.939806,4.28167349 273.656414,4.18911275 274.211077,4.13231412 L274.532269,3.82518076 L274.961424,3.4149684 C275.277218,3.65478485 275.648343,3.85252825 275.787346,3.85252825 C275.925,3.85252825 276.297474,3.61481544 276.414884,3.51594375 C276.532295,3.41707205 277.324478,3.68633965 277.750934,3.83359537 C278.176041,3.97874744 279.406826,3.46966338 279.517488,3.4191757 C279.628151,3.36658437 280.185513,4.30691733 280.220601,4.03764973 C280.257039,3.76417482 280.645708,3.14359714 281.019532,3.14149349 L281.35017,3.17304828 L281.775277,3.21301769 C282.227375,3.50332183 282.865709,3.66951043 283.193649,3.5853643 C283.520239,3.50121817 284.535097,3.05314005 284.783413,2.97951219 C285.031729,2.90378068 285.672763,3.28664555 285.71055,3.03420718 C285.749687,2.7817688 285.935924,2.13384363 286.045237,2.14646555 L286.099219,2.21378245 C286.531074,2.750214 286.894101,3.38130994 287.628254,2.72917747 L287.840132,2.54195234 C288.253093,2.66606787 288.753774,2.73548843 288.953507,2.69551902 C289.15324,2.65554961 289.756486,2.9521647 289.890091,2.97530489 L290.004802,2.93743913 L290.443405,2.79859802 C290.923843,2.63661673 291.629655,2.56509252 292.010226,2.64082404 L292.361108,2.68500075 L292.631017,2.71655555 C292.996744,2.28951396 293.397559,2.14436189 293.521717,2.38838566 C293.645875,2.63661673 294.042641,2.94164644 294.22348,2.71234824 C294.404319,2.4809464 295.123627,2.00131348 295.313912,2.28951396 C295.505548,2.57561079 296.161427,2.83436013 296.732284,2.90167703 L297.18843,3.0152743 L297.637829,3.12887157 C297.968467,2.92692086 298.509635,2.73338478 298.840273,2.70182998 L299.127727,2.49777562 L299.26673,2.39890392 C299.479958,2.45359891 300.196566,2.27268474 300.859193,1.99710617 L301.511023,2.66817153 L301.855157,3.02368891 C302.511036,2.97109758 303.077845,2.63872038 303.112933,2.28530665 C303.148021,1.93399658 303.953699,2.17381304 304.150733,2.31265415 C304.347767,2.45149525 305.156144,2.53774503 305.423354,2.6155802 C305.691913,2.69341537 306.349142,2.20116053 306.404473,2.24112994 C306.459804,2.28109935 306.698674,2.5524706 306.837677,2.71655555 C306.97668,2.8806405 308.01448,3.217225 307.856584,2.97951219 C307.698687,2.74179939 307.731076,2.47884274 308.198018,2.79859802 L308.702748,2.06863038 C308.914627,1.76360067 309.632585,1.98658791 310.117071,2.02655732 L310.474701,2.05811211 C310.747309,2.40731854 311.037461,2.71024459 311.119783,2.72707382 C311.202106,2.74811035 311.879577,2.76493957 312.542204,2.86170762 L312.999699,2.0812523 L313.072575,1.95713676 C313.713609,2.30423953 314.177852,2.39469662 314.102278,2.16119112 C314.028053,1.92768562 313.907943,1.33445543 313.963275,1.25030931 C314.018606,1.16405953 314.489597,1.02942573 314.917403,0.936864987 C315.346558,0.844304248 316.534158,1.4122906 316.728492,1.26082757 L316.818912,1.32393717 L317.235921,1.62055226 C317.735253,1.58689381 318.33715,1.713113 318.571971,1.89823448 C318.808141,2.08335595 319.661054,1.02101111 320.200872,0.503512438 L320.728544,0.789609266 L321.341237,1.11988281 C321.702915,0.680219303 322.0457,0.312080002 322.10238,0.303665389 C322.159061,0.295250777 322.377688,0.206897344 322.545031,0.0365014395 C322.713724,-0.133894465 323.420886,0.339427493 323.605774,0.486683213 Z M66.355,115.936 L66.4351009,115.938397 C67.6868278,115.974416 69.2374153,116.011142 70.9403107,116.046201 L71.06,116.048 L71.0261022,116.05377 C70.9183746,116.077615 70.8184532,116.135316 70.7590732,116.217057 C70.6565078,116.360106 70.2948298,116.62727 70.1774194,116.480014 C70.0600089,116.332758 69.5471818,116.612544 69.4365192,116.707209 C69.3258565,116.801873 68.7455521,116.963854 68.1773937,117.11111 L67.6740134,116.856568 C67.4122017,116.726142 67.1638854,116.555746 66.9115205,116.397972 C66.8380453,116.352159 66.7675024,116.284219 66.6973297,116.213589 L66.5920282,116.108057 C66.5215853,116.039597 66.4502316,115.978167 66.3754049,115.943205 L66.355,115.936 Z M63.473,115.816 L63.5210063,115.82018 C63.6903605,115.834594 63.9593985,115.849742 64.3137117,115.86539 L64.477,115.872 L64.4648415,115.893367 C64.407538,115.991716 64.3467396,116.110229 64.2812573,116.250716 L63.943,116.971 L63.8983776,116.815584 C63.7607013,116.357391 63.6137109,116.008732 63.4965575,115.844863 L63.473,115.816 Z M71.225,116.052 L71.3359235,116.054261 C72.6632006,116.081022 74.0739302,116.106688 75.5014065,116.13018 L76.343,116.144 L76.2359479,116.183483 C75.9941742,116.27251 75.8185174,116.338649 75.7510402,116.366417 C75.582347,116.435837 74.8643891,116.374831 74.4433311,116.379039 C74.0209235,116.383246 72.925093,116.656721 72.8819075,116.501051 C72.8373725,116.343277 72.5971535,116.05718 72.4500531,116.231783 C72.3029527,116.406386 71.7766302,116.631477 71.5890434,116.370624 L71.397408,116.185503 L71.2678517,116.061387 L71.225,116.052 Z M86.8159595,115.693248 L86.1398375,115.954101 L85.99,116.01 L86.0317246,116.076139 C86.0664444,116.131769 86.1011771,116.18636 86.1375981,116.235289 L86.15,116.251 L86.4217627,116.252659 C86.5215911,116.252944 86.6197192,116.253176 86.7160803,116.253356 L86.767,116.253 C86.8800504,116.167885 87.0237756,116.064592 87.1526001,115.994991 L87.18,115.98 L87.0873118,115.93772 C86.9839779,115.881116 86.8913091,115.801235 86.8159595,115.693248 Z M85.3024797,115.741632 L84.9381026,115.979345 C84.426625,115.968826 83.8841079,115.933064 83.7316093,115.903613 C83.5804603,115.874162 83.0433414,116.031936 82.6951588,116.061387 C82.3456266,116.088735 81.3172734,115.691144 81.1283371,116.042454 L80.931,116.207 L81.0069167,116.208401 C81.5502307,116.214806 82.0823492,116.220639 82.5990033,116.22583 L82.889,116.228 L83.0565067,116.179173 C83.3493767,116.095626 83.6228283,116.029084 83.8183811,116.002218 L83.949526,115.989863 C84.4097208,115.975137 85.1843596,116.040351 85.6715454,116.132911 L85.6715454,116.132911 L85.99,116.01 L85.9794452,115.992493 C85.8213798,115.742684 85.6466137,115.518645 85.3024797,115.741632 Z M65.372,115.905 L65.6180688,115.913602 C65.7882206,115.919074 65.9662465,115.924575 66.1516128,115.930098 L66.158,115.93 L66.1379443,115.937156 C66.0536097,115.974566 65.9632402,116.057881 65.8642736,116.206539 C65.8278359,116.259131 65.5714223,116.183399 65.4971973,116.078216 C65.4548334,116.018217 65.4144389,115.961812 65.3756615,115.909538 L65.372,115.905 Z M77.6282572,115.680626 L78.1113943,116.029832 L78.311,116.172 L78.0745416,116.169883 L78.0745416,116.169883 L77.2181472,116.157257 C76.932107,116.152941 76.6456695,116.148521 76.3593682,116.144005 L76.343,116.144 L76.3621497,116.137134 C76.668568,116.024871 77.0554368,115.884967 77.4559621,115.742009 L77.6282572,115.680626 Z M64.521024,115.801673 C64.8149207,115.347767 65.0206788,115.450233 65.3186644,115.834294 L65.372,115.905 C65.0445248,115.894537 64.7527999,115.883793 64.4979079,115.873254 L64.477,115.872 Z M25.1728029,87.2182367 C25.3740391,86.6955857 25.4282181,87.2559838 25.5510883,87.4098754 L25.5510883,87.4098754 L25.6884708,87.5811888 C25.8510078,87.6886227 25.9912927,88.0370567 26,88.3535509 L26,88.3535509 L25.9593658,88.5016353 C25.9266096,88.6179874 25.8935424,88.7512723 25.8600025,88.8892618 L25.7922442,89.1678905 C25.6895172,89.5843733 25.581564,89.9698284 25.464015,89.9940944 C25.1850576,90.0521667 25.1802202,89.6729042 25.1958539,89.2546081 L25.2056614,89.0021328 C25.2138671,88.7513464 25.2111796,88.5151856 25.1428109,88.3796834 C24.8932006,87.8860686 25.0151033,87.6334539 25.1728029,87.2182367 Z M29.0670448,76.6794991 C29.2190448,75.9233503 29.3920448,75.7768098 29.4540448,76.3483176 L29.4540448,76.3483176 L29.4370448,76.7498385 C29.4020448,77.6056349 29.4970448,78.1009417 29.8920448,78.1712811 L29.8920448,78.1712811 L29.9420448,78.1800735 C30.0050448,78.7515814 29.8860448,79.1062093 29.6790448,78.9713921 C29.4710448,78.833644 28.9150448,77.4356479 29.0670448,76.6794991 Z" id="Combined-Shape"></path>
                </g>
            </g>
        </g>
    </g>
</svg>