<?xml version="1.0" encoding="UTF-8"?>
<svg width="492px" height="137px" viewBox="0 0 492 137" version="1.1" xmlns="http://www.w3.org/2000/svg" xmlns:xlink="http://www.w3.org/1999/xlink">
    <title>Combined Shape</title>
    <g id="Design-v3" stroke="none" stroke-width="1" fill="none" fill-rule="evenodd">
        <g id="ipad-3" transform="translate(-149.000000, -1651.000000)" fill="#FCC517">
            <g id="products" transform="translate(0.000000, 1064.000000)">
                <g id="note" transform="translate(132.000000, 587.000000)">
                    <path d="M449.79663,0.546521313 C450.062992,0.711882245 451.10142,1.03551721 450.894892,0.541796715 C450.688365,0.0480762185 451.879276,0.466203146 452.101244,0.418957166 C452.325143,0.374073484 453.203368,0.473290043 453.537286,0.763852824 C453.873134,1.0567779 455.148972,1.01189422 455.060185,0.881967775 C454.971397,0.752041328 456.081241,0.454391651 457.72188,0.511086828 L458.324091,0.96701054 L459.443585,1.81035129 C459.542023,0.910315363 460.030355,0.62683948 460.530267,1.17961745 L461.572555,0.801649608 C462.666958,0.407145671 464.033513,0.572506602 465.266887,1.16780596 C465.730127,1.38986207 466.396033,1.85287267 467.210562,1.3048193 C467.579223,1.0567779 468.569397,1.60719358 469.210211,1.92846624 C469.522897,2.08674028 468.424634,2.45762123 469.133004,2.7529086 C469.333741,2.83558907 469.719774,2.38202766 469.991927,2.41509984 C470.426214,2.46470812 471.086329,2.61117066 471.21179,2.90173344 L471.611334,3.83956616 C472.493418,4.11831744 473.682399,4.52463287 474.255657,4.74196438 C474.828916,4.96165819 476.672222,5.32308995 477.015791,5.25458327 C477.36129,5.1884389 478.413229,5.54987065 478.66029,5.44829179 C478.905421,5.34671294 479.411123,5.26875707 479.359009,5.69397089 C479.306894,6.11682242 480.580802,5.50734927 480.79698,5.4246688 C481.013159,5.34198834 481.906824,5.41994421 482.601683,5.4246688 C483.294612,5.4317557 485.027898,6.33651623 485.211264,6.27273415 C485.394629,6.20658978 486.012281,6.1640684 486.025792,6.397936 C486.039304,6.63180361 486.672397,7.31450803 487.382697,7.1420602 C488.092997,6.96961237 490.272151,7.93815497 491.109842,8.19800786 L491.370414,9.26576702 C491.501665,9.794922 492.74276,9.86342867 492.97824,10.8957533 L493.084399,11.3634886 C493.885417,11.7201957 494.670993,12.0650914 494.833127,12.133598 C494.995261,12.204467 495.288646,12.6981875 495.120721,13.0832422 L495.134233,13.0903291 L495.840672,13.4305002 C495.564659,13.9998143 495.360062,14.8998502 495.385154,15.4290052 L495.45464,15.9321749 L495.603262,16.9904848 C495.81751,18.1480114 496.132127,19.1260032 496.305842,19.1661622 L496.475696,19.180336 L496.655201,19.1945098 C496.852078,19.1921475 497.027723,19.2866395 497.043164,19.4023921 C497.060535,19.5228694 496.676433,19.8535913 496.296191,20.0591113 L495.983504,20.2882543 C495.912088,20.3402249 495.966133,20.6213384 496.031758,20.7654387 C496.060711,20.8268585 496.265308,20.8363077 496.384978,20.8221339 C496.452534,20.8126847 496.500788,20.6685844 496.572204,20.6544106 L496.979469,20.5811794 C497.431127,20.5173973 497.782416,20.6048023 497.759254,20.7748879 C497.738023,20.9426111 498.085452,21.7457928 498.585364,22.1804558 L498.913492,22.6600025 L499.12388,22.9671014 C499.158623,23.588386 498.703104,23.8694996 498.112474,23.5954729 C497.521844,23.3214462 496.093524,23.54114 496.577995,24.852216 C497.062466,26.1656543 497.166694,29.7232766 496.684154,29.8886375 C496.199683,30.0539985 494.883311,30.5996895 495.053166,30.6516601 C495.22302,30.705993 495.861904,31.1571921 496.300051,31.5044501 L496.466045,31.9131278 C496.950516,33.1131757 497.259342,31.2800317 497.757324,31.8871425 L498.042988,32.2391251 C498.641339,32.5084271 498.959816,33.0423067 498.753288,33.4226369 C498.546761,33.802967 499.152832,35.7872982 499.272502,36.7204063 L498.88454,37.5873701 C498.463764,38.5204782 499.24162,40.1173923 500.226003,40.209522 L501.059833,40.2898401 C501.992102,40.4811864 502.389716,40.6630834 501.943848,40.6985179 C501.497981,40.7315901 500.235654,41.0859349 500.235654,41.4072076 C500.235654,41.7284802 500.685382,42.7206458 501.235478,42.6119801 L501.756622,42.5316619 L502.050007,42.4844159 C502.368484,42.4820536 502.879977,42.5458357 503.188803,42.6308785 C503.495699,42.7159212 505.04176,42.5316619 505.769432,42.5552849 C506.497103,42.5836325 507.365677,44.546703 507.271099,44.7144262 L506.885066,44.6530064 C506.120721,44.5301669 505.715387,45.1514515 506.010702,45.7892723 C506.213369,46.2310222 506.396735,46.7908871 506.761536,47.0176678 L507.562553,47.5161129 C507.612737,48.3712651 507.819265,48.8815217 508.021932,48.6476541 L508.224599,48.5956835 C508.433057,48.5389883 508.774696,48.5862343 508.900156,48.7279723 C509.021757,48.860261 509.033338,49.2358666 508.929109,49.3988652 C508.581679,49.9209333 508.101069,50.2303944 507.40428,50.1311779 C507.273029,50.1122795 506.981574,50.4075669 506.969993,50.5752901 C506.954552,50.7548248 507.132127,51.0430253 507.305842,51.1304304 L507.867519,51.4162686 C508.523775,51.6737592 508.502543,52.2029141 507.819265,52.5950558 L507.217054,52.6352149 L506.728723,52.6659247 C506.026143,52.2407109 505.454815,52.4722162 505.460606,53.1809059 L505.356377,53.6533657 L505.203894,54.3384325 C504.536057,54.5486771 503.671344,54.7518348 503.283381,54.7872693 C502.893489,54.8227038 502.989997,56.2991406 503.242848,57.0975977 C503.495699,57.8936925 503.957008,60.5087575 503.555534,60.7142775 C503.15213,60.9197975 503.511141,62.2993802 503.750481,62.5403347 C503.987891,62.7836515 504.381644,63.6033692 504.067028,63.8277876 L503.669414,64.0025978 C503.331636,64.1514226 502.91665,63.3765885 502.542199,64.0663798 L502.495875,64.1514226 C502.161957,64.0829159 501.548165,63.8537729 501.13318,63.6458906 C500.718195,63.435646 499.085277,63.8018024 498.396208,63.9860617 C497.70714,64.1679587 495.429548,63.4002115 494.87173,63.1214602 C494.313913,62.8403467 492.256359,63.0033453 491.824003,62.9041287 C491.393576,62.8072745 490.293383,62.12457 490.158272,62.4056836 C490.02316,62.6844349 489.747147,63.6718759 489.801192,64.0663798 C489.855236,64.4608838 491.183189,64.6734907 491.497805,64.6687661 L491.638707,64.810504 C491.934022,65.110516 491.688891,65.8759009 492.543954,65.7601482 L492.682925,65.7412499 C492.912615,66.2916655 493.433759,66.3530853 493.837163,65.8759009 L493.927881,66.9460224 L493.945252,67.1633539 C494.452885,67.3547001 495.319528,67.4917134 495.871555,67.4680904 L495.973854,68.1248096 L496.058781,68.6586892 C496.191962,69.2705246 496.066501,69.5988842 495.782767,69.3886396 C495.499033,69.1783949 494.452885,69.0390193 494.283031,69.2067425 C494.113176,69.3768281 493.294787,69.5705366 492.85664,69.2469016 C492.420423,68.9209043 491.401297,67.9263765 491.246884,68.1531572 L491.285487,68.2594606 C491.530618,68.9634257 492.113527,69.6957384 492.017019,70.3335592 L491.90893,71.0705965 C491.216001,71.9092126 490.829969,72.7714518 491.051937,72.986421 C491.271976,73.2013902 492.213896,73.1517819 492.572906,72.8068862 L492.819967,72.4029331 L492.98017,72.1407179 C493.024564,71.7674747 493.124933,71.4910857 493.206,71.5217956 L493.240742,71.5761285 L493.758026,72.3769478 C494.383399,71.9611832 495.053166,71.7060549 495.244252,71.8099961 C495.435338,71.9162995 495.375503,72.6084531 494.665203,73.1257966 L495.122652,73.9644128 L495.313738,74.3163953 C495.81751,74.155759 496.466045,74.6471172 496.753639,75.4054152 C497.039304,76.1637132 497.407965,77.0165031 497.272853,77.1511542 C497.137742,77.2834429 496.440953,77.3377758 496.033689,76.9621702 L495.653446,76.6338107 L495.603262,76.588927 C495.392874,76.6101877 495.113001,76.8204323 494.979819,77.0566622 C494.844708,77.2905298 494.696085,78.0937115 495.047375,78.1315083 C495.398665,78.1669427 496.437093,78.4953023 496.126336,78.7291699 C495.81558,78.9606752 495.033864,79.8630734 495.159325,80.1536362 C495.286715,80.4465613 495.80979,81.1670625 495.975784,80.9520933 L496.122476,80.9119342 C496.620458,80.7701963 497.361641,81.3702202 497.911737,82.4946746 L498.139497,82.9624098 C497.82488,83.4915647 497.483241,84.0207197 497.382873,84.1341101 C497.280574,84.2475004 497.255482,84.7223225 497.548867,84.9254803 L497.81909,84.9278426 C498.53325,84.9372917 498.762939,85.1853331 498.457974,85.8491392 C498.374977,86.0357608 498.1781,86.3263236 498.234075,86.3853811 L498.552552,86.7279144 C498.456043,87.1224183 498.039128,87.3799089 497.626073,87.3019531 L497.440778,86.756262 L497.365501,86.5389305 C496.342515,86.4397139 496.373397,86.7515374 497.438847,87.2334464 L497.021932,88.2067136 L496.801894,88.7216948 C496.633969,89.3193564 496.651341,89.9689887 496.842427,90.1650595 C497.035443,90.3611303 497.419546,91.3627451 497.147393,91.7383506 C496.87331,92.1092316 495.5801,92.6289374 495.560799,92.9785576 L495.688189,93.2218744 L495.93525,93.6872473 C496.143708,94.284909 496.135987,94.5896456 495.917879,94.3628649 C495.69977,94.1360842 494.842778,93.9282018 494.591857,94.0368676 C494.340935,94.1455334 493.429898,94.1337219 493.117212,94.0439545 C492.802595,93.9541871 491.916651,94.1620694 492.072994,94.3061697 C492.229337,94.4502699 492.808386,95.0219463 493.063167,95.2180171 C493.319879,95.4140879 494.136338,94.9203674 494.225126,94.9109182 C494.317774,94.901469 494.493418,95.1565973 494.445164,95.5652751 C494.39691,95.9739528 495.715212,95.5416521 495.964203,95.4896815 C496.213194,95.4400732 496.614668,95.7967804 496.178451,96.0211988 C495.742234,96.2456172 494.541672,96.6495703 494.449025,96.4393257 C494.354447,96.2290811 493.868045,95.9243445 493.725213,95.9526921 C493.580451,95.9786774 492.993682,97.1858122 492.754341,97.1621892 C492.513071,97.1362039 491.733285,97.611026 491.540269,98.2748321 L491.771888,98.9433627 C491.988067,99.5693719 492.293032,99.9709628 492.98017,100.039469 L493.115282,100.053643 C493.285136,100.230816 493.233022,100.698551 493.001402,101.08833 C492.769783,101.47811 491.658009,102.231683 491.528688,102.399406 C491.397437,102.569492 491.424459,103.240385 491.262325,103.280544 C491.102122,103.325427 490.96122,103.722294 490.907175,103.771902 C490.853131,103.826235 490.96894,104.14987 491.239163,104.421534 C491.511316,104.688474 492.096156,105.869623 492.057552,106.561777 L491.760307,106.944469 C490.945778,107.995693 491.138795,108.541384 492.294962,109.176842 L493.188628,109.670563 C492.611509,110.386339 491.951393,111.331259 491.723634,111.765922 C491.493945,112.202947 490.795226,112.758087 491.430249,112.807696 L491.347252,113.78805 L491.312509,114.192003 C491.378135,114.775491 491.476573,115.654266 491.532548,116.145624 L491.872257,116.476346 L492.277591,116.873212 C492.14441,117.355121 491.881908,118.207911 491.692752,118.767776 L492.096156,119.341815 L493.09598,120.761556 C492.250569,121.356856 491.532548,121.869475 491.497805,121.902547 C491.463062,121.937981 492.071064,123.301028 493.09212,124.692422 L493.841023,126.081454 L494.055271,126.475958 C493.638356,126.348394 493.244603,126.235003 493.177047,126.225554 C493.113352,126.213743 492.7389,126.341307 492.49956,126.527928 C492.26022,126.71455 491.395506,127.170474 491.192839,127.196459 C490.990172,127.222444 490.038602,127.404341 489.585013,127.654745 L489.150727,127.872077 L488.627652,128.131929 C488.019651,128.025626 486.516054,128.264218 485.28654,128.658722 C484.784841,128.819446 483.825332,128.963702 482.818243,129.092128 L482.266669,129.160613 C480.980158,129.316767 479.737392,129.447468 479.384101,129.554033 L478.749077,129.65325 L478.096682,129.752467 C477.411474,129.939088 475.687838,130.135159 474.267238,130.184767 L472.962448,130.191854 L472.294612,130.196579 C471.630635,130.477692 470.702227,131.167484 470.227407,131.722624 L469.617475,130.813139 C469.534478,130.690299 468.465168,131.101339 468.455517,131.068267 C468.302942,130.608181 468.077713,130.746973 467.834434,130.92117 L467.686738,131.025429 C467.463256,131.174667 467.234,131.261301 467.038777,130.874559 L466.880504,130.562735 C466.191436,131.051731 465.365326,131.365917 465.046849,131.259613 L464.979293,131.318671 L464.342339,131.897434 C463.52395,131.807667 462.587821,131.895072 462.263554,132.093505 C461.939286,132.291938 460.607474,131.871449 460.277416,131.939955 C459.945428,132.0061 458.372345,132.275402 457.528863,132.270677 C456.685382,132.268315 454.446393,132.946295 454.224424,132.728963 C454.004385,132.50927 452.626249,133.165989 451.993155,133.404581 L451.491313,133.267568 L450.63432,133.026613 C449.758026,133.184887 448.61923,133.364422 448.101946,133.428204 C447.586593,133.494348 446.403403,133.888852 446.306895,133.714042 C446.210386,133.539232 445.312861,133.808534 444.824529,134.243197 C444.336198,134.675498 442.371292,134.044764 441.927354,134.269182 L441.771011,134.151067 L441.068432,133.614825 C440.485522,134.042402 439.362167,134.302255 438.574661,134.193589 L437.943498,134.392022 L437.296893,134.597542 C436.690822,134.387297 435.594489,134.238472 434.861027,134.26682 L434.18547,134.368399 L433.550446,134.462891 C432.872959,134.696758 431.861553,134.597542 431.303736,134.240835 L430.558693,134.656599 L430.022108,134.956611 C429.22109,134.911728 427.702052,135.046379 426.646252,135.251899 L425.582732,134.935351 L424.876293,134.725106 C423.924722,135.029843 422.899806,135.320405 422.602561,135.370014 C422.303385,135.419622 421.2997,135.079451 421.014036,135.230638 C420.728372,135.379463 419.734338,135.327492 419.070362,135.306232 C418.408316,135.282609 416.700122,135.693649 416.636426,135.528288 C416.570801,135.362927 416.389365,135.346391 416.368133,135.835387 C416.346902,136.324382 415.005438,135.421984 414.731355,135.410173 C414.455342,135.400724 413.239339,135.459781 412.66608,135.549548 C412.092822,135.636953 410.542901,135.38655 410.131776,135.481042 C409.718721,135.575534 408.217054,135.315681 407.680469,135.228276 C407.141953,135.138508 405.221441,135.268435 404.648183,135.143233 C404.074924,135.015669 402.553956,135.906256 402.295314,135.94169 C402.034742,135.974762 401.229864,135.710185 400.917177,135.745619 C400.604491,135.781054 399.691524,135.70546 399.008246,135.64404 C398.743277,135.619236 398.282439,135.574425 397.803843,135.52892 L397.393423,135.490196 C396.783733,135.433205 396.228811,135.384187 396.107211,135.384187 C395.86594,135.381825 395.257939,135.646403 395.064922,135.334579 C394.871906,135.020393 393.237058,135.374738 392.704333,135.450332 C392.173538,135.528288 390.253026,135.696011 389.515703,136.140123 L388.610457,135.466868 L387.948411,134.973147 C386.857869,134.942438 385.199858,135.140871 384.261799,135.41726 L383.312159,134.994408 L383.169327,134.932988 C382.752412,135.445607 382.001578,135.549548 381.501666,135.169218 C380.999823,134.788888 378.536935,135.49994 377.452183,135.634591 C376.369362,135.76688 373.456746,134.956611 373.300402,134.918815 C373.144059,134.881018 372.080539,135.100712 371.080715,135.26371 L370.136865,134.902278 L369.584838,134.689672 C369.264431,135.395999 368.650639,135.750344 368.224073,135.483404 C367.795577,135.214102 366.614317,134.829047 366.344094,135.095987 C366.075802,135.365289 365.027723,135.993661 364.805754,135.710185 C364.581855,135.424347 363.439199,135.010944 362.516581,135.112523 L361.885417,135.426709 C361.167397,135.778691 360.518862,135.700736 359.966835,135.360564 L359.343392,134.97551 C358.856991,135.306232 358.227758,135.471593 357.945954,135.351115 C357.664151,135.228276 356.652745,134.954249 356.365151,134.890467 C356.077556,134.829047 355.108614,135.105436 354.772766,135.353478 C354.436918,135.603881 353.325144,135.351115 353.027899,135.455056 C352.728723,135.558998 351.530092,135.424347 351.159501,135.412535 C350.790839,135.400724 349.785224,135.169218 349.756272,134.904641 C349.725389,134.637701 349.518862,133.898301 349.37796,133.992793 C349.237058,134.089648 348.843305,134.115633 348.750657,133.879403 C348.659939,133.647898 348.048078,133.473088 347.739251,133.624275 L347.571327,134.056575 C347.434286,134.408558 346.77417,134.543209 346.380417,134.82196 C345.255131,135.618055 345.226179,135.62278 344.037198,134.67786 L343.849973,134.531398 C343.58554,134.375486 343.166695,134.429819 342.919634,134.651875 C342.670643,134.869206 341.620634,135.296782 341.275135,134.982597 C340.929636,134.670773 339.908579,134.004605 339.860325,134.280994 C339.810141,134.557383 339.258114,135.351115 338.740831,135.414897 C338.225477,135.476317 335.569573,135.197566 333.840146,135.601519 L332.160904,134.949524 L331.63976,134.748729 C330.755746,135.320405 329.891033,135.549548 329.719248,135.258986 C329.549394,134.966061 328.746446,135.516476 328.653798,135.610968 C328.56308,135.703098 327.773643,135.73617 326.974556,135.721996 C326.177399,135.707822 323.899806,135.266073 323.598701,135.185754 C323.295665,135.105436 322.17231,135.584983 321.805579,135.835387 C321.440778,136.081066 319.614844,135.993661 318.85629,136.603134 L317.968415,135.757431 L317.43955,135.254261 C316.814177,135.464506 316.001578,135.450332 315.630987,135.223551 C315.260396,134.99677 314.165993,135.936965 313.77031,136.00311 C313.376556,136.071616 312.193366,135.646403 312.152833,135.393637 C312.112299,135.140871 311.554482,134.628252 311.04878,135.110161 L310.680118,135.525925 L310.253552,136.00311 C309.769081,135.795227 309.188102,135.729083 308.962273,135.856647 C308.734514,135.986574 308.008773,136.180282 307.968239,135.906256 C307.927706,135.634591 307.713458,135.540099 307.574486,136.277136 L306.709773,135.877908 L306.258115,135.670026 C305.877872,135.795227 305.343217,135.939328 305.067204,135.991298 C304.793121,136.040907 303.770134,135.577896 303.440076,135.660576 C303.110018,135.745619 301.94999,135.646403 301.59098,135.395999 C301.23197,135.145595 299.952271,135.284971 299.384803,135.107798 L298.886821,134.99677 C298.674503,134.949524 298.220915,135.308594 298.182312,135.254261 C297.755746,134.687309 297.553079,135.178667 297.21144,135.341666 C297.053166,135.414897 296.692226,135.018031 296.396911,134.890467 C296.344796,134.869206 296.080364,135.131421 296.076504,135.261348 L296.074574,135.381825 C296.26566,135.518839 296.360238,135.693649 296.286892,135.771605 C296.213545,135.851923 295.852605,135.802314 295.597823,135.691286 C295.344972,135.580258 294.281452,135.665301 293.795051,135.882633 L293.354974,135.88027 C292.667836,135.877908 291.716265,135.351115 291.353394,135.64404 L290.646955,136.201543 C290.075626,135.868459 289.359536,135.629867 289.05264,135.667663 C288.743814,135.70546 287.738199,136.121225 287.466046,136.348005 C287.195823,136.577148 286.946832,135.56136 286.902438,135.511752 C286.856114,135.459781 286.21916,135.49994 285.493419,135.587345 C285.19379,135.623336 284.620244,135.690567 284.01224,135.761168 L283.48824,135.821858 C282.793214,135.902144 282.142542,135.97643 281.893665,136.00311 C281.3648,136.057443 279.884365,134.578643 279.691349,134.793613 C279.498332,135.00622 279.037023,136.045631 278.228285,136.151935 C277.417616,136.2606 274.329355,135.169218 273.018774,134.760541 L271.872257,135.863734 L271.557641,136.166108 C270.766274,135.996023 269.949815,135.747982 269.741357,135.620417 C269.53483,135.488129 268.687488,135.70546 268.340059,135.509389 C267.990699,135.310956 266.836462,135.837749 266.656957,135.866096 C266.475521,135.899169 265.458325,135.825937 264.80786,135.731445 C264.155465,135.636953 261.499561,135.889719 260.320231,136.166108 L259.328127,135.391274 C259.316836,135.38277 258.828697,135.503903 258.292347,135.64252 L257.932341,135.736291 C257.39573,135.87714 256.906158,136.010551 256.892261,136.024371 C256.768731,136.142485 256.662572,136.343281 256.51974,136.376353 L255.915598,136.515729 C255.357781,136.199181 254.944726,135.721996 254.994911,135.452694 C255.045095,135.183392 254.87331,134.413283 254.643621,134.413283 C254.413932,134.413283 253.92753,134.621165 254.103175,134.873931 L254.124407,135.145595 L254.153359,135.488129 C254.141778,136.005472 253.641866,136.307846 253.043516,136.156659 L252.522372,136.149572 L252.105456,136.142485 C251.665379,136.284223 250.796806,136.440135 250.177223,136.49683 C249.557641,136.551163 247.733637,136.142485 247.366906,136.317296 C247.000175,136.492106 245.782242,136.109413 245.434812,136.314933 C245.089313,136.520453 243.925425,136.166108 243.736269,136.272412 L243.543252,136.303122 C242.636076,136.44486 241.813826,136.418874 240.868046,136.092877 L240.043867,135.807039 C239.24502,135.826528 238.406033,135.837084 237.841762,135.839476 L237.447775,135.839627 C237.376683,135.839262 237.317511,135.838635 237.272152,135.837749 C236.911212,135.8283 236.544481,134.91409 236.092823,135.518839 L235.853482,135.856647 L235.722231,136.040907 C235.59484,136.255876 234.977188,136.562975 234.351815,136.728336 C233.726443,136.891334 231.852254,136.088153 231.539568,136.017284 C231.224951,135.944052 230.593788,136.019646 230.38147,135.903893 C230.192121,135.801842 229.461824,135.898791 229.120666,135.948477 L229.022635,135.962951 C228.754342,136.005472 227.571152,136.081066 226.984383,136.005472 C226.399543,135.932241 224.866994,135.478679 224.839971,135.358202 C224.811019,135.237725 224.479031,135.49994 224.150903,136.194456 L223.149148,135.59207 C222.873135,135.426709 222.124232,136.232253 221.552903,136.312571 L221.056851,136.38344 C220.468152,136.114138 219.541673,136.390527 218.995437,137 L218.161607,136.274774 L217.686787,135.861372 C216.90507,135.511752 216.148446,135.421984 216.003684,135.662939 C215.858922,135.906256 215.181435,136.508642 214.974907,136.20863 C214.76838,135.91098 213.984734,135.61333 213.598701,136.069254 L213.23776,136.277136 C213.031233,136.395251 212.40586,136.244064 212.40007,136.185007 L212.313212,135.022756 C211.307597,134.694396 210.433233,134.725106 210.369538,135.0889 C210.307773,135.452694 209.742235,136.121225 209.20758,136.007834 L208.777153,136.137761 C208.443235,136.236977 208.217406,136.562975 208.176873,135.970038 C208.134409,135.341666 207.6731,135.192841 207.341112,135.478679 C206.410773,136.286586 205.353044,135.740895 204.374451,135.906256 L203.695034,136.022008 C203.05808,136.125949 202.443237,136.218051 202.189615,136.248223 L202.089138,136.258238 L202.089138,136.258238 L201.969468,136.236977 L201.156869,136.083428 C200.045095,135.866096 199.435163,135.568447 199.799964,135.424347 C200.164765,135.277884 199.419722,134.514861 199.354097,134.269182 C199.288471,134.023503 198.844534,133.7731 198.815581,134.299892 C198.786629,134.831409 198.410247,136.121225 198.045446,135.922792 L197.802245,135.696011 L197.512721,135.426709 C197.227057,134.895192 196.576592,134.725106 196.067029,135.046379 C195.555535,135.367651 194.142656,135.620417 193.959291,135.218827 C193.775925,134.817236 192.932444,134.096734 192.53676,134.623527 L192.5329,135.046379 L192.521319,136.298397 C191.861203,136.345643 190.788032,136.236977 190.139498,136.052718 C189.490963,135.870821 187.610984,136.161384 187.479733,136.102326 C187.348482,136.040907 186.701877,135.809401 186.360238,135.677113 C186.016669,135.549548 184.509212,135.658214 183.77768,135.94169 L183.30286,135.750344 L182.83769,135.56136 C182.542375,134.836134 181.967187,134.420369 181.561852,134.644788 C181.154588,134.864482 180.243551,135.594432 180.286015,135.788141 L180.270573,135.967675 L180.257062,136.125949 C180.168275,136.293673 179.982979,136.402338 179.847868,136.364542 C179.710826,136.331469 179.203193,135.863734 178.917529,135.521201 C178.633795,135.173943 177.429373,135.903893 177.242147,135.925154 C177.056852,135.944052 176.250043,135.795227 175.86015,135.677113 L175.817687,135.490491 L175.674855,134.869206 C176.190208,134.869206 176.983505,134.82196 177.437094,134.760541 C177.890682,134.701483 178.095279,133.435291 177.653272,133.345523 C177.211265,133.258118 175.902614,133.333712 175.896823,133.747114 L175.707668,134.127444 C175.477978,134.59518 175.086155,135.303869 174.727145,135.327492 C174.185997,135.360994 174.172598,135.069787 174.204878,134.736027 L174.222593,134.566907 C174.245338,134.340168 174.252675,134.115418 174.101772,133.976257 L174.041937,133.921924 C173.945429,133.858142 173.542024,134.259733 173.144411,134.817236 C172.744867,135.372376 170.65064,135.35584 169.998245,135.400724 C169.34585,135.44797 168.633619,134.106184 168.436743,134.606991 C168.239866,135.110161 169.645025,135.478679 169.729952,135.556635 C169.814879,135.639316 169.857343,136.088153 169.637304,136.364542 L169.405685,136.399976 L169.1123,136.442497 C168.766801,136.286586 168.025618,135.693649 167.467801,135.124335 L167.330759,133.111656 C167.311458,132.842354 166.62625,132.35572 166.593437,132.384068 C165.441957,133.330067 165.345074,132.846515 165.339414,132.241192 L165.339044,131.858834 C165.336679,131.709009 165.327471,131.568602 165.296367,131.458046 L165.277066,131.384815 C165.09756,131.231266 164.921916,131.498206 164.883312,131.97539 C164.844709,132.450212 164.443235,133.324263 164.066853,132.94157 C163.692402,132.56124 163.115283,134.273907 162.987892,134.602266 C162.862432,134.930626 162.275662,135.944052 162.044042,135.988936 C161.812423,136.03382 160.519213,135.94169 159.540621,136.012559 L158.660466,136.06453 L158.47324,136.073979 C158.270573,136.173195 158.100719,136.102326 158.094928,135.918067 C158.091068,135.73617 158.121951,135.29442 158.10844,134.951887 C158.096859,134.606991 158.795578,133.874678 159.191261,133.931374 L159.505878,134.011692 L159.795402,134.084923 C160.055974,134.330602 160.633093,134.64715 161.078961,134.786526 L161.513247,134.85267 C161.721705,134.881018 162.101947,134.762903 162.159852,134.61644 L162.399192,134.028228 C162.60186,133.359697 163.107562,132.802195 163.524478,132.792745 L163.657659,132.59195 C163.956834,132.136026 163.954904,131.427337 164.321635,131.084803 L165.016494,130.430446 C164.61695,129.872944 164.086155,129.369774 163.835234,129.313079 C163.584313,129.254021 162.808387,129.646163 162.808387,130.340679 C162.808387,131.035195 162.300754,132.830542 161.729426,132.851803 L161.387787,133.33135 C160.963151,133.921924 160.553956,133.985706 159.918933,133.451827 L159.596595,133.182525 C158.978943,133.53687 158.23197,134.316428 157.936655,134.911728 C157.64327,135.507027 156.145464,136.05508 156.375153,135.670026 C156.604843,135.282609 157.361466,134.139256 157.498508,133.884128 C157.63748,133.631362 156.805579,132.969918 156.655027,132.547066 L156.431128,132.35572 L155.890682,131.890347 C155.549043,131.240715 155.15529,130.520214 155.012458,130.281622 C154.871556,130.040667 154.161256,130.829675 153.960519,131.219454 L153.96824,131.576161 L153.9721,131.798218 C154.033865,132.091143 153.879452,132.835267 153.628531,133.456551 C153.37761,134.077836 153.308124,135.929879 153.211616,135.967675 C153.113177,136.010197 152.771538,135.948777 152.665379,135.745619 C152.561151,135.547186 152.007194,134.840859 151.762063,134.547934 C151.516932,134.257371 152.649938,133.555768 152.78505,133.312451 C152.916301,133.071497 152.90858,132.662819 152.478154,132.984092 C152.047727,133.303002 150.793121,132.384068 150.520968,132.471473 C150.248815,132.558878 150.549921,133.614825 150.66187,133.954997 L150.702403,134.271545 L150.742937,134.59518 C150.725565,134.935351 150.117564,135.105436 149.393753,134.97551 L148.803123,135.010944 L148.702754,135.015669 C148.608176,135.757431 148.395858,136.272412 148.231795,136.159022 C148.067731,136.043269 147.199157,136.088153 146.672223,136.267687 L146.656781,136.234615 L146.338305,135.551911 C146.890331,135.450332 147.280224,135.143233 147.204948,134.871569 C147.131602,134.602266 146.600807,133.99988 146.270749,134.41092 C145.940691,134.82196 144.738199,135.81885 144.247938,135.81885 C143.757676,135.81885 142.416213,135.776329 142.410422,135.729083 C142.408492,135.677113 142.669064,135.514114 143.001052,135.473955 C143.33304,135.433796 144.296192,134.947162 144.298122,134.493601 C144.298122,134.042402 145.685909,133.522696 145.948412,133.466001 C146.208984,133.406943 146.969468,133.062048 147.075627,132.891962 L147.035093,132.771485 C146.986839,132.62266 146.75329,132.388792 146.674153,132.414778 C145.348131,132.849441 144.04141,133.366784 142.609229,133.305364 L141.646078,133.265205 C141.180909,134.002243 140.60572,134.725106 140.36638,134.869206 C140.12897,135.015669 139.619407,134.245559 139.499736,134.146343 C139.381996,134.049489 138.820319,133.735303 138.561677,133.610101 C138.304965,133.487261 137.685383,133.017164 137.835936,132.868339 C137.986488,132.719514 138.557817,132.412415 138.770135,132.523443 L138.8319,132.68408 L139.169678,133.539232 C139.907001,133.404581 140.636603,133.196699 140.792946,133.080946 C140.947359,132.962831 141.227232,132.332097 141.219512,132.027361 C141.213721,131.722624 140.171433,131.174571 139.820143,131.108426 L139.798912,130.995036 C139.492016,129.258746 138.569398,130.243825 138.393753,130.836762 C138.082997,131.902159 137.073521,131.994288 136.455869,132.565965 L135.905773,133.076221 C135.542902,133.737665 135.176171,133.99988 135.089314,133.659709 L135.04685,133.345523 L134.967713,132.780934 C134.317248,132.46911 133.344446,131.937593 132.807861,131.602147 L132.711352,131.195831 C132.473942,130.191854 131.85243,130.158782 131.043692,130.165869 C130.694332,130.168231 130.287068,129.724119 130.007194,129.809162 C129.733111,129.891842 129.61151,130.411548 129.376031,130.699748 L129.294964,130.801327 C128.988068,130.839124 128.978417,131.028108 129.271802,131.217092 C129.565187,131.408438 130.105632,132.091143 129.858571,132.339184 C129.61151,132.589588 127.785576,131.689552 128.001754,131.394264 L128.104053,131.103702 C128.410949,130.243825 127.995964,129.740655 127.111949,130.085551 C126.41709,130.354853 126.229865,129.743017 125.803298,129.698134 L125.262853,129.639076 C124.623969,129.695771 123.419547,129.955624 122.585716,130.220202 L122.130198,129.948537 L121.555009,129.610729 C121.031935,129.681598 120.242498,129.877668 119.798561,130.045392 C119.352693,130.213115 117.810493,129.688685 117.468854,129.608366 C117.317014,129.572669 117.061089,129.581769 116.785973,129.599371 L116.369519,129.627615 C116.164707,129.640389 115.972977,129.647738 115.830145,129.634352 C115.616862,129.614272 115.176303,129.578247 114.742016,129.593897 L114.652,129.598 L114.670251,129.609854 C114.941222,129.799008 115.271591,130.178765 115.417083,130.401996 L115.462499,130.477692 C115.482476,130.514899 114.639329,130.535787 113.192054,130.543651 L113.173,130.543 L113.213859,130.513127 C113.323878,130.379893 113.647219,130.00939 113.954995,129.755736 L114.045,129.684 L113.906116,129.731171 C113.81864,129.766592 113.745293,129.810174 113.691525,129.863495 C113.459721,130.09455 112.781892,130.339185 112.145697,130.319434 L112.061,130.314 L112.060211,130.253361 C112.035724,130.138834 111.885337,130.15397 111.697763,130.223177 L111.654,130.24 L111.58447,130.218014 C111.410807,130.153779 111.255291,130.056416 111.132128,129.917828 L110.165116,130.210753 L109.952,130.274 L110.003041,130.338417 C110.047736,130.394733 110.09235,130.450314 110.138628,130.501376 L110.18,130.544 L109.990443,130.54445 C108.743048,130.540502 107.33411,130.532576 105.819573,130.521383 L105.512,130.519 L105.3088,130.567934 C104.709506,130.713628 104.113154,130.879283 103.749254,130.995036 C102.969468,131.238353 100.562555,130.671401 99.6225651,130.82495 L98.968,130.456 L99.3308284,130.460878 C100.08491,130.469162 100.832866,130.476988 101.569785,130.484293 L102.033,130.488 L101.97519,130.461055 C101.673112,130.310412 101.344079,130.107402 101.104015,129.915465 C100.719913,129.608366 98.770448,130.420997 98.5755015,130.135159 C98.380555,129.851683 97.6104199,129.398122 97.3691495,129.688685 C97.1298093,129.98161 96.2573755,129.379223 96.1164736,129.523324 L96.0006638,129.662699 C95.8578317,129.835147 95.7130695,130.170594 95.5953295,130.161144 C95.1649032,130.12571 94.41793,130.508402 94.4739047,129.636714 L94.489346,129.395759 C95.0008393,129.117008 95.2285985,128.779199 94.9950488,128.649273 C94.761499,128.516984 94.0106656,128.396507 93.8330906,128.668171 C93.6555155,128.942198 92.8737995,129.613091 92.8834503,128.951647 L92.856428,128.632737 C92.8429168,128.479187 92.7193864,128.200436 92.6846435,128.207523 L92.2580774,128.27603 C91.7967684,128.379971 91.5130344,128.058698 91.6249839,127.560253 L90.8683599,127.770498 L90.7255278,127.810657 C90.5981371,127.966569 90.1040153,127.94767 89.6234047,127.770498 C89.142794,127.590963 87.3033485,127.583876 86.7725536,127.614586 C86.2398286,127.642934 84.5547961,126.835027 84.1127888,126.894085 C83.6727116,126.953142 82.5030327,127.201184 82.3312482,126.686202 C82.1575335,126.168859 80.1385828,125.857035 79.9571475,125.911368 L79.9301252,125.873572 L78.9901357,124.449105 C77.326335,124.231774 75.8343189,124.014442 75.6760455,123.957747 C75.5177721,123.905776 74.7669387,123.931762 74.1743786,123.884516 C73.5818185,123.834908 71.1382319,124.004993 70.0708516,124.101847 L69.8585337,122.757699 C69.8373019,122.611237 69.4145962,122.360833 69.3258087,122.412804 L68.7139469,122.769511 C68.0943645,122.490759 67.4535504,122.072632 67.2894865,121.845852 C67.1254226,121.614346 66.0561122,121.179683 65.7414956,121.021409 C65.4249489,120.860773 64.4579371,120.553674 64.3247559,120.60092 C64.1915746,120.650528 63.7514974,120.501704 63.6472686,120.149721 L63.4465316,119.92294 C63.3345821,119.800101 62.9466193,119.781202 62.7690443,119.875694 C62.0780459,120.241851 61.309841,120.307995 60.8157192,120.338705 C59.7464088,120.402487 60.269483,119.948926 60.3293181,119.433944 C60.3602007,119.164642 59.6962246,118.841007 60.5397059,118.734704 C60.9295988,118.685096 61.3156315,118.510286 61.6727116,118.328388 C62.0761158,118.125231 62.0066299,117.912624 61.6978038,117.586627 L61.3638855,117.237006 C61.7035943,116.920458 62.3656402,116.287362 62.8385302,115.831438 C63.3114202,115.373152 63.8827485,113.610877 63.3616044,113.518748 L62.9813623,113.568356 L62.5354946,113.625051 C62.0626046,113.806948 61.3291426,113.762064 60.908367,113.52111 C60.4875915,113.280155 60.5879599,111.220231 60.7481635,110.402875 C60.908367,109.583157 61.2693075,107.398031 61.2017518,107.372046 C61.1380564,107.343698 60.6227029,107.700405 60.2501814,108.175227 L59.7444786,107.390944 L59.4877669,106.991715 C59.5842751,106.613748 59.8815202,105.940492 60.1498129,105.49638 L59.6807832,105.279049 L59.4317922,105.163296 C58.8527432,105.479844 58.507244,105.401888 58.6674476,104.990848 L58.7002603,104.648315 L58.7890479,103.703395 C58.3779231,102.777374 58.0034714,101.681267 57.9610079,101.267865 C57.9166141,100.854463 58.4435486,99.4914161 59.2233346,99.1158105 C60.0011903,98.7378427 59.9953998,96.5787014 59.4279319,96.7511492 L59.097874,97.0251759 L58.7465843,97.3181009 C58.3431802,97.5850407 57.5633942,97.1432908 57.0152279,96.3330223 L57.300892,95.6455932 C57.39547,95.4235371 57.3838891,95.154235 57.501629,94.948715 L57.7949423,94.461119 L57.7949423,94.461119 L58.4145962,93.5053503 L58.4145962,93.5053503 C58.7562351,92.9620215 59.1519185,94.2022285 59.5514623,93.455742 L59.6653419,93.2407728 C60.1420922,93.1368317 60.0880477,92.9029641 59.5495321,92.7163424 L59.52444,92.515547 C59.4839066,92.1824629 59.748339,91.7737851 59.974168,91.464324 C60.0938382,91.3013253 60.4316167,91.3154991 60.624633,91.1808481 C61.0917325,90.8572131 61.2307043,89.876859 60.7693953,89.7327588 C60.198067,89.5508617 60.0455841,89.3217187 59.8332661,88.8138245 L59.7213167,88.5468847 C58.9125783,88.4571173 58.991715,88.107497 59.8950314,87.7744129 C60.8002779,87.4413287 63.2361438,86.0381231 64.3672194,86.7940588 L65.7434258,86.5625535 C66.0155788,86.5176698 66.5965579,87.1247806 66.7104375,87.5240092 L66.9922414,88.5114502 C67.6523572,88.225612 68.005577,87.5996028 67.7797479,87.120056 L67.8202814,86.7161029 C67.9438118,85.4900697 68.1522694,84.2663988 68.4128415,83.0639886 L68.4726765,82.7946865 C68.8355472,82.5726304 69.2929959,82.3127775 69.4898725,82.2253725 C69.670606,82.1437658 70.0969966,81.5330822 70.4413081,81.4173988 L70.5418115,81.3985678 C70.7193865,81.3962055 61.3728001,81.3507313 51.9977437,81.2949219 L50.8732081,81.2881773 C41.8855529,81.233857 33.221709,81.1712201 33.2828566,81.1292657 C33.4121775,81.044223 33.8290928,80.6213714 33.9796455,80.444199 C34.1321284,80.2693889 34.8520793,80.9331949 34.9640287,81.0418607 C35.074048,81.1505264 35.6781891,81.2875398 35.7283733,80.8009062 C35.7824179,80.3166349 36.2533777,79.4780187 36.6876644,79.7827553 C37.1219512,80.0874918 38.314792,79.4354973 38.2260045,79.3362808 C38.137217,79.2394265 38.1217757,78.840198 38.3881382,78.6653878 L38.5348306,78.7315322 C38.6186929,78.7680257 38.7043177,78.8183614 38.7901452,78.873861 L38.9188434,78.9598983 L38.9188434,78.9598983 L39.0466755,79.0471723 C39.491207,79.3472018 39.8983245,79.5503539 40.042288,78.4008103 L40.0461484,78.3677382 C40.2333742,78.3606513 40.692753,78.4575055 41.0652745,78.5827074 C41.437796,78.7102715 42.6499385,78.2023772 43.0012282,78.1787542 C43.3505877,78.1551312 44.4469204,78.2614347 44.9835058,78.2614347 C45.5200912,78.2590724 46.4369187,77.2645445 46.0547464,77.070836 C45.672574,76.8794898 44.8483944,75.8377159 45.0549218,75.1786345 C45.2614493,74.519553 43.1537111,72.6509745 43.3332163,72.5895547 C43.5165818,72.5304973 43.7115283,71.9493717 43.1595016,71.5005349 L43.1710826,71.122567 L43.200035,70.2721394 C42.6460782,70.253241 41.9840322,70.0193734 41.7273205,69.7500713 L41.5516757,69.4689577 L41.1579224,68.8358616 C41.4088436,68.1106358 41.4204246,66.8987764 41.1830145,66.1475653 L41.0363221,65.4365133 L40.9899982,65.2144572 C41.0729952,64.9191698 41.6018599,64.9735027 42.1654675,65.3372967 C42.727145,65.6987285 44.4700824,65.0490962 44.5164063,64.9262567 C44.5627302,64.8057794 44.383225,64.3262327 44.0242147,64.1372488 L43.8562905,64.2364654 L43.4683277,64.4656084 C42.9664853,64.7679827 42.6383575,64.7656204 42.7367958,64.4608838 L42.8159325,64.1797702 L42.8969994,63.8868451 C42.9742059,63.5608479 42.9259518,63.3387917 42.7908404,63.3954869 C42.6537988,63.4498198 42.0593086,63.5159642 41.7697841,63.4167476 C41.4783295,63.3198934 42.0535181,61.8977893 42.277417,61.1985488 L43.0726442,61.026101 C43.2289875,60.9906665 43.5127214,60.9127106 43.5107913,60.8725516 L43.3853307,59.2685505 C44.6418669,58.6496282 45.400421,57.9692861 45.0722933,57.7566791 C44.7441656,57.5417099 43.4741182,57.8157366 43.2695209,57.7519545 C43.0649236,57.6881725 41.5400947,57.1401191 40.3646253,56.6156887 L39.1351114,56.8613678 C38.5830847,56.9700336 38.5174591,56.6345871 38.3688366,56.1503158 L38.148798,55.4274523 C37.8013686,55.8857383 37.1045797,56.1172436 36.6008071,55.9518827 C36.0951043,55.7841595 34.5316722,55.0400353 34.2209159,54.737661 L34.2614493,54.6809658 L34.6938059,54.0833042 C34.423583,53.4856425 34.0993156,52.8856186 33.9757852,52.7533298 C33.8522547,52.6163165 33.4353395,52.4226079 33.3272503,52.6210411 L33.1805579,52.7462429 L32.9643797,52.9328645 C32.6883663,53.0887763 32.128619,53.3533538 31.7194244,53.5139901 C31.31216,53.6746264 30.022811,53.9510154 29.8182137,53.75022 C29.6155465,53.5470623 29.1928408,52.6564755 29.4051588,52.2879569 C29.5220409,52.0858491 30.0469976,52.1804869 30.5944596,52.3073673 L30.922553,52.3852486 C31.2471778,52.462767 31.5521436,52.5328486 31.7541674,52.5383606 L31.8487453,52.1485813 C31.951044,51.7304543 31.6248464,50.7926216 31.4530619,50.7855347 L28.745043,50.6650575 C29.100193,48.7917543 29.0712405,47.2113763 28.6794174,47.1499565 C28.2895244,47.0885367 27.6178277,47.9531382 27.5174592,47.849197 C27.4151605,47.7476182 27.1237059,47.4499685 27.0889629,47.4168963 C27.0561502,47.3814618 26.8361116,46.9751464 26.6778382,46.5877293 C26.5195648,46.2003123 27.0561502,44.8821494 27.2356553,44.5656014 L27.2877698,44.2608648 L27.3360238,43.9773889 C27.266538,43.6466671 26.9963151,43.4104372 26.7357431,43.4505962 L26.5021933,43.5049291 L26.3149675,43.5498128 C26.1142305,43.6206818 25.8903316,43.5096537 25.8208457,43.2994091 L25.8884014,43.2001925 L26.2512721,42.6615884 C26.8747148,41.8584067 26.8013686,41.4426421 26.0891384,41.7355671 L25.6895946,41.7686393 L24.9291103,41.8324214 C24.0605369,41.8064361 23.3058431,41.5111487 23.2537287,41.17334 L23.26917,40.9323855 L23.4293736,38.4543338 C22.3948061,37.4267337 21.4084927,36.5101617 21.2367082,36.4133074 L21.1845938,36.2857433 L20.9761362,35.7660375 C21.0475522,35.1494775 20.8545359,34.1195151 20.5495701,33.479332 L20.1094929,33.297435 C19.0015792,32.8438736 19.0247412,32.0359673 19.0807159,31.1241199 L19.1019477,30.7815866 C19.0922969,30.1366789 18.5228987,29.8744637 17.8376908,30.1957364 L18.2874188,29.3665694 C18.7043341,28.5988223 17.9535006,28.6177206 17.7315318,28.3058972 C17.6697666,28.2184921 17.2470609,29.2909759 17.0289524,28.296448 L17,28.1617969 C17.3493595,27.9350162 17.6948587,27.7082355 17.7682049,27.6609895 C17.8415511,27.609019 17.6350237,26.8152865 17.1331813,26.0097425 L17.3146166,25.0931705 C17.3609405,24.8545783 17.5211441,24.6183484 17.4979821,24.3986546 L17.47289,24.141164 C17.3165468,23.8718619 17.3570802,23.6946895 17.5597473,23.7490224 C17.7643446,23.8033552 18.6329181,23.6568927 18.9996491,23.2954609 C19.3683102,22.9363915 18.8297947,21.5662581 19.0922969,21.4599546 L19.1579224,21.5190121 C19.8450605,22.1355721 20.4472714,22.2536871 21.0436919,21.3867233 L21.5571153,20.6402368 C22.1110721,21.1693918 22.607124,21.3678249 22.6592384,21.0843491 C22.713283,20.8008732 23.5779961,19.8228814 24.463941,19.5394055 L25.0700123,20.8221339 L25.3846289,21.4859399 C26.2358308,20.7465403 26.7917178,20.0898212 26.6199333,20.0307637 C26.4500789,19.9717062 26.0215827,19.6527958 26.0736971,19.4638119 L26.1123004,19.4661742 C26.521495,19.4850726 26.9326197,19.5299563 27.3398842,19.5913761 L27.5290401,19.6173614 C27.7297771,19.6953172 27.976838,19.5630285 28.0752763,19.3291609 C28.1756448,19.0976556 28.8743639,19.2204951 28.9419196,19.0598588 C29.0094753,18.8968602 29.4012984,18.445661 29.5325495,18.7291369 C29.6657308,19.0102505 30.4320056,19.3527839 30.816108,18.5921236 L31.1172135,18.2306918 L31.2832075,18.0369833 C31.6287067,17.9826504 32.2791717,18.1220261 32.7250394,18.3488068 C33.1728373,18.5755875 34.8038252,18.0535194 35.1280926,18.2944739 C35.45236,18.5307038 36.4058606,19.0763949 36.764871,18.3866036 L37.0717669,17.9117815 L37.3748025,17.4440463 C37.9345499,17.3991626 38.6467801,17.5196398 38.9556062,17.7133483 C39.2644323,17.9094192 39.8898052,16.9644995 40.2623266,16.9786733 C40.632918,16.9928471 41.6906474,17.2597869 41.8296192,17.3873511 C41.9666607,17.5149152 42.6132654,17.7062614 42.7676785,17.3141198 C42.9201613,16.9219782 43.6343217,15.9628848 43.9933321,16.1140719 C44.3523424,16.2605344 45.2209159,16.0479275 45.5027197,15.9203634 C45.7864537,15.7904369 46.5932619,16.177854 46.736094,16.0573767 L46.7553956,15.9345372 L46.8268116,15.4809758 C47.1587997,15.5447578 48.0370239,15.9132765 48.7782066,16.3054181 L48.8708544,15.0675734 L48.8785751,14.9730815 C49.0387786,14.890401 49.776101,14.6565334 50.5172836,14.4510134 C51.2565361,14.2454934 53.7425863,14.7132286 54.3872608,14.6777941 L54.8524301,14.8148074 C55.3311106,14.9589077 55.6476574,15.6061776 55.6746796,14.5407807 C55.6766098,14.4297527 56.2286365,14.2171458 56.2460079,14.2431311 C56.8269871,15.0841095 57.701351,14.4037674 57.8654149,14.1817113 C58.3923494,13.4659347 59.1316019,14.4392019 59.6971397,13.7635844 L59.9113878,13.5084561 C60.8204947,13.8344533 61.6736268,14.1273784 61.8068081,14.1604506 C61.9419195,14.1911605 62.6560799,13.7541352 63.1559921,13.2864 C63.6578346,12.8163025 65.3795401,13.6407448 65.4741181,13.5864119 L65.4741181,13.5368037 L65.4355148,12.2729737 C66.2732057,12.5328266 67.5220212,12.409987 68.2130197,11.9942224 L68.8113702,12.9698519 L69.1066852,13.4517609 C69.7281978,13.1234013 70.5485171,12.6934629 70.9306894,12.4926675 L71.3263729,12.3958132 L71.4518335,12.362741 C71.5811544,12.3154951 72.0212316,12.3060459 72.4304262,12.3438427 C72.841551,12.3840017 74.2814527,12.2399015 74.7099489,12.3343935 C75.1384452,12.4288854 76.2096857,11.8926435 76.3158447,12.0272946 C76.4239338,12.1619456 76.8736619,12.4903052 76.9682398,12.3154951 L77.0666782,12.1713948 L77.1728371,12.0154831 C77.3060184,11.8501222 77.4507806,11.8194123 77.4951744,11.9446141 C77.537638,12.0721783 77.7538163,12.4973921 77.8638356,12.5635365 L77.9661342,12.5328266 L78.7362693,12.3107705 C79.6087031,12.1265111 80.4483241,11.904455 80.6046673,11.8099631 L80.7166167,11.6847612 L81.500263,10.7847253 C82.0947533,11.6162546 82.7046848,12.0887144 82.8571677,11.8359484 C83.0096506,11.5831824 83.5134232,11.0658389 83.6639759,11.2028522 C83.8164588,11.3398656 84.1445866,10.8154352 84.1716088,9.83508109 L85.2911035,11.0752881 L85.48605,11.2902573 C86.0650989,11.16978 86.8159324,11.0965488 87.1595014,11.1272587 C87.4992102,11.1556062 88.2905771,11.3540394 88.313739,11.0469405 C88.336901,10.7398416 89.5027195,10.6973202 89.6841549,10.917014 C89.8636601,11.1343456 90.1802068,10.7469285 90.1551147,9.82090729 L91.388489,10.9855207 C91.5120194,11.1036357 92.193367,10.647712 92.6083521,10.4445542 L92.8264605,10.3382508 C93.0407087,10.2012374 93.9382345,9.85161718 94.8203191,9.5586921 C95.4833302,9.34077002 96.9313144,10.0171258 97.6904114,10.3719135 L97.9159077,10.4765984 C98.0465332,10.5362246 98.1350527,10.5732995 98.1652919,10.5744807 C98.3486574,10.5792053 99.4353393,10.3571492 100.191963,10.1870636 C100.948587,10.0169781 103.710651,10.1209193 104.268468,10.1988751 L104.507808,9.97918133 L105.079136,9.45238864 C105.59063,9.73822683 106.30286,10.0122535 106.66187,10.0594995 L107.001579,10.0618618 L107.619231,10.0665864 C108.244604,9.74767602 109.02439,9.40278036 109.348657,9.30120151 C109.674855,9.19962265 111.282681,9.04607321 112.141603,9.04371091 L112.92525,9.01536332 L113.154939,9.00591413 C113.402,8.88071228 113.64134,8.96339275 113.685734,9.18781115 C113.730128,9.41459186 114.656606,9.29175231 114.787857,9.10749299 C114.919108,8.92559596 115.486576,8.53817892 115.693104,8.74369894 C115.901561,8.95158125 116.623442,9.29175231 116.916827,9.12166678 C117.210212,8.95394355 118.470609,8.46730995 119.067029,8.41770167 L119.261975,8.72007595 C119.690472,9.38388197 120.190384,8.06571912 120.659414,8.90433527 L120.85822,9.26340472 C121.591682,8.87362538 122.359887,8.70117755 122.566415,8.87598768 C122.771012,9.05552241 123.400245,9.41695416 123.45815,9.25159323 C123.516055,9.08387 123.780487,8.69172836 123.915599,8.74842353 C124.05071,8.80511871 124.494648,8.73188744 124.600807,8.46258535 C124.706966,8.19092096 126.428671,8.27832603 127.447798,8.04445842 L128.567292,8.40825247 C129.466748,8.70117755 130.680821,8.81929251 131.759782,8.04918302 L132.277066,7.68066437 C133.255659,7.8720106 134.157045,8.15548648 134.276715,8.30903592 C134.398315,8.46494765 134.988945,8.52400513 135.28812,8.01847314 C135.585365,7.51057884 136.949991,8.37518029 137.044569,8.17674717 C137.137217,7.97831405 137.523249,7.51294114 137.579224,7.83657611 C137.633269,8.16021108 137.938234,8.53345432 138.158273,8.1058782 C138.378312,7.68066437 139.984207,8.30903592 140.644323,8.1129651 L141.4299,8.24997844 L142.462537,8.42951317 C143.709422,7.92161887 144.799964,7.65467908 144.886822,7.83657611 C144.971749,8.01847314 145.305667,8.38699178 145.404106,8.18147177 C145.504474,7.97358945 145.952272,7.44207217 146.201263,7.41608688 L146.291981,7.50585425 L147.027373,8.24289154 C148.009826,8.12713889 149.341638,8.08225521 149.986313,8.14131268 C150.630987,8.19800786 152.649938,7.8531122 153.122828,8.28541293 L153.680645,7.49640505 C153.775223,7.3641163 154.470082,7.73263495 154.881207,7.71609886 L156.093349,7.67593978 C157.425162,7.57436092 159.289699,7.32631952 160.233549,7.1255241 L160.939989,7.96177796 L161.082821,8.12950119 C161.54606,8.03264693 162.244779,7.95705336 162.638533,7.96414026 C163.032286,7.97122715 163.997367,8.20981936 164.037901,7.93579267 C164.080365,7.66412828 165.367783,7.81295312 165.815581,8.3562819 L166.51237,7.67593978 L166.738199,7.45624597 C167.367432,7.59562161 168.114406,7.74917105 168.39814,7.79169243 C168.683804,7.83657611 169.724162,7.97831405 170.106334,7.98540095 L170.453763,7.98540095 C170.716266,7.98540095 170.988419,8.03500923 171.233549,7.97358945 C171.505702,7.90272048 171.739252,7.68302667 172.011405,7.6239692 L172.173539,7.59089701 C172.385857,7.70428736 172.802772,7.69956277 173.100017,7.57908552 C173.399192,7.45860827 174.31795,7.84602531 174.775399,8.22163085 L174.759957,7.23891446 L174.759957,7.23182756 C175.037901,7.22474066 176.028075,7.52239034 176.960343,7.89090899 L177.821196,7.93343037 L178.494823,7.96414026 C179.255307,7.59089701 180.017722,7.21056687 180.187576,7.11843721 C180.357431,7.02394524 180.982803,7.46805746 181.251096,8.04209613 L182.071416,7.73499725 C182.497982,7.57436092 183.271977,7.41844918 183.43025,7.6216069 C183.767064,8.05036417 183.989998,7.91335083 184.206417,7.71344127 L184.324464,7.60118459 C184.5025,7.43251072 184.689243,7.28293912 184.943498,7.42789838 L185.483944,7.73735955 C186.252149,7.77751863 187.238462,7.93815497 187.674679,8.0940667 L187.811721,7.95941566 L188.63397,7.1420602 C189.514125,7.55073793 190.374978,7.74917105 190.544832,7.58381011 C190.716616,7.41372458 191.378662,7.11135031 191.554307,7.3688409 C191.728022,7.6239692 192.253026,8.349195 192.287769,8.3468327 C192.320582,8.3444704 192.841726,8.07516831 193.316546,7.82004002 C193.791366,7.56491172 195.767853,7.53183954 196.399017,7.63341839 C197.03211,7.73735955 198.724863,7.54601333 199.213195,7.76334484 C199.703456,7.98067635 200.956132,7.18221928 201.388489,7.46097056 L201.402,7.44207217 L202.594841,5.79554975 C204.175644,6.49242796 205.7854,7.05229283 206.173363,7.04284364 C206.561326,7.03103214 207.285137,6.879845 207.236883,7.33813102 C207.190559,7.79877933 208.701877,6.90583029 209.08984,6.72629557 C209.479733,6.54676084 210.321284,6.68377418 210.608878,6.74991856 C210.896472,6.81606293 211.637655,6.57747073 211.705211,6.74046936 C211.772767,6.9011057 212.120196,7.31214573 212.255307,7.11371261 C212.390419,6.91527949 213.276364,6.42628359 213.949991,6.43100819 L214.505878,6.75464316 L216.165818,7.3688409 L216.54606,7.08064042 C217.044042,6.70031028 217.520792,6.50660176 217.60765,6.6554266 C217.692577,6.80425144 218.364274,7.34521791 218.783119,7.6263315 L219.667134,6.76173005 L219.767502,6.66251349 C219.985611,6.66723809 220.367783,6.81842523 220.614844,7.00032225 C220.861905,7.18221928 222.384804,7.11135031 223.319003,6.68377418 L223.394279,6.60581832 L223.745569,6.23021277 C224.187576,6.42392129 224.442358,7.19639307 224.313037,7.94760416 L225.446042,7.21292917 L226.304965,6.6554266 C226.24706,7.35939171 226.264432,7.52947724 226.347429,7.03575674 C226.430426,6.53967394 227.673451,7.29560963 227.739076,7.27671124 C227.804702,7.25545055 228.360589,7.14914709 228.825758,7.03103214 C229.292858,6.91291719 231.033865,7.49168045 231.500964,7.6216069 C231.968064,7.75153334 233.120371,7.08772732 233.292156,7.26017515 C233.465871,7.43026068 233.948411,7.88854669 233.988945,7.90272048 C234.029478,7.91689428 234.261098,7.73735955 234.465695,7.53420183 C234.668362,7.33104412 235.577469,7.09953881 235.94034,7.24127676 L236.285839,7.26962434 C236.486576,7.28852274 236.843656,6.91527949 236.901561,6.96725007 L237.4864,7.50349195 C238.086681,7.22946526 239.177223,7.23418986 239.910685,7.51294114 L240.593963,7.75153334 L240.866116,7.84602531 C241.203895,7.84366301 241.643972,7.69956277 241.844709,7.52947724 C242.043516,7.35939171 242.883137,7.31450803 243.147569,7.11371261 C243.412001,6.91291719 245.091243,7.35230481 245.913493,7.41136229 L246.681698,7.47278206 L247.334093,7.52239034 C248.021231,7.73972185 248.692928,7.79641703 248.828039,7.64522989 C248.963151,7.49168045 249.762238,7.18458158 250.302684,7.29088503 L250.717669,7.49640505 C251.153886,7.71373656 251.516757,8.39880328 251.541849,7.27434894 C251.543779,7.24127676 251.862256,7.18221928 252.02632,7.19639307 C253.033865,7.27671124 254.070362,7.56254942 255.037374,7.40427539 L255.782417,7.28379814 C256.371117,7.56018712 256.982979,7.80350392 257.145112,7.82948921 C257.307246,7.8531122 258.042638,7.68775127 258.449903,7.57199862 C258.855237,7.45152137 261.368309,7.66412828 262.065098,7.90508278 C262.759957,8.15076188 264.69012,6.96961237 265.135988,6.98851076 C265.583786,7.00740915 267.232145,6.76645465 267.795753,6.47825417 C268.361291,6.19241599 269.669941,7.41372458 269.818564,7.39246389 C269.969117,7.3688409 270.806807,6.74755626 271.163888,7.22237836 L271.532549,7.30742113 C271.916651,7.39246389 272.464818,6.87275811 272.812247,6.99087306 L273.534128,7.23418986 C273.9163,6.79716454 274.462536,6.45699348 274.74627,6.48061647 L274.923845,6.60818062 L275.253903,6.85149742 C275.558869,7.18930618 275.958413,7.31687032 276.141778,7.1349733 C276.323214,6.95307627 276.813475,6.72629557 276.848218,7.01213375 C276.881031,7.29560963 277.990875,7.34521791 278.17231,7.11843721 C278.353745,6.8940188 279.150903,6.59636912 279.322687,6.85622201 C279.492542,7.11371261 280.0658,7.83421381 280.17775,7.82476461 L280.216353,7.74208415 C280.562576,7.00829501 281.017371,7.11330659 281.477537,7.2819895 L281.661646,7.35102113 C281.876203,7.43123266 282.088933,7.50280294 282.289348,7.48695585 L282.621336,7.45860827 C283.105807,7.27671124 283.677135,7.17277008 283.891384,7.22474066 C284.107562,7.27907354 284.694331,7.34049331 285.076504,7.51530344 C285.458676,7.68775127 287.103175,7.17749468 287.799964,7.39482619 L288.572029,7.19875537 C288.998595,7.09245192 289.585365,7.55546253 289.988769,7.42317378 L290.679767,7.19639307 C291.363045,7.34521791 292.414984,7.51530344 293.017195,7.58144782 L293.578873,7.47750666 L294.563256,7.29560963 C295.667309,7.19639307 296.719248,7.09717651 296.898753,7.07591582 C297.078258,7.05465513 297.657307,7.49876735 297.931391,7.88145979 C298.205474,8.26415223 299.431127,7.66176598 299.635725,7.83657611 C299.840322,8.01374854 300.490787,8.3515573 300.627829,8.19564556 L300.602736,8.07989291 C300.52553,7.72791035 300.226355,7.11843721 300.270748,7.09717651 L300.917353,6.75464316 C301.062115,7.28852274 301.322687,7.77988093 301.494472,7.84366301 C301.668186,7.90744508 302.158448,7.71609886 302.332163,7.55782482 C302.505877,7.39482619 303.117739,7.10898801 303.316546,7.29560963 C303.515353,7.47986896 304.07124,7.31923262 304.115633,6.53967394 L305.125109,7.05701743 L305.155991,7.07355352 C304.995788,7.47514436 305.404982,7.70192507 306.065098,7.58144782 C306.725214,7.45860827 308.302157,8.37754259 308.444989,8.23344235 L308.441129,8.1058782 L308.417967,7.21292917 C309.022108,7.3782901 309.63976,7.64759219 309.792243,7.81531542 C309.942796,7.98303865 310.456219,8.32084741 310.498683,8.03500923 C310.543077,7.74680875 310.992805,7.30742113 311.40972,7.65467908 C311.826635,7.99957474 313.529039,7.45624597 313.994209,7.44443447 C314.459378,7.43498528 315.675381,8.07753061 315.769959,8.29722442 C315.866467,8.52164283 317.124933,8.1035159 317.290927,7.87909749 C317.460782,7.65231679 318.366028,7.43026068 318.663273,8.24525384 L319.560799,7.99012555 C320.508509,7.72082346 318.97596,7.10898801 319.665028,7.00740915 L320.363747,6.90583029 C320.917101,6.92044702 321.994117,6.93394719 323.11059,6.94095738 L323.720578,6.94410519 C323.821925,6.94451179 323.92287,6.94485667 324.02305,6.94513581 L326.005614,6.94598938 C326.702403,6.94598938 327.399192,6.91527949 328.094051,6.95543857 L328.67503,6.98614846 C329.296542,7.10662571 330.282856,6.80897603 330.867695,6.32234243 L331.493068,7.20584227 L331.86752,7.73263495 C331.919634,7.25781285 332.243901,6.58219533 332.589401,6.23493737 L332.882785,6.60581832 L333.353745,7.20347997 C333.921213,7.02158295 334.747323,6.78062844 335.191261,6.66960039 C335.635198,6.55857234 337.098262,6.25383576 337.449552,6.01051896 C337.800841,5.76483986 339.101771,6.45226888 339.56115,6.48534107 C340.018599,6.51841325 341.371643,6.75228086 341.607123,6.61290521 C341.842603,6.47589187 342.792243,6.1569815 343.409895,6.00579436 L343.873135,5.71286928 L344.751359,5.16009131 C345.12581,5.81444814 345.465519,6.13335851 345.504122,5.87114332 C345.544656,5.60656583 346.087032,4.9403975 346.598525,5.15300442 C347.111948,5.36561133 348.829794,5.9089401 349.350938,5.9089401 C349.870152,5.9113024 351.713457,4.96874509 352.711352,4.9403975 L353.539392,4.98764348 C354.384803,5.03488946 355.17424,4.85063014 355.984909,4.87897773 L356.542726,4.90023842 C356.996314,4.62148713 357.785751,4.54589357 358.301104,4.73723979 L358.559746,4.57896575 C359.370415,4.08052066 359.609755,4.30730136 359.700473,5.13883062 L359.708193,5.20969959 C360.161782,5.22623569 361.198279,4.7136168 362.008948,4.07343376 L363.226881,5.05378786 L363.350411,5.15300442 C363.485523,5.26167017 363.605193,5.00181728 363.618704,4.57187885 C363.632215,4.14430273 365.199508,4.63329863 365.564308,4.76086278 C365.931039,4.89078922 367.23776,4.75850048 367.623793,4.64983472 C368.011755,4.54116897 369.223898,4.20336021 369.534654,4.29076527 C369.847341,4.37817033 371.063343,3.89862363 371.754342,3.9860287 C372.44341,4.07343376 374.477802,3.92460892 374.767326,4.05925997 C375.056851,4.19863561 375.674503,4.77503657 375.736268,4.59313955 C375.799964,4.41360482 376.172485,4.10886825 376.315317,4.63329863 L376.527635,4.72306599 L376.878925,4.87189083 C377.332513,4.80810876 378.35743,4.7041676 379.150727,4.64038553 L379.610106,4.29548987 L380.223898,3.83484156 C380.675556,4.10414365 381.206351,4.32619976 381.405158,4.32619976 C381.602034,4.32619976 382.134759,4.05925997 382.302684,3.94823191 C382.470608,3.83720386 383.603613,4.13957813 384.213545,4.30493906 C384.821546,4.4679377 386.581855,3.89626133 386.740129,3.83956616 C386.898402,3.78050868 387.695559,4.83645635 387.745744,4.53408207 C387.797858,4.2269832 388.353745,3.53010498 388.8884,3.52774269 L389.36129,3.56317717 L389.969292,3.60806085 C390.615896,3.93405812 391.528864,4.12067974 391.997893,4.02618778 C392.464993,3.93169582 393.916475,3.42852613 394.271625,3.34584566 C394.390009,3.31749807 394.570801,3.34637062 394.761243,3.38696716 L394.991031,3.43839879 C395.294586,3.50671297 395.568824,3.55845257 395.597647,3.40726543 C395.653622,3.12378955 395.919985,2.39620145 396.076328,2.41037525 L396.153534,2.48596881 L396.391597,2.72367722 C396.915664,3.24871453 397.427358,3.70152573 398.340409,3.06473208 L398.643445,2.85448746 C399.234075,2.9938631 399.950165,3.07181897 400.23583,3.02693529 C400.521494,2.98205161 401.384277,3.31513577 401.575363,3.34112106 L401.739427,3.29859968 L402.36673,3.14268794 C403.053868,2.96079092 404.063343,2.88047275 404.607649,2.96551552 L405.109492,3.0151238 L405.495524,3.05055828 C406.018598,2.57101158 406.591857,2.40801295 406.769432,2.68203963 C406.947007,2.96079092 407.514475,3.30332428 407.773117,3.04583368 C408.031759,2.78598079 409.060536,2.24737661 409.332689,2.57101158 C409.606772,2.89228425 410.544831,3.18284703 411.36129,3.2584406 L412.013685,3.38600474 L412.65643,3.51356889 C413.12932,3.28678818 413.903315,3.06945667 414.376205,3.03402219 L414.78733,2.80487918 L414.986137,2.69385113 C415.291102,2.7552709 416.316019,2.55211319 417.263729,2.24265201 L418.195998,2.9962254 L418.68819,3.39545394 C419.626249,3.33639646 420.436917,2.96315322 420.487102,2.56628698 C420.537286,2.17178304 421.689593,2.44108513 421.971397,2.59699687 C422.253201,2.7529086 423.409369,2.84976286 423.791541,2.93716793 C424.175644,3.02457299 425.115633,2.47179502 425.19477,2.5166787 C425.273906,2.56156238 425.615545,2.86629896 425.814352,3.05055828 C426.013159,3.23481761 427.497454,3.61278545 427.271625,3.34584566 C427.045796,3.07890587 427.09212,2.78361849 427.759957,3.14268794 L428.481838,2.32297018 C428.784873,1.98043682 429.81172,2.23084052 430.504649,2.2757242 L431.016142,2.31115869 C431.406035,2.70330032 431.82102,3.04347138 431.93876,3.06236978 C432.0565,3.08599277 433.025442,3.10489116 433.973152,3.21355691 L434.627477,2.33714398 L434.731706,2.19776833 C435.648533,2.58754767 436.31251,2.68912653 436.20442,2.42691134 C436.098262,2.16469615 435.926477,1.49852782 436.005614,1.40403586 C436.08475,1.3071816 436.758377,1.15599446 437.370239,1.0520533 C437.984031,0.948112148 439.682575,1.58593288 439.960518,1.41584736 L440.089839,1.48671633 L440.686259,1.81980049 C441.40042,1.7820037 442.261273,1.92374165 442.597121,2.13162396 C442.816677,2.26674746 443.408914,1.81001466 444.008612,1.31415747 L444.284596,1.08453492 C444.512808,0.894222201 444.733812,0.710701096 444.926828,0.565419705 L445.681522,0.886692373 L446.557816,1.25757332 C447.0751,0.763852824 447.565361,0.350450494 447.646428,0.341001298 C447.727495,0.331552102 448.040181,0.232335543 448.279521,0.0409893214 C448.520792,-0.1503569 449.532197,0.381160381 449.79663,0.546521313 Z M81.87,130.19 L82.1743999,130.197414 C83.8672303,130.23508 85.9233389,130.27335 88.1741289,130.310082 L88.59,130.316 L88.4917966,130.334478 C88.3600629,130.366074 88.2413579,130.425722 88.1670466,130.50604 C88.0203542,130.666676 87.5030705,130.966688 87.3351463,130.801327 C87.1672221,130.635966 86.4337601,130.950152 86.2754867,131.056456 C86.1172133,131.162759 85.2872432,131.344656 84.4746445,131.510017 L83.7546936,131.224179 C83.3802419,131.077716 83.0250919,130.88637 82.6641514,130.709198 C82.4040619,130.58187 82.1696629,130.302333 81.9053987,130.201517 L81.87,130.19 Z M77.747,130.055 L77.7739994,130.057542 C78.0186804,130.074999 78.4326147,130.093443 78.9894805,130.112541 L79.183,130.118 L79.1450648,130.169493 C79.0689183,130.274444 78.9884258,130.398697 78.9022634,130.543837 L78.4197226,131.354105 C78.1974132,130.731987 77.9492436,130.260206 77.7604479,130.067397 L77.747,130.055 Z M88.835,130.32 L89.2261648,130.326917 C91.1779892,130.357554 93.25063,130.386853 95.3419469,130.413515 L96.156,130.423 L96.031006,130.45945 C95.6693705,130.563904 95.4060669,130.641664 95.3067202,130.673763 C95.0654498,130.751719 94.038603,130.683212 93.4363921,130.687937 C93.2350117,130.689512 92.9266146,130.724684 92.6026331,130.764405 L92.2768433,130.804568 C91.7364902,130.870446 91.2375073,130.922067 91.2031933,130.82495 C91.1394979,130.647778 90.7959289,130.326505 90.5855411,130.522576 C90.3751533,130.718647 89.6223897,130.971413 89.354097,130.678488 L89.0800138,130.470605 L88.8947181,130.33123 L88.835,130.32 Z M110.18,130.544 L110.400181,130.545618 C110.534715,130.545958 110.667178,130.546247 110.797493,130.546485 L111.062,130.547 L111.030294,130.566147 C110.927902,130.6278 110.854985,130.674288 110.837828,130.683212 L110.760622,130.709198 C110.522633,130.789988 110.35465,130.710899 110.209512,130.574107 L110.18,130.544 Z M111.654,130.24 L111.717899,130.260106 C111.808823,130.284195 111.903397,130.300507 111.999844,130.310057 L112.061,130.314 C112.052728,130.38995 112.049025,130.446886 112.049436,130.493857 L112.052,130.547 L111.062,130.547 L111.112203,130.517414 C111.25656,130.432619 111.436702,130.332878 111.601288,130.261936 L111.654,130.24 Z M108.9675,129.97216 L108.446356,130.2391 C107.714824,130.227289 106.938899,130.18713 106.72079,130.154057 C106.504612,130.120985 105.736407,130.298158 105.238425,130.33123 C104.738513,130.36194 103.267728,129.915465 102.997505,130.309969 L102.716,130.494 L103.207158,130.499827 C103.92476,130.506316 104.627642,130.512239 105.310893,130.517532 L105.512,130.519 L105.565151,130.50692 C106.075538,130.38815 106.563998,130.291377 106.886001,130.260598 L107.032462,130.250912 C107.690647,130.234376 108.798561,130.307607 109.49535,130.411548 L109.49535,130.411548 L109.952,130.274 L109.935718,130.253865 C109.709648,129.973342 109.459692,129.721757 108.9675,129.97216 Z M80.463,130.156 L80.7198783,130.16288 C80.9434648,130.168586 81.1768775,130.174322 81.4195024,130.180081 L81.585,130.184 L81.5213095,130.205896 C81.4111667,130.253179 81.2937355,130.343986 81.1663448,130.494228 C81.1142304,130.553286 80.7474994,130.468243 80.6413404,130.350128 C80.5855973,130.288142 80.5322383,130.229572 80.4808711,130.174888 L80.463,130.156 Z M97.9915772,129.903654 L98.6825756,130.295795 L98.968,130.456 L98.7641956,130.45458 C98.5749863,130.452453 98.385471,130.450298 98.1957263,130.448116 L97.0551198,130.434715 C96.8647646,130.432431 96.6743336,130.430122 96.4839035,130.427789 L96.156,130.423 L96.1918216,130.413105 C96.6356971,130.285456 97.1957611,130.126479 97.7740541,129.964487 L97.9915772,129.903654 Z M79.2198117,130.070919 C79.6601898,129.51737 79.9600041,129.639712 80.4052652,130.095835 L80.463,130.156 L80.3919447,130.154344 C79.9647308,130.142995 79.5780493,130.131781 79.2368114,130.120765 L79.183,130.118 Z M23.1728029,98.2182367 C23.3740391,97.6955857 23.4282181,98.2559838 23.5510883,98.4098754 L23.5510883,98.4098754 L23.6884708,98.5811888 C23.8510078,98.6886227 23.9912927,99.0370567 24,99.3535509 L24,99.3535509 L23.9593658,99.5016353 C23.9266096,99.6179874 23.8935424,99.7512723 23.8600025,99.8892618 L23.7922442,100.167891 C23.6895172,100.584373 23.581564,100.969828 23.464015,100.994094 C23.1850576,101.052167 23.1802202,100.672904 23.1958539,100.254608 L23.2056614,100.002133 C23.2138671,99.7513464 23.2111796,99.5151856 23.1428109,99.3796834 C22.8932006,98.8860686 23.0151033,98.6334539 23.1728029,98.2182367 Z M29.0670448,86.6794991 C29.2190448,85.9233503 29.3920448,85.7768098 29.4540448,86.3483176 L29.4540448,86.3483176 L29.4370448,86.7498385 C29.4020448,87.6056349 29.4970448,88.1009417 29.8920448,88.1712811 L29.8920448,88.1712811 L29.9420448,88.1800735 C30.0050448,88.7515814 29.8860448,89.1062093 29.6790448,88.9713921 C29.4710448,88.833644 28.9150448,87.4356479 29.0670448,86.6794991 Z" id="Combined-Shape"></path>
                </g>
            </g>
        </g>
    </g>
</svg>